G04 #@! TF.GenerationSoftware,KiCad,Pcbnew,(5.1.5-0)*
G04 #@! TF.CreationDate,2021-02-11T14:19:56-07:00*
G04 #@! TF.ProjectId,ideal-diode,69646561-6c2d-4646-996f-64652e6b6963,rev?*
G04 #@! TF.SameCoordinates,Original*
G04 #@! TF.FileFunction,Copper,L2,Bot*
G04 #@! TF.FilePolarity,Positive*
%FSLAX46Y46*%
G04 Gerber Fmt 4.6, Leading zero omitted, Abs format (unit mm)*
G04 Created by KiCad (PCBNEW (5.1.5-0)) date 2021-02-11 14:19:56*
%MOMM*%
%LPD*%
G04 APERTURE LIST*
%ADD10C,1.400000*%
%ADD11O,1.200000X1.750000*%
%ADD12C,0.100000*%
%ADD13O,1.750000X1.200000*%
%ADD14C,0.800000*%
%ADD15C,0.250000*%
%ADD16C,0.254000*%
G04 APERTURE END LIST*
D10*
X138600000Y-94340000D03*
X138600000Y-91800000D03*
D11*
X124500000Y-97500000D03*
G04 #@! TA.AperFunction,ComponentPad*
D12*
G36*
X126874505Y-96626204D02*
G01*
X126898773Y-96629804D01*
X126922572Y-96635765D01*
X126945671Y-96644030D01*
X126967850Y-96654520D01*
X126988893Y-96667132D01*
X127008599Y-96681747D01*
X127026777Y-96698223D01*
X127043253Y-96716401D01*
X127057868Y-96736107D01*
X127070480Y-96757150D01*
X127080970Y-96779329D01*
X127089235Y-96802428D01*
X127095196Y-96826227D01*
X127098796Y-96850495D01*
X127100000Y-96874999D01*
X127100000Y-98125001D01*
X127098796Y-98149505D01*
X127095196Y-98173773D01*
X127089235Y-98197572D01*
X127080970Y-98220671D01*
X127070480Y-98242850D01*
X127057868Y-98263893D01*
X127043253Y-98283599D01*
X127026777Y-98301777D01*
X127008599Y-98318253D01*
X126988893Y-98332868D01*
X126967850Y-98345480D01*
X126945671Y-98355970D01*
X126922572Y-98364235D01*
X126898773Y-98370196D01*
X126874505Y-98373796D01*
X126850001Y-98375000D01*
X126149999Y-98375000D01*
X126125495Y-98373796D01*
X126101227Y-98370196D01*
X126077428Y-98364235D01*
X126054329Y-98355970D01*
X126032150Y-98345480D01*
X126011107Y-98332868D01*
X125991401Y-98318253D01*
X125973223Y-98301777D01*
X125956747Y-98283599D01*
X125942132Y-98263893D01*
X125929520Y-98242850D01*
X125919030Y-98220671D01*
X125910765Y-98197572D01*
X125904804Y-98173773D01*
X125901204Y-98149505D01*
X125900000Y-98125001D01*
X125900000Y-96874999D01*
X125901204Y-96850495D01*
X125904804Y-96826227D01*
X125910765Y-96802428D01*
X125919030Y-96779329D01*
X125929520Y-96757150D01*
X125942132Y-96736107D01*
X125956747Y-96716401D01*
X125973223Y-96698223D01*
X125991401Y-96681747D01*
X126011107Y-96667132D01*
X126032150Y-96654520D01*
X126054329Y-96644030D01*
X126077428Y-96635765D01*
X126101227Y-96629804D01*
X126125495Y-96626204D01*
X126149999Y-96625000D01*
X126850001Y-96625000D01*
X126874505Y-96626204D01*
G37*
G04 #@! TD.AperFunction*
D13*
X141600000Y-87300000D03*
G04 #@! TA.AperFunction,ComponentPad*
D12*
G36*
X142249505Y-84701204D02*
G01*
X142273773Y-84704804D01*
X142297572Y-84710765D01*
X142320671Y-84719030D01*
X142342850Y-84729520D01*
X142363893Y-84742132D01*
X142383599Y-84756747D01*
X142401777Y-84773223D01*
X142418253Y-84791401D01*
X142432868Y-84811107D01*
X142445480Y-84832150D01*
X142455970Y-84854329D01*
X142464235Y-84877428D01*
X142470196Y-84901227D01*
X142473796Y-84925495D01*
X142475000Y-84949999D01*
X142475000Y-85650001D01*
X142473796Y-85674505D01*
X142470196Y-85698773D01*
X142464235Y-85722572D01*
X142455970Y-85745671D01*
X142445480Y-85767850D01*
X142432868Y-85788893D01*
X142418253Y-85808599D01*
X142401777Y-85826777D01*
X142383599Y-85843253D01*
X142363893Y-85857868D01*
X142342850Y-85870480D01*
X142320671Y-85880970D01*
X142297572Y-85889235D01*
X142273773Y-85895196D01*
X142249505Y-85898796D01*
X142225001Y-85900000D01*
X140974999Y-85900000D01*
X140950495Y-85898796D01*
X140926227Y-85895196D01*
X140902428Y-85889235D01*
X140879329Y-85880970D01*
X140857150Y-85870480D01*
X140836107Y-85857868D01*
X140816401Y-85843253D01*
X140798223Y-85826777D01*
X140781747Y-85808599D01*
X140767132Y-85788893D01*
X140754520Y-85767850D01*
X140744030Y-85745671D01*
X140735765Y-85722572D01*
X140729804Y-85698773D01*
X140726204Y-85674505D01*
X140725000Y-85650001D01*
X140725000Y-84949999D01*
X140726204Y-84925495D01*
X140729804Y-84901227D01*
X140735765Y-84877428D01*
X140744030Y-84854329D01*
X140754520Y-84832150D01*
X140767132Y-84811107D01*
X140781747Y-84791401D01*
X140798223Y-84773223D01*
X140816401Y-84756747D01*
X140836107Y-84742132D01*
X140857150Y-84729520D01*
X140879329Y-84719030D01*
X140902428Y-84710765D01*
X140926227Y-84704804D01*
X140950495Y-84701204D01*
X140974999Y-84700000D01*
X142225001Y-84700000D01*
X142249505Y-84701204D01*
G37*
G04 #@! TD.AperFunction*
D13*
X119000000Y-93500000D03*
G04 #@! TA.AperFunction,ComponentPad*
D12*
G36*
X119649505Y-90901204D02*
G01*
X119673773Y-90904804D01*
X119697572Y-90910765D01*
X119720671Y-90919030D01*
X119742850Y-90929520D01*
X119763893Y-90942132D01*
X119783599Y-90956747D01*
X119801777Y-90973223D01*
X119818253Y-90991401D01*
X119832868Y-91011107D01*
X119845480Y-91032150D01*
X119855970Y-91054329D01*
X119864235Y-91077428D01*
X119870196Y-91101227D01*
X119873796Y-91125495D01*
X119875000Y-91149999D01*
X119875000Y-91850001D01*
X119873796Y-91874505D01*
X119870196Y-91898773D01*
X119864235Y-91922572D01*
X119855970Y-91945671D01*
X119845480Y-91967850D01*
X119832868Y-91988893D01*
X119818253Y-92008599D01*
X119801777Y-92026777D01*
X119783599Y-92043253D01*
X119763893Y-92057868D01*
X119742850Y-92070480D01*
X119720671Y-92080970D01*
X119697572Y-92089235D01*
X119673773Y-92095196D01*
X119649505Y-92098796D01*
X119625001Y-92100000D01*
X118374999Y-92100000D01*
X118350495Y-92098796D01*
X118326227Y-92095196D01*
X118302428Y-92089235D01*
X118279329Y-92080970D01*
X118257150Y-92070480D01*
X118236107Y-92057868D01*
X118216401Y-92043253D01*
X118198223Y-92026777D01*
X118181747Y-92008599D01*
X118167132Y-91988893D01*
X118154520Y-91967850D01*
X118144030Y-91945671D01*
X118135765Y-91922572D01*
X118129804Y-91898773D01*
X118126204Y-91874505D01*
X118125000Y-91850001D01*
X118125000Y-91149999D01*
X118126204Y-91125495D01*
X118129804Y-91101227D01*
X118135765Y-91077428D01*
X118144030Y-91054329D01*
X118154520Y-91032150D01*
X118167132Y-91011107D01*
X118181747Y-90991401D01*
X118198223Y-90973223D01*
X118216401Y-90956747D01*
X118236107Y-90942132D01*
X118257150Y-90929520D01*
X118279329Y-90919030D01*
X118302428Y-90910765D01*
X118326227Y-90904804D01*
X118350495Y-90901204D01*
X118374999Y-90900000D01*
X119625001Y-90900000D01*
X119649505Y-90901204D01*
G37*
G04 #@! TD.AperFunction*
D14*
X135000000Y-84700000D03*
X135300000Y-90800000D03*
X133200000Y-95000000D03*
X133200000Y-90800000D03*
X126500000Y-80625000D03*
X129600000Y-92000000D03*
X129000000Y-84900000D03*
X127500000Y-90000000D03*
X128500000Y-81500000D03*
D15*
X133200000Y-95000000D02*
X133200000Y-90000000D01*
X124500000Y-82625000D02*
X124500000Y-97500000D01*
X126500000Y-80625000D02*
X124500000Y-82625000D01*
X129600000Y-85500000D02*
X129000000Y-84900000D01*
X129600000Y-85500000D02*
X129600000Y-92000000D01*
X127500000Y-82500000D02*
X128500000Y-81500000D01*
X127500000Y-90000000D02*
X127500000Y-82500000D01*
D16*
G36*
X123989003Y-82061196D02*
G01*
X123959999Y-82084999D01*
X123904871Y-82152174D01*
X123865026Y-82200724D01*
X123809857Y-82303937D01*
X123794454Y-82332754D01*
X123750997Y-82476015D01*
X123740000Y-82587668D01*
X123740000Y-82587678D01*
X123736324Y-82625000D01*
X123740000Y-82662322D01*
X123740001Y-96251067D01*
X123622499Y-96347498D01*
X123468168Y-96535551D01*
X123353489Y-96750099D01*
X123282870Y-96982898D01*
X123265000Y-97164335D01*
X123265000Y-97835664D01*
X123282870Y-98017101D01*
X123353489Y-98249900D01*
X123468167Y-98464448D01*
X123622498Y-98652502D01*
X123810551Y-98806833D01*
X124025099Y-98921511D01*
X124257898Y-98992130D01*
X124500000Y-99015975D01*
X124742101Y-98992130D01*
X124974900Y-98921511D01*
X125189448Y-98806833D01*
X125377502Y-98652502D01*
X125409191Y-98613889D01*
X125411595Y-98618387D01*
X125522038Y-98752962D01*
X125656613Y-98863405D01*
X125810149Y-98945472D01*
X125976745Y-98996008D01*
X126149999Y-99013072D01*
X126850001Y-99013072D01*
X127023255Y-98996008D01*
X127189851Y-98945472D01*
X127343387Y-98863405D01*
X127477962Y-98752962D01*
X127588405Y-98618387D01*
X127670472Y-98464851D01*
X127721008Y-98298255D01*
X127738072Y-98125001D01*
X127738072Y-96874999D01*
X127721008Y-96701745D01*
X127670472Y-96535149D01*
X127588405Y-96381613D01*
X127477962Y-96247038D01*
X127343387Y-96136595D01*
X127189851Y-96054528D01*
X127023255Y-96003992D01*
X126850001Y-95986928D01*
X126149999Y-95986928D01*
X125976745Y-96003992D01*
X125810149Y-96054528D01*
X125656613Y-96136595D01*
X125522038Y-96247038D01*
X125411595Y-96381613D01*
X125409191Y-96386111D01*
X125377502Y-96347498D01*
X125260000Y-96251067D01*
X125260000Y-82939801D01*
X126539802Y-81660000D01*
X126601939Y-81660000D01*
X126801898Y-81620226D01*
X126990256Y-81542205D01*
X127159774Y-81428937D01*
X127303937Y-81284774D01*
X127417205Y-81115256D01*
X127495226Y-80926898D01*
X127535000Y-80726939D01*
X127535000Y-80660000D01*
X127894198Y-80660000D01*
X127840226Y-80696063D01*
X127696063Y-80840226D01*
X127582795Y-81009744D01*
X127504774Y-81198102D01*
X127465000Y-81398061D01*
X127465000Y-81460198D01*
X126988998Y-81936201D01*
X126960000Y-81959999D01*
X126936202Y-81988997D01*
X126936201Y-81988998D01*
X126865026Y-82075724D01*
X126794454Y-82207754D01*
X126750998Y-82351015D01*
X126736324Y-82500000D01*
X126740001Y-82537332D01*
X126740000Y-89296289D01*
X126696063Y-89340226D01*
X126582795Y-89509744D01*
X126504774Y-89698102D01*
X126465000Y-89898061D01*
X126465000Y-90101939D01*
X126504774Y-90301898D01*
X126582795Y-90490256D01*
X126696063Y-90659774D01*
X126840226Y-90803937D01*
X127009744Y-90917205D01*
X127198102Y-90995226D01*
X127398061Y-91035000D01*
X127601939Y-91035000D01*
X127801898Y-90995226D01*
X127990256Y-90917205D01*
X128159774Y-90803937D01*
X128303937Y-90659774D01*
X128417205Y-90490256D01*
X128495226Y-90301898D01*
X128535000Y-90101939D01*
X128535000Y-89898061D01*
X128495226Y-89698102D01*
X128417205Y-89509744D01*
X128303937Y-89340226D01*
X128260000Y-89296289D01*
X128260000Y-85623711D01*
X128340226Y-85703937D01*
X128509744Y-85817205D01*
X128698102Y-85895226D01*
X128840000Y-85923451D01*
X128840001Y-91296288D01*
X128796063Y-91340226D01*
X128682795Y-91509744D01*
X128604774Y-91698102D01*
X128565000Y-91898061D01*
X128565000Y-92101939D01*
X128604774Y-92301898D01*
X128682795Y-92490256D01*
X128796063Y-92659774D01*
X128940226Y-92803937D01*
X129109744Y-92917205D01*
X129298102Y-92995226D01*
X129498061Y-93035000D01*
X129701939Y-93035000D01*
X129901898Y-92995226D01*
X130090256Y-92917205D01*
X130259774Y-92803937D01*
X130403937Y-92659774D01*
X130517205Y-92490256D01*
X130595226Y-92301898D01*
X130635000Y-92101939D01*
X130635000Y-91898061D01*
X130595226Y-91698102D01*
X130517205Y-91509744D01*
X130403937Y-91340226D01*
X130360000Y-91296289D01*
X130360000Y-90698061D01*
X132165000Y-90698061D01*
X132165000Y-90901939D01*
X132204774Y-91101898D01*
X132282795Y-91290256D01*
X132396063Y-91459774D01*
X132440001Y-91503712D01*
X132440000Y-94296289D01*
X132396063Y-94340226D01*
X132282795Y-94509744D01*
X132204774Y-94698102D01*
X132165000Y-94898061D01*
X132165000Y-95101939D01*
X132204774Y-95301898D01*
X132282795Y-95490256D01*
X132396063Y-95659774D01*
X132540226Y-95803937D01*
X132709744Y-95917205D01*
X132898102Y-95995226D01*
X133098061Y-96035000D01*
X133301939Y-96035000D01*
X133501898Y-95995226D01*
X133690256Y-95917205D01*
X133859774Y-95803937D01*
X134003937Y-95659774D01*
X134117205Y-95490256D01*
X134195226Y-95301898D01*
X134235000Y-95101939D01*
X134235000Y-94898061D01*
X134195226Y-94698102D01*
X134117205Y-94509744D01*
X134003937Y-94340226D01*
X133960000Y-94296289D01*
X133960000Y-94208514D01*
X137265000Y-94208514D01*
X137265000Y-94471486D01*
X137316304Y-94729405D01*
X137416939Y-94972359D01*
X137563038Y-95191013D01*
X137748987Y-95376962D01*
X137967641Y-95523061D01*
X138210595Y-95623696D01*
X138468514Y-95675000D01*
X138731486Y-95675000D01*
X138989405Y-95623696D01*
X139232359Y-95523061D01*
X139451013Y-95376962D01*
X139636962Y-95191013D01*
X139783061Y-94972359D01*
X139883696Y-94729405D01*
X139935000Y-94471486D01*
X139935000Y-94208514D01*
X139883696Y-93950595D01*
X139783061Y-93707641D01*
X139636962Y-93488987D01*
X139451013Y-93303038D01*
X139232359Y-93156939D01*
X139018556Y-93068379D01*
X139181366Y-93008935D01*
X139282203Y-92955037D01*
X139341664Y-92721269D01*
X138600000Y-91979605D01*
X137858336Y-92721269D01*
X137917797Y-92955037D01*
X138156242Y-93065934D01*
X138175827Y-93070706D01*
X137967641Y-93156939D01*
X137748987Y-93303038D01*
X137563038Y-93488987D01*
X137416939Y-93707641D01*
X137316304Y-93950595D01*
X137265000Y-94208514D01*
X133960000Y-94208514D01*
X133960000Y-91874473D01*
X137260610Y-91874473D01*
X137300875Y-92134344D01*
X137391065Y-92381366D01*
X137444963Y-92482203D01*
X137678731Y-92541664D01*
X138420395Y-91800000D01*
X138779605Y-91800000D01*
X139521269Y-92541664D01*
X139755037Y-92482203D01*
X139865934Y-92243758D01*
X139928183Y-91988260D01*
X139939390Y-91725527D01*
X139899125Y-91465656D01*
X139808935Y-91218634D01*
X139755037Y-91117797D01*
X139521269Y-91058336D01*
X138779605Y-91800000D01*
X138420395Y-91800000D01*
X137678731Y-91058336D01*
X137444963Y-91117797D01*
X137334066Y-91356242D01*
X137271817Y-91611740D01*
X137260610Y-91874473D01*
X133960000Y-91874473D01*
X133960000Y-91503711D01*
X134003937Y-91459774D01*
X134117205Y-91290256D01*
X134195226Y-91101898D01*
X134235000Y-90901939D01*
X134235000Y-90698061D01*
X134265000Y-90698061D01*
X134265000Y-90901939D01*
X134304774Y-91101898D01*
X134382795Y-91290256D01*
X134496063Y-91459774D01*
X134640226Y-91603937D01*
X134809744Y-91717205D01*
X134998102Y-91795226D01*
X135198061Y-91835000D01*
X135401939Y-91835000D01*
X135601898Y-91795226D01*
X135790256Y-91717205D01*
X135959774Y-91603937D01*
X136103937Y-91459774D01*
X136217205Y-91290256D01*
X136295226Y-91101898D01*
X136335000Y-90901939D01*
X136335000Y-90878731D01*
X137858336Y-90878731D01*
X138600000Y-91620395D01*
X139341664Y-90878731D01*
X139282203Y-90644963D01*
X139043758Y-90534066D01*
X138788260Y-90471817D01*
X138525527Y-90460610D01*
X138265656Y-90500875D01*
X138018634Y-90591065D01*
X137917797Y-90644963D01*
X137858336Y-90878731D01*
X136335000Y-90878731D01*
X136335000Y-90698061D01*
X136295226Y-90498102D01*
X136217205Y-90309744D01*
X136103937Y-90140226D01*
X135959774Y-89996063D01*
X135790256Y-89882795D01*
X135601898Y-89804774D01*
X135401939Y-89765000D01*
X135198061Y-89765000D01*
X134998102Y-89804774D01*
X134809744Y-89882795D01*
X134640226Y-89996063D01*
X134496063Y-90140226D01*
X134382795Y-90309744D01*
X134304774Y-90498102D01*
X134265000Y-90698061D01*
X134235000Y-90698061D01*
X134195226Y-90498102D01*
X134117205Y-90309744D01*
X134003937Y-90140226D01*
X133960000Y-90096289D01*
X133960000Y-89962667D01*
X133949003Y-89851014D01*
X133905546Y-89707753D01*
X133834974Y-89575724D01*
X133740001Y-89459999D01*
X133624276Y-89365026D01*
X133492247Y-89294454D01*
X133348986Y-89250997D01*
X133200000Y-89236323D01*
X133051015Y-89250997D01*
X132907754Y-89294454D01*
X132775725Y-89365026D01*
X132660000Y-89459999D01*
X132565027Y-89575724D01*
X132494455Y-89707753D01*
X132450998Y-89851014D01*
X132440001Y-89962667D01*
X132440001Y-90096288D01*
X132396063Y-90140226D01*
X132282795Y-90309744D01*
X132204774Y-90498102D01*
X132165000Y-90698061D01*
X130360000Y-90698061D01*
X130360000Y-87617609D01*
X140131538Y-87617609D01*
X140135409Y-87655282D01*
X140227579Y-87880533D01*
X140361922Y-88083474D01*
X140533275Y-88256307D01*
X140735054Y-88392390D01*
X140959504Y-88486493D01*
X141198000Y-88535000D01*
X141473000Y-88535000D01*
X141473000Y-87427000D01*
X141727000Y-87427000D01*
X141727000Y-88535000D01*
X142002000Y-88535000D01*
X142240496Y-88486493D01*
X142464946Y-88392390D01*
X142666725Y-88256307D01*
X142838078Y-88083474D01*
X142972421Y-87880533D01*
X143064591Y-87655282D01*
X143068462Y-87617609D01*
X142943731Y-87427000D01*
X141727000Y-87427000D01*
X141473000Y-87427000D01*
X140256269Y-87427000D01*
X140131538Y-87617609D01*
X130360000Y-87617609D01*
X130360000Y-85537322D01*
X130363676Y-85499999D01*
X130360000Y-85462676D01*
X130360000Y-85462667D01*
X130349003Y-85351014D01*
X130305546Y-85207753D01*
X130234975Y-85075725D01*
X130234974Y-85075723D01*
X130163799Y-84988997D01*
X130140001Y-84959999D01*
X130111004Y-84936202D01*
X130035000Y-84860198D01*
X130035000Y-84798061D01*
X129995226Y-84598102D01*
X129995210Y-84598061D01*
X133965000Y-84598061D01*
X133965000Y-84801939D01*
X134004774Y-85001898D01*
X134082795Y-85190256D01*
X134196063Y-85359774D01*
X134340226Y-85503937D01*
X134509744Y-85617205D01*
X134698102Y-85695226D01*
X134898061Y-85735000D01*
X135101939Y-85735000D01*
X135301898Y-85695226D01*
X135490256Y-85617205D01*
X135659774Y-85503937D01*
X135803937Y-85359774D01*
X135917205Y-85190256D01*
X135995226Y-85001898D01*
X136005549Y-84949999D01*
X140086928Y-84949999D01*
X140086928Y-85650001D01*
X140103992Y-85823255D01*
X140154528Y-85989851D01*
X140236595Y-86143387D01*
X140347038Y-86277962D01*
X140481613Y-86388405D01*
X140486406Y-86390967D01*
X140361922Y-86516526D01*
X140227579Y-86719467D01*
X140135409Y-86944718D01*
X140131538Y-86982391D01*
X140256269Y-87173000D01*
X141473000Y-87173000D01*
X141473000Y-87153000D01*
X141727000Y-87153000D01*
X141727000Y-87173000D01*
X142943731Y-87173000D01*
X143068462Y-86982391D01*
X143064591Y-86944718D01*
X142972421Y-86719467D01*
X142838078Y-86516526D01*
X142713594Y-86390967D01*
X142718387Y-86388405D01*
X142852962Y-86277962D01*
X142963405Y-86143387D01*
X143045472Y-85989851D01*
X143096008Y-85823255D01*
X143113072Y-85650001D01*
X143113072Y-84949999D01*
X143096008Y-84776745D01*
X143045472Y-84610149D01*
X142963405Y-84456613D01*
X142852962Y-84322038D01*
X142718387Y-84211595D01*
X142564851Y-84129528D01*
X142398255Y-84078992D01*
X142225001Y-84061928D01*
X140974999Y-84061928D01*
X140801745Y-84078992D01*
X140635149Y-84129528D01*
X140481613Y-84211595D01*
X140347038Y-84322038D01*
X140236595Y-84456613D01*
X140154528Y-84610149D01*
X140103992Y-84776745D01*
X140086928Y-84949999D01*
X136005549Y-84949999D01*
X136035000Y-84801939D01*
X136035000Y-84598061D01*
X135995226Y-84398102D01*
X135917205Y-84209744D01*
X135803937Y-84040226D01*
X135659774Y-83896063D01*
X135490256Y-83782795D01*
X135301898Y-83704774D01*
X135101939Y-83665000D01*
X134898061Y-83665000D01*
X134698102Y-83704774D01*
X134509744Y-83782795D01*
X134340226Y-83896063D01*
X134196063Y-84040226D01*
X134082795Y-84209744D01*
X134004774Y-84398102D01*
X133965000Y-84598061D01*
X129995210Y-84598061D01*
X129917205Y-84409744D01*
X129803937Y-84240226D01*
X129659774Y-84096063D01*
X129490256Y-83982795D01*
X129301898Y-83904774D01*
X129101939Y-83865000D01*
X128898061Y-83865000D01*
X128698102Y-83904774D01*
X128509744Y-83982795D01*
X128340226Y-84096063D01*
X128260000Y-84176289D01*
X128260000Y-82814801D01*
X128539802Y-82535000D01*
X128601939Y-82535000D01*
X128801898Y-82495226D01*
X128990256Y-82417205D01*
X129159774Y-82303937D01*
X129303937Y-82159774D01*
X129417205Y-81990256D01*
X129495226Y-81801898D01*
X129535000Y-81601939D01*
X129535000Y-81398061D01*
X129495226Y-81198102D01*
X129417205Y-81009744D01*
X129303937Y-80840226D01*
X129159774Y-80696063D01*
X129105802Y-80660000D01*
X144340000Y-80660000D01*
X144340001Y-99340000D01*
X115660000Y-99340000D01*
X115660000Y-93500000D01*
X117484025Y-93500000D01*
X117507870Y-93742102D01*
X117578489Y-93974901D01*
X117693167Y-94189449D01*
X117847498Y-94377502D01*
X118035551Y-94531833D01*
X118250099Y-94646511D01*
X118482898Y-94717130D01*
X118664335Y-94735000D01*
X119335665Y-94735000D01*
X119517102Y-94717130D01*
X119749901Y-94646511D01*
X119964449Y-94531833D01*
X120152502Y-94377502D01*
X120306833Y-94189449D01*
X120421511Y-93974901D01*
X120492130Y-93742102D01*
X120515975Y-93500000D01*
X120492130Y-93257898D01*
X120421511Y-93025099D01*
X120306833Y-92810551D01*
X120152502Y-92622498D01*
X120113889Y-92590809D01*
X120118387Y-92588405D01*
X120252962Y-92477962D01*
X120363405Y-92343387D01*
X120445472Y-92189851D01*
X120496008Y-92023255D01*
X120513072Y-91850001D01*
X120513072Y-91149999D01*
X120496008Y-90976745D01*
X120445472Y-90810149D01*
X120363405Y-90656613D01*
X120252962Y-90522038D01*
X120118387Y-90411595D01*
X119964851Y-90329528D01*
X119798255Y-90278992D01*
X119625001Y-90261928D01*
X118374999Y-90261928D01*
X118201745Y-90278992D01*
X118035149Y-90329528D01*
X117881613Y-90411595D01*
X117747038Y-90522038D01*
X117636595Y-90656613D01*
X117554528Y-90810149D01*
X117503992Y-90976745D01*
X117486928Y-91149999D01*
X117486928Y-91850001D01*
X117503992Y-92023255D01*
X117554528Y-92189851D01*
X117636595Y-92343387D01*
X117747038Y-92477962D01*
X117881613Y-92588405D01*
X117886111Y-92590809D01*
X117847498Y-92622498D01*
X117693167Y-92810551D01*
X117578489Y-93025099D01*
X117507870Y-93257898D01*
X117484025Y-93500000D01*
X115660000Y-93500000D01*
X115660000Y-80660000D01*
X125390198Y-80660000D01*
X123989003Y-82061196D01*
G37*
X123989003Y-82061196D02*
X123959999Y-82084999D01*
X123904871Y-82152174D01*
X123865026Y-82200724D01*
X123809857Y-82303937D01*
X123794454Y-82332754D01*
X123750997Y-82476015D01*
X123740000Y-82587668D01*
X123740000Y-82587678D01*
X123736324Y-82625000D01*
X123740000Y-82662322D01*
X123740001Y-96251067D01*
X123622499Y-96347498D01*
X123468168Y-96535551D01*
X123353489Y-96750099D01*
X123282870Y-96982898D01*
X123265000Y-97164335D01*
X123265000Y-97835664D01*
X123282870Y-98017101D01*
X123353489Y-98249900D01*
X123468167Y-98464448D01*
X123622498Y-98652502D01*
X123810551Y-98806833D01*
X124025099Y-98921511D01*
X124257898Y-98992130D01*
X124500000Y-99015975D01*
X124742101Y-98992130D01*
X124974900Y-98921511D01*
X125189448Y-98806833D01*
X125377502Y-98652502D01*
X125409191Y-98613889D01*
X125411595Y-98618387D01*
X125522038Y-98752962D01*
X125656613Y-98863405D01*
X125810149Y-98945472D01*
X125976745Y-98996008D01*
X126149999Y-99013072D01*
X126850001Y-99013072D01*
X127023255Y-98996008D01*
X127189851Y-98945472D01*
X127343387Y-98863405D01*
X127477962Y-98752962D01*
X127588405Y-98618387D01*
X127670472Y-98464851D01*
X127721008Y-98298255D01*
X127738072Y-98125001D01*
X127738072Y-96874999D01*
X127721008Y-96701745D01*
X127670472Y-96535149D01*
X127588405Y-96381613D01*
X127477962Y-96247038D01*
X127343387Y-96136595D01*
X127189851Y-96054528D01*
X127023255Y-96003992D01*
X126850001Y-95986928D01*
X126149999Y-95986928D01*
X125976745Y-96003992D01*
X125810149Y-96054528D01*
X125656613Y-96136595D01*
X125522038Y-96247038D01*
X125411595Y-96381613D01*
X125409191Y-96386111D01*
X125377502Y-96347498D01*
X125260000Y-96251067D01*
X125260000Y-82939801D01*
X126539802Y-81660000D01*
X126601939Y-81660000D01*
X126801898Y-81620226D01*
X126990256Y-81542205D01*
X127159774Y-81428937D01*
X127303937Y-81284774D01*
X127417205Y-81115256D01*
X127495226Y-80926898D01*
X127535000Y-80726939D01*
X127535000Y-80660000D01*
X127894198Y-80660000D01*
X127840226Y-80696063D01*
X127696063Y-80840226D01*
X127582795Y-81009744D01*
X127504774Y-81198102D01*
X127465000Y-81398061D01*
X127465000Y-81460198D01*
X126988998Y-81936201D01*
X126960000Y-81959999D01*
X126936202Y-81988997D01*
X126936201Y-81988998D01*
X126865026Y-82075724D01*
X126794454Y-82207754D01*
X126750998Y-82351015D01*
X126736324Y-82500000D01*
X126740001Y-82537332D01*
X126740000Y-89296289D01*
X126696063Y-89340226D01*
X126582795Y-89509744D01*
X126504774Y-89698102D01*
X126465000Y-89898061D01*
X126465000Y-90101939D01*
X126504774Y-90301898D01*
X126582795Y-90490256D01*
X126696063Y-90659774D01*
X126840226Y-90803937D01*
X127009744Y-90917205D01*
X127198102Y-90995226D01*
X127398061Y-91035000D01*
X127601939Y-91035000D01*
X127801898Y-90995226D01*
X127990256Y-90917205D01*
X128159774Y-90803937D01*
X128303937Y-90659774D01*
X128417205Y-90490256D01*
X128495226Y-90301898D01*
X128535000Y-90101939D01*
X128535000Y-89898061D01*
X128495226Y-89698102D01*
X128417205Y-89509744D01*
X128303937Y-89340226D01*
X128260000Y-89296289D01*
X128260000Y-85623711D01*
X128340226Y-85703937D01*
X128509744Y-85817205D01*
X128698102Y-85895226D01*
X128840000Y-85923451D01*
X128840001Y-91296288D01*
X128796063Y-91340226D01*
X128682795Y-91509744D01*
X128604774Y-91698102D01*
X128565000Y-91898061D01*
X128565000Y-92101939D01*
X128604774Y-92301898D01*
X128682795Y-92490256D01*
X128796063Y-92659774D01*
X128940226Y-92803937D01*
X129109744Y-92917205D01*
X129298102Y-92995226D01*
X129498061Y-93035000D01*
X129701939Y-93035000D01*
X129901898Y-92995226D01*
X130090256Y-92917205D01*
X130259774Y-92803937D01*
X130403937Y-92659774D01*
X130517205Y-92490256D01*
X130595226Y-92301898D01*
X130635000Y-92101939D01*
X130635000Y-91898061D01*
X130595226Y-91698102D01*
X130517205Y-91509744D01*
X130403937Y-91340226D01*
X130360000Y-91296289D01*
X130360000Y-90698061D01*
X132165000Y-90698061D01*
X132165000Y-90901939D01*
X132204774Y-91101898D01*
X132282795Y-91290256D01*
X132396063Y-91459774D01*
X132440001Y-91503712D01*
X132440000Y-94296289D01*
X132396063Y-94340226D01*
X132282795Y-94509744D01*
X132204774Y-94698102D01*
X132165000Y-94898061D01*
X132165000Y-95101939D01*
X132204774Y-95301898D01*
X132282795Y-95490256D01*
X132396063Y-95659774D01*
X132540226Y-95803937D01*
X132709744Y-95917205D01*
X132898102Y-95995226D01*
X133098061Y-96035000D01*
X133301939Y-96035000D01*
X133501898Y-95995226D01*
X133690256Y-95917205D01*
X133859774Y-95803937D01*
X134003937Y-95659774D01*
X134117205Y-95490256D01*
X134195226Y-95301898D01*
X134235000Y-95101939D01*
X134235000Y-94898061D01*
X134195226Y-94698102D01*
X134117205Y-94509744D01*
X134003937Y-94340226D01*
X133960000Y-94296289D01*
X133960000Y-94208514D01*
X137265000Y-94208514D01*
X137265000Y-94471486D01*
X137316304Y-94729405D01*
X137416939Y-94972359D01*
X137563038Y-95191013D01*
X137748987Y-95376962D01*
X137967641Y-95523061D01*
X138210595Y-95623696D01*
X138468514Y-95675000D01*
X138731486Y-95675000D01*
X138989405Y-95623696D01*
X139232359Y-95523061D01*
X139451013Y-95376962D01*
X139636962Y-95191013D01*
X139783061Y-94972359D01*
X139883696Y-94729405D01*
X139935000Y-94471486D01*
X139935000Y-94208514D01*
X139883696Y-93950595D01*
X139783061Y-93707641D01*
X139636962Y-93488987D01*
X139451013Y-93303038D01*
X139232359Y-93156939D01*
X139018556Y-93068379D01*
X139181366Y-93008935D01*
X139282203Y-92955037D01*
X139341664Y-92721269D01*
X138600000Y-91979605D01*
X137858336Y-92721269D01*
X137917797Y-92955037D01*
X138156242Y-93065934D01*
X138175827Y-93070706D01*
X137967641Y-93156939D01*
X137748987Y-93303038D01*
X137563038Y-93488987D01*
X137416939Y-93707641D01*
X137316304Y-93950595D01*
X137265000Y-94208514D01*
X133960000Y-94208514D01*
X133960000Y-91874473D01*
X137260610Y-91874473D01*
X137300875Y-92134344D01*
X137391065Y-92381366D01*
X137444963Y-92482203D01*
X137678731Y-92541664D01*
X138420395Y-91800000D01*
X138779605Y-91800000D01*
X139521269Y-92541664D01*
X139755037Y-92482203D01*
X139865934Y-92243758D01*
X139928183Y-91988260D01*
X139939390Y-91725527D01*
X139899125Y-91465656D01*
X139808935Y-91218634D01*
X139755037Y-91117797D01*
X139521269Y-91058336D01*
X138779605Y-91800000D01*
X138420395Y-91800000D01*
X137678731Y-91058336D01*
X137444963Y-91117797D01*
X137334066Y-91356242D01*
X137271817Y-91611740D01*
X137260610Y-91874473D01*
X133960000Y-91874473D01*
X133960000Y-91503711D01*
X134003937Y-91459774D01*
X134117205Y-91290256D01*
X134195226Y-91101898D01*
X134235000Y-90901939D01*
X134235000Y-90698061D01*
X134265000Y-90698061D01*
X134265000Y-90901939D01*
X134304774Y-91101898D01*
X134382795Y-91290256D01*
X134496063Y-91459774D01*
X134640226Y-91603937D01*
X134809744Y-91717205D01*
X134998102Y-91795226D01*
X135198061Y-91835000D01*
X135401939Y-91835000D01*
X135601898Y-91795226D01*
X135790256Y-91717205D01*
X135959774Y-91603937D01*
X136103937Y-91459774D01*
X136217205Y-91290256D01*
X136295226Y-91101898D01*
X136335000Y-90901939D01*
X136335000Y-90878731D01*
X137858336Y-90878731D01*
X138600000Y-91620395D01*
X139341664Y-90878731D01*
X139282203Y-90644963D01*
X139043758Y-90534066D01*
X138788260Y-90471817D01*
X138525527Y-90460610D01*
X138265656Y-90500875D01*
X138018634Y-90591065D01*
X137917797Y-90644963D01*
X137858336Y-90878731D01*
X136335000Y-90878731D01*
X136335000Y-90698061D01*
X136295226Y-90498102D01*
X136217205Y-90309744D01*
X136103937Y-90140226D01*
X135959774Y-89996063D01*
X135790256Y-89882795D01*
X135601898Y-89804774D01*
X135401939Y-89765000D01*
X135198061Y-89765000D01*
X134998102Y-89804774D01*
X134809744Y-89882795D01*
X134640226Y-89996063D01*
X134496063Y-90140226D01*
X134382795Y-90309744D01*
X134304774Y-90498102D01*
X134265000Y-90698061D01*
X134235000Y-90698061D01*
X134195226Y-90498102D01*
X134117205Y-90309744D01*
X134003937Y-90140226D01*
X133960000Y-90096289D01*
X133960000Y-89962667D01*
X133949003Y-89851014D01*
X133905546Y-89707753D01*
X133834974Y-89575724D01*
X133740001Y-89459999D01*
X133624276Y-89365026D01*
X133492247Y-89294454D01*
X133348986Y-89250997D01*
X133200000Y-89236323D01*
X133051015Y-89250997D01*
X132907754Y-89294454D01*
X132775725Y-89365026D01*
X132660000Y-89459999D01*
X132565027Y-89575724D01*
X132494455Y-89707753D01*
X132450998Y-89851014D01*
X132440001Y-89962667D01*
X132440001Y-90096288D01*
X132396063Y-90140226D01*
X132282795Y-90309744D01*
X132204774Y-90498102D01*
X132165000Y-90698061D01*
X130360000Y-90698061D01*
X130360000Y-87617609D01*
X140131538Y-87617609D01*
X140135409Y-87655282D01*
X140227579Y-87880533D01*
X140361922Y-88083474D01*
X140533275Y-88256307D01*
X140735054Y-88392390D01*
X140959504Y-88486493D01*
X141198000Y-88535000D01*
X141473000Y-88535000D01*
X141473000Y-87427000D01*
X141727000Y-87427000D01*
X141727000Y-88535000D01*
X142002000Y-88535000D01*
X142240496Y-88486493D01*
X142464946Y-88392390D01*
X142666725Y-88256307D01*
X142838078Y-88083474D01*
X142972421Y-87880533D01*
X143064591Y-87655282D01*
X143068462Y-87617609D01*
X142943731Y-87427000D01*
X141727000Y-87427000D01*
X141473000Y-87427000D01*
X140256269Y-87427000D01*
X140131538Y-87617609D01*
X130360000Y-87617609D01*
X130360000Y-85537322D01*
X130363676Y-85499999D01*
X130360000Y-85462676D01*
X130360000Y-85462667D01*
X130349003Y-85351014D01*
X130305546Y-85207753D01*
X130234975Y-85075725D01*
X130234974Y-85075723D01*
X130163799Y-84988997D01*
X130140001Y-84959999D01*
X130111004Y-84936202D01*
X130035000Y-84860198D01*
X130035000Y-84798061D01*
X129995226Y-84598102D01*
X129995210Y-84598061D01*
X133965000Y-84598061D01*
X133965000Y-84801939D01*
X134004774Y-85001898D01*
X134082795Y-85190256D01*
X134196063Y-85359774D01*
X134340226Y-85503937D01*
X134509744Y-85617205D01*
X134698102Y-85695226D01*
X134898061Y-85735000D01*
X135101939Y-85735000D01*
X135301898Y-85695226D01*
X135490256Y-85617205D01*
X135659774Y-85503937D01*
X135803937Y-85359774D01*
X135917205Y-85190256D01*
X135995226Y-85001898D01*
X136005549Y-84949999D01*
X140086928Y-84949999D01*
X140086928Y-85650001D01*
X140103992Y-85823255D01*
X140154528Y-85989851D01*
X140236595Y-86143387D01*
X140347038Y-86277962D01*
X140481613Y-86388405D01*
X140486406Y-86390967D01*
X140361922Y-86516526D01*
X140227579Y-86719467D01*
X140135409Y-86944718D01*
X140131538Y-86982391D01*
X140256269Y-87173000D01*
X141473000Y-87173000D01*
X141473000Y-87153000D01*
X141727000Y-87153000D01*
X141727000Y-87173000D01*
X142943731Y-87173000D01*
X143068462Y-86982391D01*
X143064591Y-86944718D01*
X142972421Y-86719467D01*
X142838078Y-86516526D01*
X142713594Y-86390967D01*
X142718387Y-86388405D01*
X142852962Y-86277962D01*
X142963405Y-86143387D01*
X143045472Y-85989851D01*
X143096008Y-85823255D01*
X143113072Y-85650001D01*
X143113072Y-84949999D01*
X143096008Y-84776745D01*
X143045472Y-84610149D01*
X142963405Y-84456613D01*
X142852962Y-84322038D01*
X142718387Y-84211595D01*
X142564851Y-84129528D01*
X142398255Y-84078992D01*
X142225001Y-84061928D01*
X140974999Y-84061928D01*
X140801745Y-84078992D01*
X140635149Y-84129528D01*
X140481613Y-84211595D01*
X140347038Y-84322038D01*
X140236595Y-84456613D01*
X140154528Y-84610149D01*
X140103992Y-84776745D01*
X140086928Y-84949999D01*
X136005549Y-84949999D01*
X136035000Y-84801939D01*
X136035000Y-84598061D01*
X135995226Y-84398102D01*
X135917205Y-84209744D01*
X135803937Y-84040226D01*
X135659774Y-83896063D01*
X135490256Y-83782795D01*
X135301898Y-83704774D01*
X135101939Y-83665000D01*
X134898061Y-83665000D01*
X134698102Y-83704774D01*
X134509744Y-83782795D01*
X134340226Y-83896063D01*
X134196063Y-84040226D01*
X134082795Y-84209744D01*
X134004774Y-84398102D01*
X133965000Y-84598061D01*
X129995210Y-84598061D01*
X129917205Y-84409744D01*
X129803937Y-84240226D01*
X129659774Y-84096063D01*
X129490256Y-83982795D01*
X129301898Y-83904774D01*
X129101939Y-83865000D01*
X128898061Y-83865000D01*
X128698102Y-83904774D01*
X128509744Y-83982795D01*
X128340226Y-84096063D01*
X128260000Y-84176289D01*
X128260000Y-82814801D01*
X128539802Y-82535000D01*
X128601939Y-82535000D01*
X128801898Y-82495226D01*
X128990256Y-82417205D01*
X129159774Y-82303937D01*
X129303937Y-82159774D01*
X129417205Y-81990256D01*
X129495226Y-81801898D01*
X129535000Y-81601939D01*
X129535000Y-81398061D01*
X129495226Y-81198102D01*
X129417205Y-81009744D01*
X129303937Y-80840226D01*
X129159774Y-80696063D01*
X129105802Y-80660000D01*
X144340000Y-80660000D01*
X144340001Y-99340000D01*
X115660000Y-99340000D01*
X115660000Y-93500000D01*
X117484025Y-93500000D01*
X117507870Y-93742102D01*
X117578489Y-93974901D01*
X117693167Y-94189449D01*
X117847498Y-94377502D01*
X118035551Y-94531833D01*
X118250099Y-94646511D01*
X118482898Y-94717130D01*
X118664335Y-94735000D01*
X119335665Y-94735000D01*
X119517102Y-94717130D01*
X119749901Y-94646511D01*
X119964449Y-94531833D01*
X120152502Y-94377502D01*
X120306833Y-94189449D01*
X120421511Y-93974901D01*
X120492130Y-93742102D01*
X120515975Y-93500000D01*
X120492130Y-93257898D01*
X120421511Y-93025099D01*
X120306833Y-92810551D01*
X120152502Y-92622498D01*
X120113889Y-92590809D01*
X120118387Y-92588405D01*
X120252962Y-92477962D01*
X120363405Y-92343387D01*
X120445472Y-92189851D01*
X120496008Y-92023255D01*
X120513072Y-91850001D01*
X120513072Y-91149999D01*
X120496008Y-90976745D01*
X120445472Y-90810149D01*
X120363405Y-90656613D01*
X120252962Y-90522038D01*
X120118387Y-90411595D01*
X119964851Y-90329528D01*
X119798255Y-90278992D01*
X119625001Y-90261928D01*
X118374999Y-90261928D01*
X118201745Y-90278992D01*
X118035149Y-90329528D01*
X117881613Y-90411595D01*
X117747038Y-90522038D01*
X117636595Y-90656613D01*
X117554528Y-90810149D01*
X117503992Y-90976745D01*
X117486928Y-91149999D01*
X117486928Y-91850001D01*
X117503992Y-92023255D01*
X117554528Y-92189851D01*
X117636595Y-92343387D01*
X117747038Y-92477962D01*
X117881613Y-92588405D01*
X117886111Y-92590809D01*
X117847498Y-92622498D01*
X117693167Y-92810551D01*
X117578489Y-93025099D01*
X117507870Y-93257898D01*
X117484025Y-93500000D01*
X115660000Y-93500000D01*
X115660000Y-80660000D01*
X125390198Y-80660000D01*
X123989003Y-82061196D01*
M02*
