G04 #@! TF.GenerationSoftware,KiCad,Pcbnew,(5.1.5-0)*
G04 #@! TF.CreationDate,2021-02-11T14:19:56-07:00*
G04 #@! TF.ProjectId,ideal-diode,69646561-6c2d-4646-996f-64652e6b6963,rev?*
G04 #@! TF.SameCoordinates,Original*
G04 #@! TF.FileFunction,Soldermask,Top*
G04 #@! TF.FilePolarity,Negative*
%FSLAX46Y46*%
G04 Gerber Fmt 4.6, Leading zero omitted, Abs format (unit mm)*
G04 Created by KiCad (PCBNEW (5.1.5-0)) date 2021-02-11 14:19:56*
%MOMM*%
%LPD*%
G04 APERTURE LIST*
%ADD10C,0.100000*%
G04 APERTURE END LIST*
D10*
G36*
X141951000Y-99451000D02*
G01*
X141049000Y-99451000D01*
X141049000Y-98449000D01*
X141951000Y-98449000D01*
X141951000Y-99451000D01*
G37*
G36*
X140051000Y-99451000D02*
G01*
X139149000Y-99451000D01*
X139149000Y-98449000D01*
X140051000Y-98449000D01*
X140051000Y-99451000D01*
G37*
G36*
X130464499Y-98203445D02*
G01*
X130501995Y-98214820D01*
X130536554Y-98233292D01*
X130566847Y-98258153D01*
X130591708Y-98288446D01*
X130610180Y-98323005D01*
X130621555Y-98360501D01*
X130626000Y-98405638D01*
X130626000Y-99144362D01*
X130621555Y-99189499D01*
X130610180Y-99226995D01*
X130591708Y-99261554D01*
X130566847Y-99291847D01*
X130536554Y-99316708D01*
X130501995Y-99335180D01*
X130464499Y-99346555D01*
X130419362Y-99351000D01*
X129780638Y-99351000D01*
X129735501Y-99346555D01*
X129698005Y-99335180D01*
X129663446Y-99316708D01*
X129633153Y-99291847D01*
X129608292Y-99261554D01*
X129589820Y-99226995D01*
X129578445Y-99189499D01*
X129574000Y-99144362D01*
X129574000Y-98405638D01*
X129578445Y-98360501D01*
X129589820Y-98323005D01*
X129608292Y-98288446D01*
X129633153Y-98258153D01*
X129663446Y-98233292D01*
X129698005Y-98214820D01*
X129735501Y-98203445D01*
X129780638Y-98199000D01*
X130419362Y-98199000D01*
X130464499Y-98203445D01*
G37*
G36*
X135676000Y-99131000D02*
G01*
X133024000Y-99131000D01*
X133024000Y-97969000D01*
X135676000Y-97969000D01*
X135676000Y-99131000D01*
G37*
G36*
X124627618Y-96583420D02*
G01*
X124708400Y-96607925D01*
X124750336Y-96620646D01*
X124863425Y-96681094D01*
X124962554Y-96762446D01*
X125043906Y-96861575D01*
X125104354Y-96974664D01*
X125104355Y-96974668D01*
X125141580Y-97097382D01*
X125151000Y-97193027D01*
X125151000Y-97806973D01*
X125141580Y-97902618D01*
X125121443Y-97969000D01*
X125104354Y-98025336D01*
X125043906Y-98138425D01*
X124962554Y-98237553D01*
X124863424Y-98318906D01*
X124750335Y-98379354D01*
X124718403Y-98389040D01*
X124627617Y-98416580D01*
X124500000Y-98429149D01*
X124372382Y-98416580D01*
X124281596Y-98389040D01*
X124249664Y-98379354D01*
X124136575Y-98318906D01*
X124037447Y-98237554D01*
X123956094Y-98138424D01*
X123895646Y-98025335D01*
X123878557Y-97969000D01*
X123858420Y-97902617D01*
X123849000Y-97806972D01*
X123849000Y-97193027D01*
X123858420Y-97097382D01*
X123895645Y-96974668D01*
X123895645Y-96974667D01*
X123927957Y-96914217D01*
X123956095Y-96861574D01*
X123969493Y-96845249D01*
X124037447Y-96762446D01*
X124136576Y-96681094D01*
X124249665Y-96620646D01*
X124291601Y-96607925D01*
X124372383Y-96583420D01*
X124500000Y-96570851D01*
X124627618Y-96583420D01*
G37*
G36*
X126991242Y-96578404D02*
G01*
X127028337Y-96589657D01*
X127062515Y-96607925D01*
X127092481Y-96632519D01*
X127117075Y-96662485D01*
X127135343Y-96696663D01*
X127146596Y-96733758D01*
X127151000Y-96778474D01*
X127151000Y-98221526D01*
X127146596Y-98266242D01*
X127135343Y-98303337D01*
X127117075Y-98337515D01*
X127092481Y-98367481D01*
X127062515Y-98392075D01*
X127028337Y-98410343D01*
X126991242Y-98421596D01*
X126946526Y-98426000D01*
X126053474Y-98426000D01*
X126008758Y-98421596D01*
X125971663Y-98410343D01*
X125937485Y-98392075D01*
X125907519Y-98367481D01*
X125882925Y-98337515D01*
X125864657Y-98303337D01*
X125853404Y-98266242D01*
X125849000Y-98221526D01*
X125849000Y-96778474D01*
X125853404Y-96733758D01*
X125864657Y-96696663D01*
X125882925Y-96662485D01*
X125907519Y-96632519D01*
X125937485Y-96607925D01*
X125971663Y-96589657D01*
X126008758Y-96578404D01*
X126053474Y-96574000D01*
X126946526Y-96574000D01*
X126991242Y-96578404D01*
G37*
G36*
X130464499Y-96453445D02*
G01*
X130501995Y-96464820D01*
X130536554Y-96483292D01*
X130566847Y-96508153D01*
X130591708Y-96538446D01*
X130610180Y-96573005D01*
X130621555Y-96610501D01*
X130626000Y-96655638D01*
X130626000Y-97394362D01*
X130621555Y-97439499D01*
X130610180Y-97476995D01*
X130591708Y-97511554D01*
X130566847Y-97541847D01*
X130536554Y-97566708D01*
X130501995Y-97585180D01*
X130464499Y-97596555D01*
X130419362Y-97601000D01*
X129780638Y-97601000D01*
X129735501Y-97596555D01*
X129698005Y-97585180D01*
X129663446Y-97566708D01*
X129633153Y-97541847D01*
X129608292Y-97511554D01*
X129589820Y-97476995D01*
X129578445Y-97439499D01*
X129574000Y-97394362D01*
X129574000Y-96655638D01*
X129578445Y-96610501D01*
X129589820Y-96573005D01*
X129608292Y-96538446D01*
X129633153Y-96508153D01*
X129663446Y-96483292D01*
X129698005Y-96464820D01*
X129735501Y-96453445D01*
X129780638Y-96449000D01*
X130419362Y-96449000D01*
X130464499Y-96453445D01*
G37*
G36*
X141001000Y-97451000D02*
G01*
X140099000Y-97451000D01*
X140099000Y-96449000D01*
X141001000Y-96449000D01*
X141001000Y-97451000D01*
G37*
G36*
X135676000Y-96931000D02*
G01*
X134924000Y-96931000D01*
X134924000Y-95769000D01*
X135676000Y-95769000D01*
X135676000Y-96931000D01*
G37*
G36*
X133776000Y-96931000D02*
G01*
X133024000Y-96931000D01*
X133024000Y-95769000D01*
X133776000Y-95769000D01*
X133776000Y-96931000D01*
G37*
G36*
X138819059Y-93617860D02*
G01*
X138955732Y-93674472D01*
X139078735Y-93756660D01*
X139183340Y-93861265D01*
X139265528Y-93984268D01*
X139322140Y-94120941D01*
X139351000Y-94266033D01*
X139351000Y-94413967D01*
X139322140Y-94559059D01*
X139265528Y-94695732D01*
X139183340Y-94818735D01*
X139078735Y-94923340D01*
X138955732Y-95005528D01*
X138955731Y-95005529D01*
X138955730Y-95005529D01*
X138819059Y-95062140D01*
X138673968Y-95091000D01*
X138526032Y-95091000D01*
X138380941Y-95062140D01*
X138244270Y-95005529D01*
X138244269Y-95005529D01*
X138244268Y-95005528D01*
X138121265Y-94923340D01*
X138016660Y-94818735D01*
X137934472Y-94695732D01*
X137877860Y-94559059D01*
X137849000Y-94413967D01*
X137849000Y-94266033D01*
X137877860Y-94120941D01*
X137934472Y-93984268D01*
X138016660Y-93861265D01*
X138121265Y-93756660D01*
X138244268Y-93674472D01*
X138380941Y-93617860D01*
X138526032Y-93589000D01*
X138673968Y-93589000D01*
X138819059Y-93617860D01*
G37*
G36*
X135764499Y-93103445D02*
G01*
X135801995Y-93114820D01*
X135836554Y-93133292D01*
X135866847Y-93158153D01*
X135891708Y-93188446D01*
X135910180Y-93223005D01*
X135921555Y-93260501D01*
X135926000Y-93305638D01*
X135926000Y-94044362D01*
X135921555Y-94089499D01*
X135910180Y-94126995D01*
X135891708Y-94161554D01*
X135866847Y-94191847D01*
X135836554Y-94216708D01*
X135801995Y-94235180D01*
X135764499Y-94246555D01*
X135719362Y-94251000D01*
X135080638Y-94251000D01*
X135035501Y-94246555D01*
X134998005Y-94235180D01*
X134963446Y-94216708D01*
X134933153Y-94191847D01*
X134908292Y-94161554D01*
X134889820Y-94126995D01*
X134878445Y-94089499D01*
X134874000Y-94044362D01*
X134874000Y-93305638D01*
X134878445Y-93260501D01*
X134889820Y-93223005D01*
X134908292Y-93188446D01*
X134933153Y-93158153D01*
X134963446Y-93133292D01*
X134998005Y-93114820D01*
X135035501Y-93103445D01*
X135080638Y-93099000D01*
X135719362Y-93099000D01*
X135764499Y-93103445D01*
G37*
G36*
X133781000Y-94226000D02*
G01*
X132619000Y-94226000D01*
X132619000Y-91574000D01*
X133781000Y-91574000D01*
X133781000Y-94226000D01*
G37*
G36*
X131581000Y-94226000D02*
G01*
X130419000Y-94226000D01*
X130419000Y-93474000D01*
X131581000Y-93474000D01*
X131581000Y-94226000D01*
G37*
G36*
X119338855Y-92852140D02*
G01*
X119402618Y-92858420D01*
X119493404Y-92885960D01*
X119525336Y-92895646D01*
X119638425Y-92956094D01*
X119737554Y-93037446D01*
X119818906Y-93136575D01*
X119879354Y-93249664D01*
X119879355Y-93249668D01*
X119916580Y-93372382D01*
X119929149Y-93500000D01*
X119916580Y-93627618D01*
X119902367Y-93674471D01*
X119879354Y-93750336D01*
X119818906Y-93863425D01*
X119737554Y-93962554D01*
X119638425Y-94043906D01*
X119525336Y-94104354D01*
X119493404Y-94114040D01*
X119402618Y-94141580D01*
X119338855Y-94147860D01*
X119306974Y-94151000D01*
X118693026Y-94151000D01*
X118661145Y-94147860D01*
X118597382Y-94141580D01*
X118506596Y-94114040D01*
X118474664Y-94104354D01*
X118361575Y-94043906D01*
X118262446Y-93962554D01*
X118181094Y-93863425D01*
X118120646Y-93750336D01*
X118097633Y-93674471D01*
X118083420Y-93627618D01*
X118070851Y-93500000D01*
X118083420Y-93372382D01*
X118120645Y-93249668D01*
X118120646Y-93249664D01*
X118181094Y-93136575D01*
X118262446Y-93037446D01*
X118361575Y-92956094D01*
X118474664Y-92895646D01*
X118506596Y-92885960D01*
X118597382Y-92858420D01*
X118661145Y-92852140D01*
X118693026Y-92849000D01*
X119306974Y-92849000D01*
X119338855Y-92852140D01*
G37*
G36*
X138766125Y-91067331D02*
G01*
X138819059Y-91077860D01*
X138955732Y-91134472D01*
X139078735Y-91216660D01*
X139183340Y-91321265D01*
X139253342Y-91426031D01*
X139265529Y-91444270D01*
X139322140Y-91580941D01*
X139351000Y-91726032D01*
X139351000Y-91873968D01*
X139322140Y-92019059D01*
X139273974Y-92135343D01*
X139265528Y-92155732D01*
X139183340Y-92278735D01*
X139078735Y-92383340D01*
X138955732Y-92465528D01*
X138955731Y-92465529D01*
X138955730Y-92465529D01*
X138819059Y-92522140D01*
X138673968Y-92551000D01*
X138526032Y-92551000D01*
X138380941Y-92522140D01*
X138244270Y-92465529D01*
X138244269Y-92465529D01*
X138244268Y-92465528D01*
X138121265Y-92383340D01*
X138016660Y-92278735D01*
X137934472Y-92155732D01*
X137926027Y-92135343D01*
X137877860Y-92019059D01*
X137849000Y-91873968D01*
X137849000Y-91726032D01*
X137877860Y-91580941D01*
X137934471Y-91444270D01*
X137946658Y-91426031D01*
X138016660Y-91321265D01*
X138121265Y-91216660D01*
X138244268Y-91134472D01*
X138380941Y-91077860D01*
X138433875Y-91067331D01*
X138526032Y-91049000D01*
X138673968Y-91049000D01*
X138766125Y-91067331D01*
G37*
G36*
X135764499Y-91353445D02*
G01*
X135801995Y-91364820D01*
X135836554Y-91383292D01*
X135866847Y-91408153D01*
X135891708Y-91438446D01*
X135910180Y-91473005D01*
X135921555Y-91510501D01*
X135926000Y-91555638D01*
X135926000Y-92294362D01*
X135921555Y-92339499D01*
X135910180Y-92376995D01*
X135891708Y-92411554D01*
X135866847Y-92441847D01*
X135836554Y-92466708D01*
X135801995Y-92485180D01*
X135764499Y-92496555D01*
X135719362Y-92501000D01*
X135080638Y-92501000D01*
X135035501Y-92496555D01*
X134998005Y-92485180D01*
X134963446Y-92466708D01*
X134933153Y-92441847D01*
X134908292Y-92411554D01*
X134889820Y-92376995D01*
X134878445Y-92339499D01*
X134874000Y-92294362D01*
X134874000Y-91555638D01*
X134878445Y-91510501D01*
X134889820Y-91473005D01*
X134908292Y-91438446D01*
X134933153Y-91408153D01*
X134963446Y-91383292D01*
X134998005Y-91364820D01*
X135035501Y-91353445D01*
X135080638Y-91349000D01*
X135719362Y-91349000D01*
X135764499Y-91353445D01*
G37*
G36*
X131581000Y-92326000D02*
G01*
X130419000Y-92326000D01*
X130419000Y-91574000D01*
X131581000Y-91574000D01*
X131581000Y-92326000D01*
G37*
G36*
X119766242Y-90853404D02*
G01*
X119803337Y-90864657D01*
X119837515Y-90882925D01*
X119867481Y-90907519D01*
X119892075Y-90937485D01*
X119910343Y-90971663D01*
X119921596Y-91008758D01*
X119926000Y-91053474D01*
X119926000Y-91946526D01*
X119921596Y-91991242D01*
X119910343Y-92028337D01*
X119892075Y-92062515D01*
X119867481Y-92092481D01*
X119837515Y-92117075D01*
X119803337Y-92135343D01*
X119766242Y-92146596D01*
X119721526Y-92151000D01*
X118278474Y-92151000D01*
X118233758Y-92146596D01*
X118196663Y-92135343D01*
X118162485Y-92117075D01*
X118132519Y-92092481D01*
X118107925Y-92062515D01*
X118089657Y-92028337D01*
X118078404Y-91991242D01*
X118074000Y-91946526D01*
X118074000Y-91053474D01*
X118078404Y-91008758D01*
X118089657Y-90971663D01*
X118107925Y-90937485D01*
X118132519Y-90907519D01*
X118162485Y-90882925D01*
X118196663Y-90864657D01*
X118233758Y-90853404D01*
X118278474Y-90849000D01*
X119721526Y-90849000D01*
X119766242Y-90853404D01*
G37*
G36*
X127789499Y-90978445D02*
G01*
X127826995Y-90989820D01*
X127861554Y-91008292D01*
X127891847Y-91033153D01*
X127916708Y-91063446D01*
X127935180Y-91098005D01*
X127946555Y-91135501D01*
X127951000Y-91180638D01*
X127951000Y-91819362D01*
X127946555Y-91864499D01*
X127935180Y-91901995D01*
X127916708Y-91936554D01*
X127891847Y-91966847D01*
X127861554Y-91991708D01*
X127826995Y-92010180D01*
X127789499Y-92021555D01*
X127744362Y-92026000D01*
X127005638Y-92026000D01*
X126960501Y-92021555D01*
X126923005Y-92010180D01*
X126888446Y-91991708D01*
X126858153Y-91966847D01*
X126833292Y-91936554D01*
X126814820Y-91901995D01*
X126803445Y-91864499D01*
X126799000Y-91819362D01*
X126799000Y-91180638D01*
X126803445Y-91135501D01*
X126814820Y-91098005D01*
X126833292Y-91063446D01*
X126858153Y-91033153D01*
X126888446Y-91008292D01*
X126923005Y-90989820D01*
X126960501Y-90978445D01*
X127005638Y-90974000D01*
X127744362Y-90974000D01*
X127789499Y-90978445D01*
G37*
G36*
X126039499Y-90978445D02*
G01*
X126076995Y-90989820D01*
X126111554Y-91008292D01*
X126141847Y-91033153D01*
X126166708Y-91063446D01*
X126185180Y-91098005D01*
X126196555Y-91135501D01*
X126201000Y-91180638D01*
X126201000Y-91819362D01*
X126196555Y-91864499D01*
X126185180Y-91901995D01*
X126166708Y-91936554D01*
X126141847Y-91966847D01*
X126111554Y-91991708D01*
X126076995Y-92010180D01*
X126039499Y-92021555D01*
X125994362Y-92026000D01*
X125255638Y-92026000D01*
X125210501Y-92021555D01*
X125173005Y-92010180D01*
X125138446Y-91991708D01*
X125108153Y-91966847D01*
X125083292Y-91936554D01*
X125064820Y-91901995D01*
X125053445Y-91864499D01*
X125049000Y-91819362D01*
X125049000Y-91180638D01*
X125053445Y-91135501D01*
X125064820Y-91098005D01*
X125083292Y-91063446D01*
X125108153Y-91033153D01*
X125138446Y-91008292D01*
X125173005Y-90989820D01*
X125210501Y-90978445D01*
X125255638Y-90974000D01*
X125994362Y-90974000D01*
X126039499Y-90978445D01*
G37*
G36*
X130354928Y-88051764D02*
G01*
X130376009Y-88058160D01*
X130395445Y-88068548D01*
X130412476Y-88082524D01*
X130426452Y-88099555D01*
X130436840Y-88118991D01*
X130443236Y-88140072D01*
X130446000Y-88168140D01*
X130446000Y-89781860D01*
X130443236Y-89809928D01*
X130436840Y-89831009D01*
X130426452Y-89850445D01*
X130412476Y-89867476D01*
X130395445Y-89881452D01*
X130376009Y-89891840D01*
X130354928Y-89898236D01*
X130326860Y-89901000D01*
X129863140Y-89901000D01*
X129835072Y-89898236D01*
X129813991Y-89891840D01*
X129794555Y-89881452D01*
X129777524Y-89867476D01*
X129763548Y-89850445D01*
X129753160Y-89831009D01*
X129746764Y-89809928D01*
X129744000Y-89781860D01*
X129744000Y-88168140D01*
X129746764Y-88140072D01*
X129753160Y-88118991D01*
X129763548Y-88099555D01*
X129777524Y-88082524D01*
X129794555Y-88068548D01*
X129813991Y-88058160D01*
X129835072Y-88051764D01*
X129863140Y-88049000D01*
X130326860Y-88049000D01*
X130354928Y-88051764D01*
G37*
G36*
X131624928Y-88051764D02*
G01*
X131646009Y-88058160D01*
X131665445Y-88068548D01*
X131682476Y-88082524D01*
X131696452Y-88099555D01*
X131706840Y-88118991D01*
X131713236Y-88140072D01*
X131716000Y-88168140D01*
X131716000Y-89781860D01*
X131713236Y-89809928D01*
X131706840Y-89831009D01*
X131696452Y-89850445D01*
X131682476Y-89867476D01*
X131665445Y-89881452D01*
X131646009Y-89891840D01*
X131624928Y-89898236D01*
X131596860Y-89901000D01*
X131133140Y-89901000D01*
X131105072Y-89898236D01*
X131083991Y-89891840D01*
X131064555Y-89881452D01*
X131047524Y-89867476D01*
X131033548Y-89850445D01*
X131023160Y-89831009D01*
X131016764Y-89809928D01*
X131014000Y-89781860D01*
X131014000Y-88168140D01*
X131016764Y-88140072D01*
X131023160Y-88118991D01*
X131033548Y-88099555D01*
X131047524Y-88082524D01*
X131064555Y-88068548D01*
X131083991Y-88058160D01*
X131105072Y-88051764D01*
X131133140Y-88049000D01*
X131596860Y-88049000D01*
X131624928Y-88051764D01*
G37*
G36*
X132894928Y-88051764D02*
G01*
X132916009Y-88058160D01*
X132935445Y-88068548D01*
X132952476Y-88082524D01*
X132966452Y-88099555D01*
X132976840Y-88118991D01*
X132983236Y-88140072D01*
X132986000Y-88168140D01*
X132986000Y-89781860D01*
X132983236Y-89809928D01*
X132976840Y-89831009D01*
X132966452Y-89850445D01*
X132952476Y-89867476D01*
X132935445Y-89881452D01*
X132916009Y-89891840D01*
X132894928Y-89898236D01*
X132866860Y-89901000D01*
X132403140Y-89901000D01*
X132375072Y-89898236D01*
X132353991Y-89891840D01*
X132334555Y-89881452D01*
X132317524Y-89867476D01*
X132303548Y-89850445D01*
X132293160Y-89831009D01*
X132286764Y-89809928D01*
X132284000Y-89781860D01*
X132284000Y-88168140D01*
X132286764Y-88140072D01*
X132293160Y-88118991D01*
X132303548Y-88099555D01*
X132317524Y-88082524D01*
X132334555Y-88068548D01*
X132353991Y-88058160D01*
X132375072Y-88051764D01*
X132403140Y-88049000D01*
X132866860Y-88049000D01*
X132894928Y-88051764D01*
G37*
G36*
X134164928Y-88051764D02*
G01*
X134186009Y-88058160D01*
X134205445Y-88068548D01*
X134222476Y-88082524D01*
X134236452Y-88099555D01*
X134246840Y-88118991D01*
X134253236Y-88140072D01*
X134256000Y-88168140D01*
X134256000Y-89781860D01*
X134253236Y-89809928D01*
X134246840Y-89831009D01*
X134236452Y-89850445D01*
X134222476Y-89867476D01*
X134205445Y-89881452D01*
X134186009Y-89891840D01*
X134164928Y-89898236D01*
X134136860Y-89901000D01*
X133673140Y-89901000D01*
X133645072Y-89898236D01*
X133623991Y-89891840D01*
X133604555Y-89881452D01*
X133587524Y-89867476D01*
X133573548Y-89850445D01*
X133563160Y-89831009D01*
X133556764Y-89809928D01*
X133554000Y-89781860D01*
X133554000Y-88168140D01*
X133556764Y-88140072D01*
X133563160Y-88118991D01*
X133573548Y-88099555D01*
X133587524Y-88082524D01*
X133604555Y-88068548D01*
X133623991Y-88058160D01*
X133645072Y-88051764D01*
X133673140Y-88049000D01*
X134136860Y-88049000D01*
X134164928Y-88051764D01*
G37*
G36*
X120474987Y-86476524D02*
G01*
X120493730Y-86482210D01*
X120510997Y-86491439D01*
X120526136Y-86503864D01*
X120538561Y-86519003D01*
X120547790Y-86536270D01*
X120553476Y-86555013D01*
X120556000Y-86580640D01*
X120556000Y-87919360D01*
X120553476Y-87944987D01*
X120547790Y-87963730D01*
X120538561Y-87980997D01*
X120526136Y-87996136D01*
X120510997Y-88008561D01*
X120493730Y-88017790D01*
X120474987Y-88023476D01*
X120449360Y-88026000D01*
X120010640Y-88026000D01*
X119985013Y-88023476D01*
X119966270Y-88017790D01*
X119949003Y-88008561D01*
X119933864Y-87996136D01*
X119921439Y-87980997D01*
X119912210Y-87963730D01*
X119906524Y-87944987D01*
X119904000Y-87919360D01*
X119904000Y-86580640D01*
X119906524Y-86555013D01*
X119912210Y-86536270D01*
X119921439Y-86519003D01*
X119933864Y-86503864D01*
X119949003Y-86491439D01*
X119966270Y-86482210D01*
X119985013Y-86476524D01*
X120010640Y-86474000D01*
X120449360Y-86474000D01*
X120474987Y-86476524D01*
G37*
G36*
X123014987Y-86476524D02*
G01*
X123033730Y-86482210D01*
X123050997Y-86491439D01*
X123066136Y-86503864D01*
X123078561Y-86519003D01*
X123087790Y-86536270D01*
X123093476Y-86555013D01*
X123096000Y-86580640D01*
X123096000Y-87919360D01*
X123093476Y-87944987D01*
X123087790Y-87963730D01*
X123078561Y-87980997D01*
X123066136Y-87996136D01*
X123050997Y-88008561D01*
X123033730Y-88017790D01*
X123014987Y-88023476D01*
X122989360Y-88026000D01*
X122550640Y-88026000D01*
X122525013Y-88023476D01*
X122506270Y-88017790D01*
X122489003Y-88008561D01*
X122473864Y-87996136D01*
X122461439Y-87980997D01*
X122452210Y-87963730D01*
X122446524Y-87944987D01*
X122444000Y-87919360D01*
X122444000Y-86580640D01*
X122446524Y-86555013D01*
X122452210Y-86536270D01*
X122461439Y-86519003D01*
X122473864Y-86503864D01*
X122489003Y-86491439D01*
X122506270Y-86482210D01*
X122525013Y-86476524D01*
X122550640Y-86474000D01*
X122989360Y-86474000D01*
X123014987Y-86476524D01*
G37*
G36*
X125474987Y-86476524D02*
G01*
X125493730Y-86482210D01*
X125510997Y-86491439D01*
X125526136Y-86503864D01*
X125538561Y-86519003D01*
X125547790Y-86536270D01*
X125553476Y-86555013D01*
X125556000Y-86580640D01*
X125556000Y-87919360D01*
X125553476Y-87944987D01*
X125547790Y-87963730D01*
X125538561Y-87980997D01*
X125526136Y-87996136D01*
X125510997Y-88008561D01*
X125493730Y-88017790D01*
X125474987Y-88023476D01*
X125449360Y-88026000D01*
X125010640Y-88026000D01*
X124985013Y-88023476D01*
X124966270Y-88017790D01*
X124949003Y-88008561D01*
X124933864Y-87996136D01*
X124921439Y-87980997D01*
X124912210Y-87963730D01*
X124906524Y-87944987D01*
X124904000Y-87919360D01*
X124904000Y-86580640D01*
X124906524Y-86555013D01*
X124912210Y-86536270D01*
X124921439Y-86519003D01*
X124933864Y-86503864D01*
X124949003Y-86491439D01*
X124966270Y-86482210D01*
X124985013Y-86476524D01*
X125010640Y-86474000D01*
X125449360Y-86474000D01*
X125474987Y-86476524D01*
G37*
G36*
X128014987Y-86476524D02*
G01*
X128033730Y-86482210D01*
X128050997Y-86491439D01*
X128066136Y-86503864D01*
X128078561Y-86519003D01*
X128087790Y-86536270D01*
X128093476Y-86555013D01*
X128096000Y-86580640D01*
X128096000Y-87919360D01*
X128093476Y-87944987D01*
X128087790Y-87963730D01*
X128078561Y-87980997D01*
X128066136Y-87996136D01*
X128050997Y-88008561D01*
X128033730Y-88017790D01*
X128014987Y-88023476D01*
X127989360Y-88026000D01*
X127550640Y-88026000D01*
X127525013Y-88023476D01*
X127506270Y-88017790D01*
X127489003Y-88008561D01*
X127473864Y-87996136D01*
X127461439Y-87980997D01*
X127452210Y-87963730D01*
X127446524Y-87944987D01*
X127444000Y-87919360D01*
X127444000Y-86580640D01*
X127446524Y-86555013D01*
X127452210Y-86536270D01*
X127461439Y-86519003D01*
X127473864Y-86503864D01*
X127489003Y-86491439D01*
X127506270Y-86482210D01*
X127525013Y-86476524D01*
X127550640Y-86474000D01*
X127989360Y-86474000D01*
X128014987Y-86476524D01*
G37*
G36*
X141938855Y-86652140D02*
G01*
X142002618Y-86658420D01*
X142093404Y-86685960D01*
X142125336Y-86695646D01*
X142238425Y-86756094D01*
X142337554Y-86837446D01*
X142418906Y-86936575D01*
X142479354Y-87049664D01*
X142479355Y-87049668D01*
X142516580Y-87172382D01*
X142529149Y-87300000D01*
X142516580Y-87427618D01*
X142489040Y-87518404D01*
X142479354Y-87550336D01*
X142418906Y-87663425D01*
X142337554Y-87762554D01*
X142238425Y-87843906D01*
X142125336Y-87904354D01*
X142093404Y-87914040D01*
X142002618Y-87941580D01*
X141938855Y-87947860D01*
X141906974Y-87951000D01*
X141293026Y-87951000D01*
X141261145Y-87947860D01*
X141197382Y-87941580D01*
X141106596Y-87914040D01*
X141074664Y-87904354D01*
X140961575Y-87843906D01*
X140862446Y-87762554D01*
X140781094Y-87663425D01*
X140720646Y-87550336D01*
X140710960Y-87518404D01*
X140683420Y-87427618D01*
X140670851Y-87300000D01*
X140683420Y-87172382D01*
X140720645Y-87049668D01*
X140720646Y-87049664D01*
X140781094Y-86936575D01*
X140862446Y-86837446D01*
X140961575Y-86756094D01*
X141074664Y-86695646D01*
X141106596Y-86685960D01*
X141197382Y-86658420D01*
X141261145Y-86652140D01*
X141293026Y-86649000D01*
X141906974Y-86649000D01*
X141938855Y-86652140D01*
G37*
G36*
X142366242Y-84653404D02*
G01*
X142403337Y-84664657D01*
X142437515Y-84682925D01*
X142467481Y-84707519D01*
X142492075Y-84737485D01*
X142510343Y-84771663D01*
X142521596Y-84808758D01*
X142526000Y-84853474D01*
X142526000Y-85746526D01*
X142521596Y-85791242D01*
X142510343Y-85828337D01*
X142492075Y-85862515D01*
X142467481Y-85892481D01*
X142437515Y-85917075D01*
X142403337Y-85935343D01*
X142366242Y-85946596D01*
X142321526Y-85951000D01*
X140878474Y-85951000D01*
X140833758Y-85946596D01*
X140796663Y-85935343D01*
X140762485Y-85917075D01*
X140732519Y-85892481D01*
X140707925Y-85862515D01*
X140689657Y-85828337D01*
X140678404Y-85791242D01*
X140674000Y-85746526D01*
X140674000Y-84853474D01*
X140678404Y-84808758D01*
X140689657Y-84771663D01*
X140707925Y-84737485D01*
X140732519Y-84707519D01*
X140762485Y-84682925D01*
X140796663Y-84664657D01*
X140833758Y-84653404D01*
X140878474Y-84649000D01*
X142321526Y-84649000D01*
X142366242Y-84653404D01*
G37*
G36*
X134164928Y-82901764D02*
G01*
X134186009Y-82908160D01*
X134205445Y-82918548D01*
X134222476Y-82932524D01*
X134236452Y-82949555D01*
X134246840Y-82968991D01*
X134253236Y-82990072D01*
X134256000Y-83018140D01*
X134256000Y-84631860D01*
X134253236Y-84659928D01*
X134246840Y-84681009D01*
X134236452Y-84700445D01*
X134222476Y-84717476D01*
X134205445Y-84731452D01*
X134186009Y-84741840D01*
X134164928Y-84748236D01*
X134136860Y-84751000D01*
X133673140Y-84751000D01*
X133645072Y-84748236D01*
X133623991Y-84741840D01*
X133604555Y-84731452D01*
X133587524Y-84717476D01*
X133573548Y-84700445D01*
X133563160Y-84681009D01*
X133556764Y-84659928D01*
X133554000Y-84631860D01*
X133554000Y-83018140D01*
X133556764Y-82990072D01*
X133563160Y-82968991D01*
X133573548Y-82949555D01*
X133587524Y-82932524D01*
X133604555Y-82918548D01*
X133623991Y-82908160D01*
X133645072Y-82901764D01*
X133673140Y-82899000D01*
X134136860Y-82899000D01*
X134164928Y-82901764D01*
G37*
G36*
X132894928Y-82901764D02*
G01*
X132916009Y-82908160D01*
X132935445Y-82918548D01*
X132952476Y-82932524D01*
X132966452Y-82949555D01*
X132976840Y-82968991D01*
X132983236Y-82990072D01*
X132986000Y-83018140D01*
X132986000Y-84631860D01*
X132983236Y-84659928D01*
X132976840Y-84681009D01*
X132966452Y-84700445D01*
X132952476Y-84717476D01*
X132935445Y-84731452D01*
X132916009Y-84741840D01*
X132894928Y-84748236D01*
X132866860Y-84751000D01*
X132403140Y-84751000D01*
X132375072Y-84748236D01*
X132353991Y-84741840D01*
X132334555Y-84731452D01*
X132317524Y-84717476D01*
X132303548Y-84700445D01*
X132293160Y-84681009D01*
X132286764Y-84659928D01*
X132284000Y-84631860D01*
X132284000Y-83018140D01*
X132286764Y-82990072D01*
X132293160Y-82968991D01*
X132303548Y-82949555D01*
X132317524Y-82932524D01*
X132334555Y-82918548D01*
X132353991Y-82908160D01*
X132375072Y-82901764D01*
X132403140Y-82899000D01*
X132866860Y-82899000D01*
X132894928Y-82901764D01*
G37*
G36*
X131624928Y-82901764D02*
G01*
X131646009Y-82908160D01*
X131665445Y-82918548D01*
X131682476Y-82932524D01*
X131696452Y-82949555D01*
X131706840Y-82968991D01*
X131713236Y-82990072D01*
X131716000Y-83018140D01*
X131716000Y-84631860D01*
X131713236Y-84659928D01*
X131706840Y-84681009D01*
X131696452Y-84700445D01*
X131682476Y-84717476D01*
X131665445Y-84731452D01*
X131646009Y-84741840D01*
X131624928Y-84748236D01*
X131596860Y-84751000D01*
X131133140Y-84751000D01*
X131105072Y-84748236D01*
X131083991Y-84741840D01*
X131064555Y-84731452D01*
X131047524Y-84717476D01*
X131033548Y-84700445D01*
X131023160Y-84681009D01*
X131016764Y-84659928D01*
X131014000Y-84631860D01*
X131014000Y-83018140D01*
X131016764Y-82990072D01*
X131023160Y-82968991D01*
X131033548Y-82949555D01*
X131047524Y-82932524D01*
X131064555Y-82918548D01*
X131083991Y-82908160D01*
X131105072Y-82901764D01*
X131133140Y-82899000D01*
X131596860Y-82899000D01*
X131624928Y-82901764D01*
G37*
G36*
X130354928Y-82901764D02*
G01*
X130376009Y-82908160D01*
X130395445Y-82918548D01*
X130412476Y-82932524D01*
X130426452Y-82949555D01*
X130436840Y-82968991D01*
X130443236Y-82990072D01*
X130446000Y-83018140D01*
X130446000Y-84631860D01*
X130443236Y-84659928D01*
X130436840Y-84681009D01*
X130426452Y-84700445D01*
X130412476Y-84717476D01*
X130395445Y-84731452D01*
X130376009Y-84741840D01*
X130354928Y-84748236D01*
X130326860Y-84751000D01*
X129863140Y-84751000D01*
X129835072Y-84748236D01*
X129813991Y-84741840D01*
X129794555Y-84731452D01*
X129777524Y-84717476D01*
X129763548Y-84700445D01*
X129753160Y-84681009D01*
X129746764Y-84659928D01*
X129744000Y-84631860D01*
X129744000Y-83018140D01*
X129746764Y-82990072D01*
X129753160Y-82968991D01*
X129763548Y-82949555D01*
X129777524Y-82932524D01*
X129794555Y-82918548D01*
X129813991Y-82908160D01*
X129835072Y-82901764D01*
X129863140Y-82899000D01*
X130326860Y-82899000D01*
X130354928Y-82901764D01*
G37*
G36*
X123014987Y-80976524D02*
G01*
X123033730Y-80982210D01*
X123050997Y-80991439D01*
X123066136Y-81003864D01*
X123078561Y-81019003D01*
X123087790Y-81036270D01*
X123093476Y-81055013D01*
X123096000Y-81080640D01*
X123096000Y-82419360D01*
X123093476Y-82444987D01*
X123087790Y-82463730D01*
X123078561Y-82480997D01*
X123066136Y-82496136D01*
X123050997Y-82508561D01*
X123033730Y-82517790D01*
X123014987Y-82523476D01*
X122989360Y-82526000D01*
X122550640Y-82526000D01*
X122525013Y-82523476D01*
X122506270Y-82517790D01*
X122489003Y-82508561D01*
X122473864Y-82496136D01*
X122461439Y-82480997D01*
X122452210Y-82463730D01*
X122446524Y-82444987D01*
X122444000Y-82419360D01*
X122444000Y-81080640D01*
X122446524Y-81055013D01*
X122452210Y-81036270D01*
X122461439Y-81019003D01*
X122473864Y-81003864D01*
X122489003Y-80991439D01*
X122506270Y-80982210D01*
X122525013Y-80976524D01*
X122550640Y-80974000D01*
X122989360Y-80974000D01*
X123014987Y-80976524D01*
G37*
G36*
X120474987Y-80976524D02*
G01*
X120493730Y-80982210D01*
X120510997Y-80991439D01*
X120526136Y-81003864D01*
X120538561Y-81019003D01*
X120547790Y-81036270D01*
X120553476Y-81055013D01*
X120556000Y-81080640D01*
X120556000Y-82419360D01*
X120553476Y-82444987D01*
X120547790Y-82463730D01*
X120538561Y-82480997D01*
X120526136Y-82496136D01*
X120510997Y-82508561D01*
X120493730Y-82517790D01*
X120474987Y-82523476D01*
X120449360Y-82526000D01*
X120010640Y-82526000D01*
X119985013Y-82523476D01*
X119966270Y-82517790D01*
X119949003Y-82508561D01*
X119933864Y-82496136D01*
X119921439Y-82480997D01*
X119912210Y-82463730D01*
X119906524Y-82444987D01*
X119904000Y-82419360D01*
X119904000Y-81080640D01*
X119906524Y-81055013D01*
X119912210Y-81036270D01*
X119921439Y-81019003D01*
X119933864Y-81003864D01*
X119949003Y-80991439D01*
X119966270Y-80982210D01*
X119985013Y-80976524D01*
X120010640Y-80974000D01*
X120449360Y-80974000D01*
X120474987Y-80976524D01*
G37*
G36*
X128014987Y-80976524D02*
G01*
X128033730Y-80982210D01*
X128050997Y-80991439D01*
X128066136Y-81003864D01*
X128078561Y-81019003D01*
X128087790Y-81036270D01*
X128093476Y-81055013D01*
X128096000Y-81080640D01*
X128096000Y-82419360D01*
X128093476Y-82444987D01*
X128087790Y-82463730D01*
X128078561Y-82480997D01*
X128066136Y-82496136D01*
X128050997Y-82508561D01*
X128033730Y-82517790D01*
X128014987Y-82523476D01*
X127989360Y-82526000D01*
X127550640Y-82526000D01*
X127525013Y-82523476D01*
X127506270Y-82517790D01*
X127489003Y-82508561D01*
X127473864Y-82496136D01*
X127461439Y-82480997D01*
X127452210Y-82463730D01*
X127446524Y-82444987D01*
X127444000Y-82419360D01*
X127444000Y-81080640D01*
X127446524Y-81055013D01*
X127452210Y-81036270D01*
X127461439Y-81019003D01*
X127473864Y-81003864D01*
X127489003Y-80991439D01*
X127506270Y-80982210D01*
X127525013Y-80976524D01*
X127550640Y-80974000D01*
X127989360Y-80974000D01*
X128014987Y-80976524D01*
G37*
G36*
X125474987Y-80976524D02*
G01*
X125493730Y-80982210D01*
X125510997Y-80991439D01*
X125526136Y-81003864D01*
X125538561Y-81019003D01*
X125547790Y-81036270D01*
X125553476Y-81055013D01*
X125556000Y-81080640D01*
X125556000Y-82419360D01*
X125553476Y-82444987D01*
X125547790Y-82463730D01*
X125538561Y-82480997D01*
X125526136Y-82496136D01*
X125510997Y-82508561D01*
X125493730Y-82517790D01*
X125474987Y-82523476D01*
X125449360Y-82526000D01*
X125010640Y-82526000D01*
X124985013Y-82523476D01*
X124966270Y-82517790D01*
X124949003Y-82508561D01*
X124933864Y-82496136D01*
X124921439Y-82480997D01*
X124912210Y-82463730D01*
X124906524Y-82444987D01*
X124904000Y-82419360D01*
X124904000Y-81080640D01*
X124906524Y-81055013D01*
X124912210Y-81036270D01*
X124921439Y-81019003D01*
X124933864Y-81003864D01*
X124949003Y-80991439D01*
X124966270Y-80982210D01*
X124985013Y-80976524D01*
X125010640Y-80974000D01*
X125449360Y-80974000D01*
X125474987Y-80976524D01*
G37*
M02*
