G04 #@! TF.GenerationSoftware,KiCad,Pcbnew,(5.1.5-0)*
G04 #@! TF.CreationDate,2021-02-11T14:19:56-07:00*
G04 #@! TF.ProjectId,ideal-diode,69646561-6c2d-4646-996f-64652e6b6963,rev?*
G04 #@! TF.SameCoordinates,Original*
G04 #@! TF.FileFunction,Copper,L1,Top*
G04 #@! TF.FilePolarity,Positive*
%FSLAX46Y46*%
G04 Gerber Fmt 4.6, Leading zero omitted, Abs format (unit mm)*
G04 Created by KiCad (PCBNEW (5.1.5-0)) date 2021-02-11 14:19:56*
%MOMM*%
%LPD*%
G04 APERTURE LIST*
%ADD10R,0.650000X1.060000*%
%ADD11R,0.800000X0.900000*%
%ADD12C,0.100000*%
%ADD13C,1.400000*%
%ADD14O,1.200000X1.750000*%
%ADD15O,1.750000X1.200000*%
%ADD16R,1.060000X0.650000*%
%ADD17C,0.800000*%
%ADD18C,0.250000*%
%ADD19C,0.254000*%
G04 APERTURE END LIST*
D10*
X133400000Y-96350000D03*
X135300000Y-96350000D03*
X135300000Y-98550000D03*
X134350000Y-98550000D03*
X133400000Y-98550000D03*
D11*
X140550000Y-96950000D03*
X141500000Y-98950000D03*
X139600000Y-98950000D03*
G04 #@! TA.AperFunction,SMDPad,CuDef*
D12*
G36*
X130360779Y-96501144D02*
G01*
X130383834Y-96504563D01*
X130406443Y-96510227D01*
X130428387Y-96518079D01*
X130449457Y-96528044D01*
X130469448Y-96540026D01*
X130488168Y-96553910D01*
X130505438Y-96569562D01*
X130521090Y-96586832D01*
X130534974Y-96605552D01*
X130546956Y-96625543D01*
X130556921Y-96646613D01*
X130564773Y-96668557D01*
X130570437Y-96691166D01*
X130573856Y-96714221D01*
X130575000Y-96737500D01*
X130575000Y-97312500D01*
X130573856Y-97335779D01*
X130570437Y-97358834D01*
X130564773Y-97381443D01*
X130556921Y-97403387D01*
X130546956Y-97424457D01*
X130534974Y-97444448D01*
X130521090Y-97463168D01*
X130505438Y-97480438D01*
X130488168Y-97496090D01*
X130469448Y-97509974D01*
X130449457Y-97521956D01*
X130428387Y-97531921D01*
X130406443Y-97539773D01*
X130383834Y-97545437D01*
X130360779Y-97548856D01*
X130337500Y-97550000D01*
X129862500Y-97550000D01*
X129839221Y-97548856D01*
X129816166Y-97545437D01*
X129793557Y-97539773D01*
X129771613Y-97531921D01*
X129750543Y-97521956D01*
X129730552Y-97509974D01*
X129711832Y-97496090D01*
X129694562Y-97480438D01*
X129678910Y-97463168D01*
X129665026Y-97444448D01*
X129653044Y-97424457D01*
X129643079Y-97403387D01*
X129635227Y-97381443D01*
X129629563Y-97358834D01*
X129626144Y-97335779D01*
X129625000Y-97312500D01*
X129625000Y-96737500D01*
X129626144Y-96714221D01*
X129629563Y-96691166D01*
X129635227Y-96668557D01*
X129643079Y-96646613D01*
X129653044Y-96625543D01*
X129665026Y-96605552D01*
X129678910Y-96586832D01*
X129694562Y-96569562D01*
X129711832Y-96553910D01*
X129730552Y-96540026D01*
X129750543Y-96528044D01*
X129771613Y-96518079D01*
X129793557Y-96510227D01*
X129816166Y-96504563D01*
X129839221Y-96501144D01*
X129862500Y-96500000D01*
X130337500Y-96500000D01*
X130360779Y-96501144D01*
G37*
G04 #@! TD.AperFunction*
G04 #@! TA.AperFunction,SMDPad,CuDef*
G36*
X130360779Y-98251144D02*
G01*
X130383834Y-98254563D01*
X130406443Y-98260227D01*
X130428387Y-98268079D01*
X130449457Y-98278044D01*
X130469448Y-98290026D01*
X130488168Y-98303910D01*
X130505438Y-98319562D01*
X130521090Y-98336832D01*
X130534974Y-98355552D01*
X130546956Y-98375543D01*
X130556921Y-98396613D01*
X130564773Y-98418557D01*
X130570437Y-98441166D01*
X130573856Y-98464221D01*
X130575000Y-98487500D01*
X130575000Y-99062500D01*
X130573856Y-99085779D01*
X130570437Y-99108834D01*
X130564773Y-99131443D01*
X130556921Y-99153387D01*
X130546956Y-99174457D01*
X130534974Y-99194448D01*
X130521090Y-99213168D01*
X130505438Y-99230438D01*
X130488168Y-99246090D01*
X130469448Y-99259974D01*
X130449457Y-99271956D01*
X130428387Y-99281921D01*
X130406443Y-99289773D01*
X130383834Y-99295437D01*
X130360779Y-99298856D01*
X130337500Y-99300000D01*
X129862500Y-99300000D01*
X129839221Y-99298856D01*
X129816166Y-99295437D01*
X129793557Y-99289773D01*
X129771613Y-99281921D01*
X129750543Y-99271956D01*
X129730552Y-99259974D01*
X129711832Y-99246090D01*
X129694562Y-99230438D01*
X129678910Y-99213168D01*
X129665026Y-99194448D01*
X129653044Y-99174457D01*
X129643079Y-99153387D01*
X129635227Y-99131443D01*
X129629563Y-99108834D01*
X129626144Y-99085779D01*
X129625000Y-99062500D01*
X129625000Y-98487500D01*
X129626144Y-98464221D01*
X129629563Y-98441166D01*
X129635227Y-98418557D01*
X129643079Y-98396613D01*
X129653044Y-98375543D01*
X129665026Y-98355552D01*
X129678910Y-98336832D01*
X129694562Y-98319562D01*
X129711832Y-98303910D01*
X129730552Y-98290026D01*
X129750543Y-98278044D01*
X129771613Y-98268079D01*
X129793557Y-98260227D01*
X129816166Y-98254563D01*
X129839221Y-98251144D01*
X129862500Y-98250000D01*
X130337500Y-98250000D01*
X130360779Y-98251144D01*
G37*
G04 #@! TD.AperFunction*
D13*
X138600000Y-94340000D03*
X138600000Y-91800000D03*
G04 #@! TA.AperFunction,SMDPad,CuDef*
D12*
G36*
X127920977Y-86525662D02*
G01*
X127934325Y-86527642D01*
X127947414Y-86530921D01*
X127960119Y-86535467D01*
X127972317Y-86541236D01*
X127983891Y-86548173D01*
X127994729Y-86556211D01*
X128004727Y-86565273D01*
X128013789Y-86575271D01*
X128021827Y-86586109D01*
X128028764Y-86597683D01*
X128034533Y-86609881D01*
X128039079Y-86622586D01*
X128042358Y-86635675D01*
X128044338Y-86649023D01*
X128045000Y-86662500D01*
X128045000Y-87837500D01*
X128044338Y-87850977D01*
X128042358Y-87864325D01*
X128039079Y-87877414D01*
X128034533Y-87890119D01*
X128028764Y-87902317D01*
X128021827Y-87913891D01*
X128013789Y-87924729D01*
X128004727Y-87934727D01*
X127994729Y-87943789D01*
X127983891Y-87951827D01*
X127972317Y-87958764D01*
X127960119Y-87964533D01*
X127947414Y-87969079D01*
X127934325Y-87972358D01*
X127920977Y-87974338D01*
X127907500Y-87975000D01*
X127632500Y-87975000D01*
X127619023Y-87974338D01*
X127605675Y-87972358D01*
X127592586Y-87969079D01*
X127579881Y-87964533D01*
X127567683Y-87958764D01*
X127556109Y-87951827D01*
X127545271Y-87943789D01*
X127535273Y-87934727D01*
X127526211Y-87924729D01*
X127518173Y-87913891D01*
X127511236Y-87902317D01*
X127505467Y-87890119D01*
X127500921Y-87877414D01*
X127497642Y-87864325D01*
X127495662Y-87850977D01*
X127495000Y-87837500D01*
X127495000Y-86662500D01*
X127495662Y-86649023D01*
X127497642Y-86635675D01*
X127500921Y-86622586D01*
X127505467Y-86609881D01*
X127511236Y-86597683D01*
X127518173Y-86586109D01*
X127526211Y-86575271D01*
X127535273Y-86565273D01*
X127545271Y-86556211D01*
X127556109Y-86548173D01*
X127567683Y-86541236D01*
X127579881Y-86535467D01*
X127592586Y-86530921D01*
X127605675Y-86527642D01*
X127619023Y-86525662D01*
X127632500Y-86525000D01*
X127907500Y-86525000D01*
X127920977Y-86525662D01*
G37*
G04 #@! TD.AperFunction*
G04 #@! TA.AperFunction,SMDPad,CuDef*
G36*
X125380977Y-86525662D02*
G01*
X125394325Y-86527642D01*
X125407414Y-86530921D01*
X125420119Y-86535467D01*
X125432317Y-86541236D01*
X125443891Y-86548173D01*
X125454729Y-86556211D01*
X125464727Y-86565273D01*
X125473789Y-86575271D01*
X125481827Y-86586109D01*
X125488764Y-86597683D01*
X125494533Y-86609881D01*
X125499079Y-86622586D01*
X125502358Y-86635675D01*
X125504338Y-86649023D01*
X125505000Y-86662500D01*
X125505000Y-87837500D01*
X125504338Y-87850977D01*
X125502358Y-87864325D01*
X125499079Y-87877414D01*
X125494533Y-87890119D01*
X125488764Y-87902317D01*
X125481827Y-87913891D01*
X125473789Y-87924729D01*
X125464727Y-87934727D01*
X125454729Y-87943789D01*
X125443891Y-87951827D01*
X125432317Y-87958764D01*
X125420119Y-87964533D01*
X125407414Y-87969079D01*
X125394325Y-87972358D01*
X125380977Y-87974338D01*
X125367500Y-87975000D01*
X125092500Y-87975000D01*
X125079023Y-87974338D01*
X125065675Y-87972358D01*
X125052586Y-87969079D01*
X125039881Y-87964533D01*
X125027683Y-87958764D01*
X125016109Y-87951827D01*
X125005271Y-87943789D01*
X124995273Y-87934727D01*
X124986211Y-87924729D01*
X124978173Y-87913891D01*
X124971236Y-87902317D01*
X124965467Y-87890119D01*
X124960921Y-87877414D01*
X124957642Y-87864325D01*
X124955662Y-87850977D01*
X124955000Y-87837500D01*
X124955000Y-86662500D01*
X124955662Y-86649023D01*
X124957642Y-86635675D01*
X124960921Y-86622586D01*
X124965467Y-86609881D01*
X124971236Y-86597683D01*
X124978173Y-86586109D01*
X124986211Y-86575271D01*
X124995273Y-86565273D01*
X125005271Y-86556211D01*
X125016109Y-86548173D01*
X125027683Y-86541236D01*
X125039881Y-86535467D01*
X125052586Y-86530921D01*
X125065675Y-86527642D01*
X125079023Y-86525662D01*
X125092500Y-86525000D01*
X125367500Y-86525000D01*
X125380977Y-86525662D01*
G37*
G04 #@! TD.AperFunction*
G04 #@! TA.AperFunction,SMDPad,CuDef*
G36*
X125380977Y-81025662D02*
G01*
X125394325Y-81027642D01*
X125407414Y-81030921D01*
X125420119Y-81035467D01*
X125432317Y-81041236D01*
X125443891Y-81048173D01*
X125454729Y-81056211D01*
X125464727Y-81065273D01*
X125473789Y-81075271D01*
X125481827Y-81086109D01*
X125488764Y-81097683D01*
X125494533Y-81109881D01*
X125499079Y-81122586D01*
X125502358Y-81135675D01*
X125504338Y-81149023D01*
X125505000Y-81162500D01*
X125505000Y-82337500D01*
X125504338Y-82350977D01*
X125502358Y-82364325D01*
X125499079Y-82377414D01*
X125494533Y-82390119D01*
X125488764Y-82402317D01*
X125481827Y-82413891D01*
X125473789Y-82424729D01*
X125464727Y-82434727D01*
X125454729Y-82443789D01*
X125443891Y-82451827D01*
X125432317Y-82458764D01*
X125420119Y-82464533D01*
X125407414Y-82469079D01*
X125394325Y-82472358D01*
X125380977Y-82474338D01*
X125367500Y-82475000D01*
X125092500Y-82475000D01*
X125079023Y-82474338D01*
X125065675Y-82472358D01*
X125052586Y-82469079D01*
X125039881Y-82464533D01*
X125027683Y-82458764D01*
X125016109Y-82451827D01*
X125005271Y-82443789D01*
X124995273Y-82434727D01*
X124986211Y-82424729D01*
X124978173Y-82413891D01*
X124971236Y-82402317D01*
X124965467Y-82390119D01*
X124960921Y-82377414D01*
X124957642Y-82364325D01*
X124955662Y-82350977D01*
X124955000Y-82337500D01*
X124955000Y-81162500D01*
X124955662Y-81149023D01*
X124957642Y-81135675D01*
X124960921Y-81122586D01*
X124965467Y-81109881D01*
X124971236Y-81097683D01*
X124978173Y-81086109D01*
X124986211Y-81075271D01*
X124995273Y-81065273D01*
X125005271Y-81056211D01*
X125016109Y-81048173D01*
X125027683Y-81041236D01*
X125039881Y-81035467D01*
X125052586Y-81030921D01*
X125065675Y-81027642D01*
X125079023Y-81025662D01*
X125092500Y-81025000D01*
X125367500Y-81025000D01*
X125380977Y-81025662D01*
G37*
G04 #@! TD.AperFunction*
G04 #@! TA.AperFunction,SMDPad,CuDef*
G36*
X127920977Y-81025662D02*
G01*
X127934325Y-81027642D01*
X127947414Y-81030921D01*
X127960119Y-81035467D01*
X127972317Y-81041236D01*
X127983891Y-81048173D01*
X127994729Y-81056211D01*
X128004727Y-81065273D01*
X128013789Y-81075271D01*
X128021827Y-81086109D01*
X128028764Y-81097683D01*
X128034533Y-81109881D01*
X128039079Y-81122586D01*
X128042358Y-81135675D01*
X128044338Y-81149023D01*
X128045000Y-81162500D01*
X128045000Y-82337500D01*
X128044338Y-82350977D01*
X128042358Y-82364325D01*
X128039079Y-82377414D01*
X128034533Y-82390119D01*
X128028764Y-82402317D01*
X128021827Y-82413891D01*
X128013789Y-82424729D01*
X128004727Y-82434727D01*
X127994729Y-82443789D01*
X127983891Y-82451827D01*
X127972317Y-82458764D01*
X127960119Y-82464533D01*
X127947414Y-82469079D01*
X127934325Y-82472358D01*
X127920977Y-82474338D01*
X127907500Y-82475000D01*
X127632500Y-82475000D01*
X127619023Y-82474338D01*
X127605675Y-82472358D01*
X127592586Y-82469079D01*
X127579881Y-82464533D01*
X127567683Y-82458764D01*
X127556109Y-82451827D01*
X127545271Y-82443789D01*
X127535273Y-82434727D01*
X127526211Y-82424729D01*
X127518173Y-82413891D01*
X127511236Y-82402317D01*
X127505467Y-82390119D01*
X127500921Y-82377414D01*
X127497642Y-82364325D01*
X127495662Y-82350977D01*
X127495000Y-82337500D01*
X127495000Y-81162500D01*
X127495662Y-81149023D01*
X127497642Y-81135675D01*
X127500921Y-81122586D01*
X127505467Y-81109881D01*
X127511236Y-81097683D01*
X127518173Y-81086109D01*
X127526211Y-81075271D01*
X127535273Y-81065273D01*
X127545271Y-81056211D01*
X127556109Y-81048173D01*
X127567683Y-81041236D01*
X127579881Y-81035467D01*
X127592586Y-81030921D01*
X127605675Y-81027642D01*
X127619023Y-81025662D01*
X127632500Y-81025000D01*
X127907500Y-81025000D01*
X127920977Y-81025662D01*
G37*
G04 #@! TD.AperFunction*
G04 #@! TA.AperFunction,SMDPad,CuDef*
G36*
X122920977Y-86525662D02*
G01*
X122934325Y-86527642D01*
X122947414Y-86530921D01*
X122960119Y-86535467D01*
X122972317Y-86541236D01*
X122983891Y-86548173D01*
X122994729Y-86556211D01*
X123004727Y-86565273D01*
X123013789Y-86575271D01*
X123021827Y-86586109D01*
X123028764Y-86597683D01*
X123034533Y-86609881D01*
X123039079Y-86622586D01*
X123042358Y-86635675D01*
X123044338Y-86649023D01*
X123045000Y-86662500D01*
X123045000Y-87837500D01*
X123044338Y-87850977D01*
X123042358Y-87864325D01*
X123039079Y-87877414D01*
X123034533Y-87890119D01*
X123028764Y-87902317D01*
X123021827Y-87913891D01*
X123013789Y-87924729D01*
X123004727Y-87934727D01*
X122994729Y-87943789D01*
X122983891Y-87951827D01*
X122972317Y-87958764D01*
X122960119Y-87964533D01*
X122947414Y-87969079D01*
X122934325Y-87972358D01*
X122920977Y-87974338D01*
X122907500Y-87975000D01*
X122632500Y-87975000D01*
X122619023Y-87974338D01*
X122605675Y-87972358D01*
X122592586Y-87969079D01*
X122579881Y-87964533D01*
X122567683Y-87958764D01*
X122556109Y-87951827D01*
X122545271Y-87943789D01*
X122535273Y-87934727D01*
X122526211Y-87924729D01*
X122518173Y-87913891D01*
X122511236Y-87902317D01*
X122505467Y-87890119D01*
X122500921Y-87877414D01*
X122497642Y-87864325D01*
X122495662Y-87850977D01*
X122495000Y-87837500D01*
X122495000Y-86662500D01*
X122495662Y-86649023D01*
X122497642Y-86635675D01*
X122500921Y-86622586D01*
X122505467Y-86609881D01*
X122511236Y-86597683D01*
X122518173Y-86586109D01*
X122526211Y-86575271D01*
X122535273Y-86565273D01*
X122545271Y-86556211D01*
X122556109Y-86548173D01*
X122567683Y-86541236D01*
X122579881Y-86535467D01*
X122592586Y-86530921D01*
X122605675Y-86527642D01*
X122619023Y-86525662D01*
X122632500Y-86525000D01*
X122907500Y-86525000D01*
X122920977Y-86525662D01*
G37*
G04 #@! TD.AperFunction*
G04 #@! TA.AperFunction,SMDPad,CuDef*
G36*
X120380977Y-86525662D02*
G01*
X120394325Y-86527642D01*
X120407414Y-86530921D01*
X120420119Y-86535467D01*
X120432317Y-86541236D01*
X120443891Y-86548173D01*
X120454729Y-86556211D01*
X120464727Y-86565273D01*
X120473789Y-86575271D01*
X120481827Y-86586109D01*
X120488764Y-86597683D01*
X120494533Y-86609881D01*
X120499079Y-86622586D01*
X120502358Y-86635675D01*
X120504338Y-86649023D01*
X120505000Y-86662500D01*
X120505000Y-87837500D01*
X120504338Y-87850977D01*
X120502358Y-87864325D01*
X120499079Y-87877414D01*
X120494533Y-87890119D01*
X120488764Y-87902317D01*
X120481827Y-87913891D01*
X120473789Y-87924729D01*
X120464727Y-87934727D01*
X120454729Y-87943789D01*
X120443891Y-87951827D01*
X120432317Y-87958764D01*
X120420119Y-87964533D01*
X120407414Y-87969079D01*
X120394325Y-87972358D01*
X120380977Y-87974338D01*
X120367500Y-87975000D01*
X120092500Y-87975000D01*
X120079023Y-87974338D01*
X120065675Y-87972358D01*
X120052586Y-87969079D01*
X120039881Y-87964533D01*
X120027683Y-87958764D01*
X120016109Y-87951827D01*
X120005271Y-87943789D01*
X119995273Y-87934727D01*
X119986211Y-87924729D01*
X119978173Y-87913891D01*
X119971236Y-87902317D01*
X119965467Y-87890119D01*
X119960921Y-87877414D01*
X119957642Y-87864325D01*
X119955662Y-87850977D01*
X119955000Y-87837500D01*
X119955000Y-86662500D01*
X119955662Y-86649023D01*
X119957642Y-86635675D01*
X119960921Y-86622586D01*
X119965467Y-86609881D01*
X119971236Y-86597683D01*
X119978173Y-86586109D01*
X119986211Y-86575271D01*
X119995273Y-86565273D01*
X120005271Y-86556211D01*
X120016109Y-86548173D01*
X120027683Y-86541236D01*
X120039881Y-86535467D01*
X120052586Y-86530921D01*
X120065675Y-86527642D01*
X120079023Y-86525662D01*
X120092500Y-86525000D01*
X120367500Y-86525000D01*
X120380977Y-86525662D01*
G37*
G04 #@! TD.AperFunction*
G04 #@! TA.AperFunction,SMDPad,CuDef*
G36*
X120380977Y-81025662D02*
G01*
X120394325Y-81027642D01*
X120407414Y-81030921D01*
X120420119Y-81035467D01*
X120432317Y-81041236D01*
X120443891Y-81048173D01*
X120454729Y-81056211D01*
X120464727Y-81065273D01*
X120473789Y-81075271D01*
X120481827Y-81086109D01*
X120488764Y-81097683D01*
X120494533Y-81109881D01*
X120499079Y-81122586D01*
X120502358Y-81135675D01*
X120504338Y-81149023D01*
X120505000Y-81162500D01*
X120505000Y-82337500D01*
X120504338Y-82350977D01*
X120502358Y-82364325D01*
X120499079Y-82377414D01*
X120494533Y-82390119D01*
X120488764Y-82402317D01*
X120481827Y-82413891D01*
X120473789Y-82424729D01*
X120464727Y-82434727D01*
X120454729Y-82443789D01*
X120443891Y-82451827D01*
X120432317Y-82458764D01*
X120420119Y-82464533D01*
X120407414Y-82469079D01*
X120394325Y-82472358D01*
X120380977Y-82474338D01*
X120367500Y-82475000D01*
X120092500Y-82475000D01*
X120079023Y-82474338D01*
X120065675Y-82472358D01*
X120052586Y-82469079D01*
X120039881Y-82464533D01*
X120027683Y-82458764D01*
X120016109Y-82451827D01*
X120005271Y-82443789D01*
X119995273Y-82434727D01*
X119986211Y-82424729D01*
X119978173Y-82413891D01*
X119971236Y-82402317D01*
X119965467Y-82390119D01*
X119960921Y-82377414D01*
X119957642Y-82364325D01*
X119955662Y-82350977D01*
X119955000Y-82337500D01*
X119955000Y-81162500D01*
X119955662Y-81149023D01*
X119957642Y-81135675D01*
X119960921Y-81122586D01*
X119965467Y-81109881D01*
X119971236Y-81097683D01*
X119978173Y-81086109D01*
X119986211Y-81075271D01*
X119995273Y-81065273D01*
X120005271Y-81056211D01*
X120016109Y-81048173D01*
X120027683Y-81041236D01*
X120039881Y-81035467D01*
X120052586Y-81030921D01*
X120065675Y-81027642D01*
X120079023Y-81025662D01*
X120092500Y-81025000D01*
X120367500Y-81025000D01*
X120380977Y-81025662D01*
G37*
G04 #@! TD.AperFunction*
G04 #@! TA.AperFunction,SMDPad,CuDef*
G36*
X122920977Y-81025662D02*
G01*
X122934325Y-81027642D01*
X122947414Y-81030921D01*
X122960119Y-81035467D01*
X122972317Y-81041236D01*
X122983891Y-81048173D01*
X122994729Y-81056211D01*
X123004727Y-81065273D01*
X123013789Y-81075271D01*
X123021827Y-81086109D01*
X123028764Y-81097683D01*
X123034533Y-81109881D01*
X123039079Y-81122586D01*
X123042358Y-81135675D01*
X123044338Y-81149023D01*
X123045000Y-81162500D01*
X123045000Y-82337500D01*
X123044338Y-82350977D01*
X123042358Y-82364325D01*
X123039079Y-82377414D01*
X123034533Y-82390119D01*
X123028764Y-82402317D01*
X123021827Y-82413891D01*
X123013789Y-82424729D01*
X123004727Y-82434727D01*
X122994729Y-82443789D01*
X122983891Y-82451827D01*
X122972317Y-82458764D01*
X122960119Y-82464533D01*
X122947414Y-82469079D01*
X122934325Y-82472358D01*
X122920977Y-82474338D01*
X122907500Y-82475000D01*
X122632500Y-82475000D01*
X122619023Y-82474338D01*
X122605675Y-82472358D01*
X122592586Y-82469079D01*
X122579881Y-82464533D01*
X122567683Y-82458764D01*
X122556109Y-82451827D01*
X122545271Y-82443789D01*
X122535273Y-82434727D01*
X122526211Y-82424729D01*
X122518173Y-82413891D01*
X122511236Y-82402317D01*
X122505467Y-82390119D01*
X122500921Y-82377414D01*
X122497642Y-82364325D01*
X122495662Y-82350977D01*
X122495000Y-82337500D01*
X122495000Y-81162500D01*
X122495662Y-81149023D01*
X122497642Y-81135675D01*
X122500921Y-81122586D01*
X122505467Y-81109881D01*
X122511236Y-81097683D01*
X122518173Y-81086109D01*
X122526211Y-81075271D01*
X122535273Y-81065273D01*
X122545271Y-81056211D01*
X122556109Y-81048173D01*
X122567683Y-81041236D01*
X122579881Y-81035467D01*
X122592586Y-81030921D01*
X122605675Y-81027642D01*
X122619023Y-81025662D01*
X122632500Y-81025000D01*
X122907500Y-81025000D01*
X122920977Y-81025662D01*
G37*
G04 #@! TD.AperFunction*
G04 #@! TA.AperFunction,SMDPad,CuDef*
G36*
X125935779Y-91026144D02*
G01*
X125958834Y-91029563D01*
X125981443Y-91035227D01*
X126003387Y-91043079D01*
X126024457Y-91053044D01*
X126044448Y-91065026D01*
X126063168Y-91078910D01*
X126080438Y-91094562D01*
X126096090Y-91111832D01*
X126109974Y-91130552D01*
X126121956Y-91150543D01*
X126131921Y-91171613D01*
X126139773Y-91193557D01*
X126145437Y-91216166D01*
X126148856Y-91239221D01*
X126150000Y-91262500D01*
X126150000Y-91737500D01*
X126148856Y-91760779D01*
X126145437Y-91783834D01*
X126139773Y-91806443D01*
X126131921Y-91828387D01*
X126121956Y-91849457D01*
X126109974Y-91869448D01*
X126096090Y-91888168D01*
X126080438Y-91905438D01*
X126063168Y-91921090D01*
X126044448Y-91934974D01*
X126024457Y-91946956D01*
X126003387Y-91956921D01*
X125981443Y-91964773D01*
X125958834Y-91970437D01*
X125935779Y-91973856D01*
X125912500Y-91975000D01*
X125337500Y-91975000D01*
X125314221Y-91973856D01*
X125291166Y-91970437D01*
X125268557Y-91964773D01*
X125246613Y-91956921D01*
X125225543Y-91946956D01*
X125205552Y-91934974D01*
X125186832Y-91921090D01*
X125169562Y-91905438D01*
X125153910Y-91888168D01*
X125140026Y-91869448D01*
X125128044Y-91849457D01*
X125118079Y-91828387D01*
X125110227Y-91806443D01*
X125104563Y-91783834D01*
X125101144Y-91760779D01*
X125100000Y-91737500D01*
X125100000Y-91262500D01*
X125101144Y-91239221D01*
X125104563Y-91216166D01*
X125110227Y-91193557D01*
X125118079Y-91171613D01*
X125128044Y-91150543D01*
X125140026Y-91130552D01*
X125153910Y-91111832D01*
X125169562Y-91094562D01*
X125186832Y-91078910D01*
X125205552Y-91065026D01*
X125225543Y-91053044D01*
X125246613Y-91043079D01*
X125268557Y-91035227D01*
X125291166Y-91029563D01*
X125314221Y-91026144D01*
X125337500Y-91025000D01*
X125912500Y-91025000D01*
X125935779Y-91026144D01*
G37*
G04 #@! TD.AperFunction*
G04 #@! TA.AperFunction,SMDPad,CuDef*
G36*
X127685779Y-91026144D02*
G01*
X127708834Y-91029563D01*
X127731443Y-91035227D01*
X127753387Y-91043079D01*
X127774457Y-91053044D01*
X127794448Y-91065026D01*
X127813168Y-91078910D01*
X127830438Y-91094562D01*
X127846090Y-91111832D01*
X127859974Y-91130552D01*
X127871956Y-91150543D01*
X127881921Y-91171613D01*
X127889773Y-91193557D01*
X127895437Y-91216166D01*
X127898856Y-91239221D01*
X127900000Y-91262500D01*
X127900000Y-91737500D01*
X127898856Y-91760779D01*
X127895437Y-91783834D01*
X127889773Y-91806443D01*
X127881921Y-91828387D01*
X127871956Y-91849457D01*
X127859974Y-91869448D01*
X127846090Y-91888168D01*
X127830438Y-91905438D01*
X127813168Y-91921090D01*
X127794448Y-91934974D01*
X127774457Y-91946956D01*
X127753387Y-91956921D01*
X127731443Y-91964773D01*
X127708834Y-91970437D01*
X127685779Y-91973856D01*
X127662500Y-91975000D01*
X127087500Y-91975000D01*
X127064221Y-91973856D01*
X127041166Y-91970437D01*
X127018557Y-91964773D01*
X126996613Y-91956921D01*
X126975543Y-91946956D01*
X126955552Y-91934974D01*
X126936832Y-91921090D01*
X126919562Y-91905438D01*
X126903910Y-91888168D01*
X126890026Y-91869448D01*
X126878044Y-91849457D01*
X126868079Y-91828387D01*
X126860227Y-91806443D01*
X126854563Y-91783834D01*
X126851144Y-91760779D01*
X126850000Y-91737500D01*
X126850000Y-91262500D01*
X126851144Y-91239221D01*
X126854563Y-91216166D01*
X126860227Y-91193557D01*
X126868079Y-91171613D01*
X126878044Y-91150543D01*
X126890026Y-91130552D01*
X126903910Y-91111832D01*
X126919562Y-91094562D01*
X126936832Y-91078910D01*
X126955552Y-91065026D01*
X126975543Y-91053044D01*
X126996613Y-91043079D01*
X127018557Y-91035227D01*
X127041166Y-91029563D01*
X127064221Y-91026144D01*
X127087500Y-91025000D01*
X127662500Y-91025000D01*
X127685779Y-91026144D01*
G37*
G04 #@! TD.AperFunction*
D14*
X124500000Y-97500000D03*
G04 #@! TA.AperFunction,ComponentPad*
D12*
G36*
X126874505Y-96626204D02*
G01*
X126898773Y-96629804D01*
X126922572Y-96635765D01*
X126945671Y-96644030D01*
X126967850Y-96654520D01*
X126988893Y-96667132D01*
X127008599Y-96681747D01*
X127026777Y-96698223D01*
X127043253Y-96716401D01*
X127057868Y-96736107D01*
X127070480Y-96757150D01*
X127080970Y-96779329D01*
X127089235Y-96802428D01*
X127095196Y-96826227D01*
X127098796Y-96850495D01*
X127100000Y-96874999D01*
X127100000Y-98125001D01*
X127098796Y-98149505D01*
X127095196Y-98173773D01*
X127089235Y-98197572D01*
X127080970Y-98220671D01*
X127070480Y-98242850D01*
X127057868Y-98263893D01*
X127043253Y-98283599D01*
X127026777Y-98301777D01*
X127008599Y-98318253D01*
X126988893Y-98332868D01*
X126967850Y-98345480D01*
X126945671Y-98355970D01*
X126922572Y-98364235D01*
X126898773Y-98370196D01*
X126874505Y-98373796D01*
X126850001Y-98375000D01*
X126149999Y-98375000D01*
X126125495Y-98373796D01*
X126101227Y-98370196D01*
X126077428Y-98364235D01*
X126054329Y-98355970D01*
X126032150Y-98345480D01*
X126011107Y-98332868D01*
X125991401Y-98318253D01*
X125973223Y-98301777D01*
X125956747Y-98283599D01*
X125942132Y-98263893D01*
X125929520Y-98242850D01*
X125919030Y-98220671D01*
X125910765Y-98197572D01*
X125904804Y-98173773D01*
X125901204Y-98149505D01*
X125900000Y-98125001D01*
X125900000Y-96874999D01*
X125901204Y-96850495D01*
X125904804Y-96826227D01*
X125910765Y-96802428D01*
X125919030Y-96779329D01*
X125929520Y-96757150D01*
X125942132Y-96736107D01*
X125956747Y-96716401D01*
X125973223Y-96698223D01*
X125991401Y-96681747D01*
X126011107Y-96667132D01*
X126032150Y-96654520D01*
X126054329Y-96644030D01*
X126077428Y-96635765D01*
X126101227Y-96629804D01*
X126125495Y-96626204D01*
X126149999Y-96625000D01*
X126850001Y-96625000D01*
X126874505Y-96626204D01*
G37*
G04 #@! TD.AperFunction*
D15*
X141600000Y-87300000D03*
G04 #@! TA.AperFunction,ComponentPad*
D12*
G36*
X142249505Y-84701204D02*
G01*
X142273773Y-84704804D01*
X142297572Y-84710765D01*
X142320671Y-84719030D01*
X142342850Y-84729520D01*
X142363893Y-84742132D01*
X142383599Y-84756747D01*
X142401777Y-84773223D01*
X142418253Y-84791401D01*
X142432868Y-84811107D01*
X142445480Y-84832150D01*
X142455970Y-84854329D01*
X142464235Y-84877428D01*
X142470196Y-84901227D01*
X142473796Y-84925495D01*
X142475000Y-84949999D01*
X142475000Y-85650001D01*
X142473796Y-85674505D01*
X142470196Y-85698773D01*
X142464235Y-85722572D01*
X142455970Y-85745671D01*
X142445480Y-85767850D01*
X142432868Y-85788893D01*
X142418253Y-85808599D01*
X142401777Y-85826777D01*
X142383599Y-85843253D01*
X142363893Y-85857868D01*
X142342850Y-85870480D01*
X142320671Y-85880970D01*
X142297572Y-85889235D01*
X142273773Y-85895196D01*
X142249505Y-85898796D01*
X142225001Y-85900000D01*
X140974999Y-85900000D01*
X140950495Y-85898796D01*
X140926227Y-85895196D01*
X140902428Y-85889235D01*
X140879329Y-85880970D01*
X140857150Y-85870480D01*
X140836107Y-85857868D01*
X140816401Y-85843253D01*
X140798223Y-85826777D01*
X140781747Y-85808599D01*
X140767132Y-85788893D01*
X140754520Y-85767850D01*
X140744030Y-85745671D01*
X140735765Y-85722572D01*
X140729804Y-85698773D01*
X140726204Y-85674505D01*
X140725000Y-85650001D01*
X140725000Y-84949999D01*
X140726204Y-84925495D01*
X140729804Y-84901227D01*
X140735765Y-84877428D01*
X140744030Y-84854329D01*
X140754520Y-84832150D01*
X140767132Y-84811107D01*
X140781747Y-84791401D01*
X140798223Y-84773223D01*
X140816401Y-84756747D01*
X140836107Y-84742132D01*
X140857150Y-84729520D01*
X140879329Y-84719030D01*
X140902428Y-84710765D01*
X140926227Y-84704804D01*
X140950495Y-84701204D01*
X140974999Y-84700000D01*
X142225001Y-84700000D01*
X142249505Y-84701204D01*
G37*
G04 #@! TD.AperFunction*
D15*
X119000000Y-93500000D03*
G04 #@! TA.AperFunction,ComponentPad*
D12*
G36*
X119649505Y-90901204D02*
G01*
X119673773Y-90904804D01*
X119697572Y-90910765D01*
X119720671Y-90919030D01*
X119742850Y-90929520D01*
X119763893Y-90942132D01*
X119783599Y-90956747D01*
X119801777Y-90973223D01*
X119818253Y-90991401D01*
X119832868Y-91011107D01*
X119845480Y-91032150D01*
X119855970Y-91054329D01*
X119864235Y-91077428D01*
X119870196Y-91101227D01*
X119873796Y-91125495D01*
X119875000Y-91149999D01*
X119875000Y-91850001D01*
X119873796Y-91874505D01*
X119870196Y-91898773D01*
X119864235Y-91922572D01*
X119855970Y-91945671D01*
X119845480Y-91967850D01*
X119832868Y-91988893D01*
X119818253Y-92008599D01*
X119801777Y-92026777D01*
X119783599Y-92043253D01*
X119763893Y-92057868D01*
X119742850Y-92070480D01*
X119720671Y-92080970D01*
X119697572Y-92089235D01*
X119673773Y-92095196D01*
X119649505Y-92098796D01*
X119625001Y-92100000D01*
X118374999Y-92100000D01*
X118350495Y-92098796D01*
X118326227Y-92095196D01*
X118302428Y-92089235D01*
X118279329Y-92080970D01*
X118257150Y-92070480D01*
X118236107Y-92057868D01*
X118216401Y-92043253D01*
X118198223Y-92026777D01*
X118181747Y-92008599D01*
X118167132Y-91988893D01*
X118154520Y-91967850D01*
X118144030Y-91945671D01*
X118135765Y-91922572D01*
X118129804Y-91898773D01*
X118126204Y-91874505D01*
X118125000Y-91850001D01*
X118125000Y-91149999D01*
X118126204Y-91125495D01*
X118129804Y-91101227D01*
X118135765Y-91077428D01*
X118144030Y-91054329D01*
X118154520Y-91032150D01*
X118167132Y-91011107D01*
X118181747Y-90991401D01*
X118198223Y-90973223D01*
X118216401Y-90956747D01*
X118236107Y-90942132D01*
X118257150Y-90929520D01*
X118279329Y-90919030D01*
X118302428Y-90910765D01*
X118326227Y-90904804D01*
X118350495Y-90901204D01*
X118374999Y-90900000D01*
X119625001Y-90900000D01*
X119649505Y-90901204D01*
G37*
G04 #@! TD.AperFunction*
G04 #@! TA.AperFunction,SMDPad,CuDef*
G36*
X135660779Y-91401144D02*
G01*
X135683834Y-91404563D01*
X135706443Y-91410227D01*
X135728387Y-91418079D01*
X135749457Y-91428044D01*
X135769448Y-91440026D01*
X135788168Y-91453910D01*
X135805438Y-91469562D01*
X135821090Y-91486832D01*
X135834974Y-91505552D01*
X135846956Y-91525543D01*
X135856921Y-91546613D01*
X135864773Y-91568557D01*
X135870437Y-91591166D01*
X135873856Y-91614221D01*
X135875000Y-91637500D01*
X135875000Y-92212500D01*
X135873856Y-92235779D01*
X135870437Y-92258834D01*
X135864773Y-92281443D01*
X135856921Y-92303387D01*
X135846956Y-92324457D01*
X135834974Y-92344448D01*
X135821090Y-92363168D01*
X135805438Y-92380438D01*
X135788168Y-92396090D01*
X135769448Y-92409974D01*
X135749457Y-92421956D01*
X135728387Y-92431921D01*
X135706443Y-92439773D01*
X135683834Y-92445437D01*
X135660779Y-92448856D01*
X135637500Y-92450000D01*
X135162500Y-92450000D01*
X135139221Y-92448856D01*
X135116166Y-92445437D01*
X135093557Y-92439773D01*
X135071613Y-92431921D01*
X135050543Y-92421956D01*
X135030552Y-92409974D01*
X135011832Y-92396090D01*
X134994562Y-92380438D01*
X134978910Y-92363168D01*
X134965026Y-92344448D01*
X134953044Y-92324457D01*
X134943079Y-92303387D01*
X134935227Y-92281443D01*
X134929563Y-92258834D01*
X134926144Y-92235779D01*
X134925000Y-92212500D01*
X134925000Y-91637500D01*
X134926144Y-91614221D01*
X134929563Y-91591166D01*
X134935227Y-91568557D01*
X134943079Y-91546613D01*
X134953044Y-91525543D01*
X134965026Y-91505552D01*
X134978910Y-91486832D01*
X134994562Y-91469562D01*
X135011832Y-91453910D01*
X135030552Y-91440026D01*
X135050543Y-91428044D01*
X135071613Y-91418079D01*
X135093557Y-91410227D01*
X135116166Y-91404563D01*
X135139221Y-91401144D01*
X135162500Y-91400000D01*
X135637500Y-91400000D01*
X135660779Y-91401144D01*
G37*
G04 #@! TD.AperFunction*
G04 #@! TA.AperFunction,SMDPad,CuDef*
G36*
X135660779Y-93151144D02*
G01*
X135683834Y-93154563D01*
X135706443Y-93160227D01*
X135728387Y-93168079D01*
X135749457Y-93178044D01*
X135769448Y-93190026D01*
X135788168Y-93203910D01*
X135805438Y-93219562D01*
X135821090Y-93236832D01*
X135834974Y-93255552D01*
X135846956Y-93275543D01*
X135856921Y-93296613D01*
X135864773Y-93318557D01*
X135870437Y-93341166D01*
X135873856Y-93364221D01*
X135875000Y-93387500D01*
X135875000Y-93962500D01*
X135873856Y-93985779D01*
X135870437Y-94008834D01*
X135864773Y-94031443D01*
X135856921Y-94053387D01*
X135846956Y-94074457D01*
X135834974Y-94094448D01*
X135821090Y-94113168D01*
X135805438Y-94130438D01*
X135788168Y-94146090D01*
X135769448Y-94159974D01*
X135749457Y-94171956D01*
X135728387Y-94181921D01*
X135706443Y-94189773D01*
X135683834Y-94195437D01*
X135660779Y-94198856D01*
X135637500Y-94200000D01*
X135162500Y-94200000D01*
X135139221Y-94198856D01*
X135116166Y-94195437D01*
X135093557Y-94189773D01*
X135071613Y-94181921D01*
X135050543Y-94171956D01*
X135030552Y-94159974D01*
X135011832Y-94146090D01*
X134994562Y-94130438D01*
X134978910Y-94113168D01*
X134965026Y-94094448D01*
X134953044Y-94074457D01*
X134943079Y-94053387D01*
X134935227Y-94031443D01*
X134929563Y-94008834D01*
X134926144Y-93985779D01*
X134925000Y-93962500D01*
X134925000Y-93387500D01*
X134926144Y-93364221D01*
X134929563Y-93341166D01*
X134935227Y-93318557D01*
X134943079Y-93296613D01*
X134953044Y-93275543D01*
X134965026Y-93255552D01*
X134978910Y-93236832D01*
X134994562Y-93219562D01*
X135011832Y-93203910D01*
X135030552Y-93190026D01*
X135050543Y-93178044D01*
X135071613Y-93168079D01*
X135093557Y-93160227D01*
X135116166Y-93154563D01*
X135139221Y-93151144D01*
X135162500Y-93150000D01*
X135637500Y-93150000D01*
X135660779Y-93151144D01*
G37*
G04 #@! TD.AperFunction*
D16*
X131000000Y-93850000D03*
X131000000Y-91950000D03*
X133200000Y-91950000D03*
X133200000Y-92900000D03*
X133200000Y-93850000D03*
G04 #@! TA.AperFunction,SMDPad,CuDef*
D12*
G36*
X130259703Y-82950722D02*
G01*
X130274264Y-82952882D01*
X130288543Y-82956459D01*
X130302403Y-82961418D01*
X130315710Y-82967712D01*
X130328336Y-82975280D01*
X130340159Y-82984048D01*
X130351066Y-82993934D01*
X130360952Y-83004841D01*
X130369720Y-83016664D01*
X130377288Y-83029290D01*
X130383582Y-83042597D01*
X130388541Y-83056457D01*
X130392118Y-83070736D01*
X130394278Y-83085297D01*
X130395000Y-83100000D01*
X130395000Y-84550000D01*
X130394278Y-84564703D01*
X130392118Y-84579264D01*
X130388541Y-84593543D01*
X130383582Y-84607403D01*
X130377288Y-84620710D01*
X130369720Y-84633336D01*
X130360952Y-84645159D01*
X130351066Y-84656066D01*
X130340159Y-84665952D01*
X130328336Y-84674720D01*
X130315710Y-84682288D01*
X130302403Y-84688582D01*
X130288543Y-84693541D01*
X130274264Y-84697118D01*
X130259703Y-84699278D01*
X130245000Y-84700000D01*
X129945000Y-84700000D01*
X129930297Y-84699278D01*
X129915736Y-84697118D01*
X129901457Y-84693541D01*
X129887597Y-84688582D01*
X129874290Y-84682288D01*
X129861664Y-84674720D01*
X129849841Y-84665952D01*
X129838934Y-84656066D01*
X129829048Y-84645159D01*
X129820280Y-84633336D01*
X129812712Y-84620710D01*
X129806418Y-84607403D01*
X129801459Y-84593543D01*
X129797882Y-84579264D01*
X129795722Y-84564703D01*
X129795000Y-84550000D01*
X129795000Y-83100000D01*
X129795722Y-83085297D01*
X129797882Y-83070736D01*
X129801459Y-83056457D01*
X129806418Y-83042597D01*
X129812712Y-83029290D01*
X129820280Y-83016664D01*
X129829048Y-83004841D01*
X129838934Y-82993934D01*
X129849841Y-82984048D01*
X129861664Y-82975280D01*
X129874290Y-82967712D01*
X129887597Y-82961418D01*
X129901457Y-82956459D01*
X129915736Y-82952882D01*
X129930297Y-82950722D01*
X129945000Y-82950000D01*
X130245000Y-82950000D01*
X130259703Y-82950722D01*
G37*
G04 #@! TD.AperFunction*
G04 #@! TA.AperFunction,SMDPad,CuDef*
G36*
X131529703Y-82950722D02*
G01*
X131544264Y-82952882D01*
X131558543Y-82956459D01*
X131572403Y-82961418D01*
X131585710Y-82967712D01*
X131598336Y-82975280D01*
X131610159Y-82984048D01*
X131621066Y-82993934D01*
X131630952Y-83004841D01*
X131639720Y-83016664D01*
X131647288Y-83029290D01*
X131653582Y-83042597D01*
X131658541Y-83056457D01*
X131662118Y-83070736D01*
X131664278Y-83085297D01*
X131665000Y-83100000D01*
X131665000Y-84550000D01*
X131664278Y-84564703D01*
X131662118Y-84579264D01*
X131658541Y-84593543D01*
X131653582Y-84607403D01*
X131647288Y-84620710D01*
X131639720Y-84633336D01*
X131630952Y-84645159D01*
X131621066Y-84656066D01*
X131610159Y-84665952D01*
X131598336Y-84674720D01*
X131585710Y-84682288D01*
X131572403Y-84688582D01*
X131558543Y-84693541D01*
X131544264Y-84697118D01*
X131529703Y-84699278D01*
X131515000Y-84700000D01*
X131215000Y-84700000D01*
X131200297Y-84699278D01*
X131185736Y-84697118D01*
X131171457Y-84693541D01*
X131157597Y-84688582D01*
X131144290Y-84682288D01*
X131131664Y-84674720D01*
X131119841Y-84665952D01*
X131108934Y-84656066D01*
X131099048Y-84645159D01*
X131090280Y-84633336D01*
X131082712Y-84620710D01*
X131076418Y-84607403D01*
X131071459Y-84593543D01*
X131067882Y-84579264D01*
X131065722Y-84564703D01*
X131065000Y-84550000D01*
X131065000Y-83100000D01*
X131065722Y-83085297D01*
X131067882Y-83070736D01*
X131071459Y-83056457D01*
X131076418Y-83042597D01*
X131082712Y-83029290D01*
X131090280Y-83016664D01*
X131099048Y-83004841D01*
X131108934Y-82993934D01*
X131119841Y-82984048D01*
X131131664Y-82975280D01*
X131144290Y-82967712D01*
X131157597Y-82961418D01*
X131171457Y-82956459D01*
X131185736Y-82952882D01*
X131200297Y-82950722D01*
X131215000Y-82950000D01*
X131515000Y-82950000D01*
X131529703Y-82950722D01*
G37*
G04 #@! TD.AperFunction*
G04 #@! TA.AperFunction,SMDPad,CuDef*
G36*
X132799703Y-82950722D02*
G01*
X132814264Y-82952882D01*
X132828543Y-82956459D01*
X132842403Y-82961418D01*
X132855710Y-82967712D01*
X132868336Y-82975280D01*
X132880159Y-82984048D01*
X132891066Y-82993934D01*
X132900952Y-83004841D01*
X132909720Y-83016664D01*
X132917288Y-83029290D01*
X132923582Y-83042597D01*
X132928541Y-83056457D01*
X132932118Y-83070736D01*
X132934278Y-83085297D01*
X132935000Y-83100000D01*
X132935000Y-84550000D01*
X132934278Y-84564703D01*
X132932118Y-84579264D01*
X132928541Y-84593543D01*
X132923582Y-84607403D01*
X132917288Y-84620710D01*
X132909720Y-84633336D01*
X132900952Y-84645159D01*
X132891066Y-84656066D01*
X132880159Y-84665952D01*
X132868336Y-84674720D01*
X132855710Y-84682288D01*
X132842403Y-84688582D01*
X132828543Y-84693541D01*
X132814264Y-84697118D01*
X132799703Y-84699278D01*
X132785000Y-84700000D01*
X132485000Y-84700000D01*
X132470297Y-84699278D01*
X132455736Y-84697118D01*
X132441457Y-84693541D01*
X132427597Y-84688582D01*
X132414290Y-84682288D01*
X132401664Y-84674720D01*
X132389841Y-84665952D01*
X132378934Y-84656066D01*
X132369048Y-84645159D01*
X132360280Y-84633336D01*
X132352712Y-84620710D01*
X132346418Y-84607403D01*
X132341459Y-84593543D01*
X132337882Y-84579264D01*
X132335722Y-84564703D01*
X132335000Y-84550000D01*
X132335000Y-83100000D01*
X132335722Y-83085297D01*
X132337882Y-83070736D01*
X132341459Y-83056457D01*
X132346418Y-83042597D01*
X132352712Y-83029290D01*
X132360280Y-83016664D01*
X132369048Y-83004841D01*
X132378934Y-82993934D01*
X132389841Y-82984048D01*
X132401664Y-82975280D01*
X132414290Y-82967712D01*
X132427597Y-82961418D01*
X132441457Y-82956459D01*
X132455736Y-82952882D01*
X132470297Y-82950722D01*
X132485000Y-82950000D01*
X132785000Y-82950000D01*
X132799703Y-82950722D01*
G37*
G04 #@! TD.AperFunction*
G04 #@! TA.AperFunction,SMDPad,CuDef*
G36*
X134069703Y-82950722D02*
G01*
X134084264Y-82952882D01*
X134098543Y-82956459D01*
X134112403Y-82961418D01*
X134125710Y-82967712D01*
X134138336Y-82975280D01*
X134150159Y-82984048D01*
X134161066Y-82993934D01*
X134170952Y-83004841D01*
X134179720Y-83016664D01*
X134187288Y-83029290D01*
X134193582Y-83042597D01*
X134198541Y-83056457D01*
X134202118Y-83070736D01*
X134204278Y-83085297D01*
X134205000Y-83100000D01*
X134205000Y-84550000D01*
X134204278Y-84564703D01*
X134202118Y-84579264D01*
X134198541Y-84593543D01*
X134193582Y-84607403D01*
X134187288Y-84620710D01*
X134179720Y-84633336D01*
X134170952Y-84645159D01*
X134161066Y-84656066D01*
X134150159Y-84665952D01*
X134138336Y-84674720D01*
X134125710Y-84682288D01*
X134112403Y-84688582D01*
X134098543Y-84693541D01*
X134084264Y-84697118D01*
X134069703Y-84699278D01*
X134055000Y-84700000D01*
X133755000Y-84700000D01*
X133740297Y-84699278D01*
X133725736Y-84697118D01*
X133711457Y-84693541D01*
X133697597Y-84688582D01*
X133684290Y-84682288D01*
X133671664Y-84674720D01*
X133659841Y-84665952D01*
X133648934Y-84656066D01*
X133639048Y-84645159D01*
X133630280Y-84633336D01*
X133622712Y-84620710D01*
X133616418Y-84607403D01*
X133611459Y-84593543D01*
X133607882Y-84579264D01*
X133605722Y-84564703D01*
X133605000Y-84550000D01*
X133605000Y-83100000D01*
X133605722Y-83085297D01*
X133607882Y-83070736D01*
X133611459Y-83056457D01*
X133616418Y-83042597D01*
X133622712Y-83029290D01*
X133630280Y-83016664D01*
X133639048Y-83004841D01*
X133648934Y-82993934D01*
X133659841Y-82984048D01*
X133671664Y-82975280D01*
X133684290Y-82967712D01*
X133697597Y-82961418D01*
X133711457Y-82956459D01*
X133725736Y-82952882D01*
X133740297Y-82950722D01*
X133755000Y-82950000D01*
X134055000Y-82950000D01*
X134069703Y-82950722D01*
G37*
G04 #@! TD.AperFunction*
G04 #@! TA.AperFunction,SMDPad,CuDef*
G36*
X134069703Y-88100722D02*
G01*
X134084264Y-88102882D01*
X134098543Y-88106459D01*
X134112403Y-88111418D01*
X134125710Y-88117712D01*
X134138336Y-88125280D01*
X134150159Y-88134048D01*
X134161066Y-88143934D01*
X134170952Y-88154841D01*
X134179720Y-88166664D01*
X134187288Y-88179290D01*
X134193582Y-88192597D01*
X134198541Y-88206457D01*
X134202118Y-88220736D01*
X134204278Y-88235297D01*
X134205000Y-88250000D01*
X134205000Y-89700000D01*
X134204278Y-89714703D01*
X134202118Y-89729264D01*
X134198541Y-89743543D01*
X134193582Y-89757403D01*
X134187288Y-89770710D01*
X134179720Y-89783336D01*
X134170952Y-89795159D01*
X134161066Y-89806066D01*
X134150159Y-89815952D01*
X134138336Y-89824720D01*
X134125710Y-89832288D01*
X134112403Y-89838582D01*
X134098543Y-89843541D01*
X134084264Y-89847118D01*
X134069703Y-89849278D01*
X134055000Y-89850000D01*
X133755000Y-89850000D01*
X133740297Y-89849278D01*
X133725736Y-89847118D01*
X133711457Y-89843541D01*
X133697597Y-89838582D01*
X133684290Y-89832288D01*
X133671664Y-89824720D01*
X133659841Y-89815952D01*
X133648934Y-89806066D01*
X133639048Y-89795159D01*
X133630280Y-89783336D01*
X133622712Y-89770710D01*
X133616418Y-89757403D01*
X133611459Y-89743543D01*
X133607882Y-89729264D01*
X133605722Y-89714703D01*
X133605000Y-89700000D01*
X133605000Y-88250000D01*
X133605722Y-88235297D01*
X133607882Y-88220736D01*
X133611459Y-88206457D01*
X133616418Y-88192597D01*
X133622712Y-88179290D01*
X133630280Y-88166664D01*
X133639048Y-88154841D01*
X133648934Y-88143934D01*
X133659841Y-88134048D01*
X133671664Y-88125280D01*
X133684290Y-88117712D01*
X133697597Y-88111418D01*
X133711457Y-88106459D01*
X133725736Y-88102882D01*
X133740297Y-88100722D01*
X133755000Y-88100000D01*
X134055000Y-88100000D01*
X134069703Y-88100722D01*
G37*
G04 #@! TD.AperFunction*
G04 #@! TA.AperFunction,SMDPad,CuDef*
G36*
X132799703Y-88100722D02*
G01*
X132814264Y-88102882D01*
X132828543Y-88106459D01*
X132842403Y-88111418D01*
X132855710Y-88117712D01*
X132868336Y-88125280D01*
X132880159Y-88134048D01*
X132891066Y-88143934D01*
X132900952Y-88154841D01*
X132909720Y-88166664D01*
X132917288Y-88179290D01*
X132923582Y-88192597D01*
X132928541Y-88206457D01*
X132932118Y-88220736D01*
X132934278Y-88235297D01*
X132935000Y-88250000D01*
X132935000Y-89700000D01*
X132934278Y-89714703D01*
X132932118Y-89729264D01*
X132928541Y-89743543D01*
X132923582Y-89757403D01*
X132917288Y-89770710D01*
X132909720Y-89783336D01*
X132900952Y-89795159D01*
X132891066Y-89806066D01*
X132880159Y-89815952D01*
X132868336Y-89824720D01*
X132855710Y-89832288D01*
X132842403Y-89838582D01*
X132828543Y-89843541D01*
X132814264Y-89847118D01*
X132799703Y-89849278D01*
X132785000Y-89850000D01*
X132485000Y-89850000D01*
X132470297Y-89849278D01*
X132455736Y-89847118D01*
X132441457Y-89843541D01*
X132427597Y-89838582D01*
X132414290Y-89832288D01*
X132401664Y-89824720D01*
X132389841Y-89815952D01*
X132378934Y-89806066D01*
X132369048Y-89795159D01*
X132360280Y-89783336D01*
X132352712Y-89770710D01*
X132346418Y-89757403D01*
X132341459Y-89743543D01*
X132337882Y-89729264D01*
X132335722Y-89714703D01*
X132335000Y-89700000D01*
X132335000Y-88250000D01*
X132335722Y-88235297D01*
X132337882Y-88220736D01*
X132341459Y-88206457D01*
X132346418Y-88192597D01*
X132352712Y-88179290D01*
X132360280Y-88166664D01*
X132369048Y-88154841D01*
X132378934Y-88143934D01*
X132389841Y-88134048D01*
X132401664Y-88125280D01*
X132414290Y-88117712D01*
X132427597Y-88111418D01*
X132441457Y-88106459D01*
X132455736Y-88102882D01*
X132470297Y-88100722D01*
X132485000Y-88100000D01*
X132785000Y-88100000D01*
X132799703Y-88100722D01*
G37*
G04 #@! TD.AperFunction*
G04 #@! TA.AperFunction,SMDPad,CuDef*
G36*
X131529703Y-88100722D02*
G01*
X131544264Y-88102882D01*
X131558543Y-88106459D01*
X131572403Y-88111418D01*
X131585710Y-88117712D01*
X131598336Y-88125280D01*
X131610159Y-88134048D01*
X131621066Y-88143934D01*
X131630952Y-88154841D01*
X131639720Y-88166664D01*
X131647288Y-88179290D01*
X131653582Y-88192597D01*
X131658541Y-88206457D01*
X131662118Y-88220736D01*
X131664278Y-88235297D01*
X131665000Y-88250000D01*
X131665000Y-89700000D01*
X131664278Y-89714703D01*
X131662118Y-89729264D01*
X131658541Y-89743543D01*
X131653582Y-89757403D01*
X131647288Y-89770710D01*
X131639720Y-89783336D01*
X131630952Y-89795159D01*
X131621066Y-89806066D01*
X131610159Y-89815952D01*
X131598336Y-89824720D01*
X131585710Y-89832288D01*
X131572403Y-89838582D01*
X131558543Y-89843541D01*
X131544264Y-89847118D01*
X131529703Y-89849278D01*
X131515000Y-89850000D01*
X131215000Y-89850000D01*
X131200297Y-89849278D01*
X131185736Y-89847118D01*
X131171457Y-89843541D01*
X131157597Y-89838582D01*
X131144290Y-89832288D01*
X131131664Y-89824720D01*
X131119841Y-89815952D01*
X131108934Y-89806066D01*
X131099048Y-89795159D01*
X131090280Y-89783336D01*
X131082712Y-89770710D01*
X131076418Y-89757403D01*
X131071459Y-89743543D01*
X131067882Y-89729264D01*
X131065722Y-89714703D01*
X131065000Y-89700000D01*
X131065000Y-88250000D01*
X131065722Y-88235297D01*
X131067882Y-88220736D01*
X131071459Y-88206457D01*
X131076418Y-88192597D01*
X131082712Y-88179290D01*
X131090280Y-88166664D01*
X131099048Y-88154841D01*
X131108934Y-88143934D01*
X131119841Y-88134048D01*
X131131664Y-88125280D01*
X131144290Y-88117712D01*
X131157597Y-88111418D01*
X131171457Y-88106459D01*
X131185736Y-88102882D01*
X131200297Y-88100722D01*
X131215000Y-88100000D01*
X131515000Y-88100000D01*
X131529703Y-88100722D01*
G37*
G04 #@! TD.AperFunction*
G04 #@! TA.AperFunction,SMDPad,CuDef*
G36*
X130259703Y-88100722D02*
G01*
X130274264Y-88102882D01*
X130288543Y-88106459D01*
X130302403Y-88111418D01*
X130315710Y-88117712D01*
X130328336Y-88125280D01*
X130340159Y-88134048D01*
X130351066Y-88143934D01*
X130360952Y-88154841D01*
X130369720Y-88166664D01*
X130377288Y-88179290D01*
X130383582Y-88192597D01*
X130388541Y-88206457D01*
X130392118Y-88220736D01*
X130394278Y-88235297D01*
X130395000Y-88250000D01*
X130395000Y-89700000D01*
X130394278Y-89714703D01*
X130392118Y-89729264D01*
X130388541Y-89743543D01*
X130383582Y-89757403D01*
X130377288Y-89770710D01*
X130369720Y-89783336D01*
X130360952Y-89795159D01*
X130351066Y-89806066D01*
X130340159Y-89815952D01*
X130328336Y-89824720D01*
X130315710Y-89832288D01*
X130302403Y-89838582D01*
X130288543Y-89843541D01*
X130274264Y-89847118D01*
X130259703Y-89849278D01*
X130245000Y-89850000D01*
X129945000Y-89850000D01*
X129930297Y-89849278D01*
X129915736Y-89847118D01*
X129901457Y-89843541D01*
X129887597Y-89838582D01*
X129874290Y-89832288D01*
X129861664Y-89824720D01*
X129849841Y-89815952D01*
X129838934Y-89806066D01*
X129829048Y-89795159D01*
X129820280Y-89783336D01*
X129812712Y-89770710D01*
X129806418Y-89757403D01*
X129801459Y-89743543D01*
X129797882Y-89729264D01*
X129795722Y-89714703D01*
X129795000Y-89700000D01*
X129795000Y-88250000D01*
X129795722Y-88235297D01*
X129797882Y-88220736D01*
X129801459Y-88206457D01*
X129806418Y-88192597D01*
X129812712Y-88179290D01*
X129820280Y-88166664D01*
X129829048Y-88154841D01*
X129838934Y-88143934D01*
X129849841Y-88134048D01*
X129861664Y-88125280D01*
X129874290Y-88117712D01*
X129887597Y-88111418D01*
X129901457Y-88106459D01*
X129915736Y-88102882D01*
X129930297Y-88100722D01*
X129945000Y-88100000D01*
X130245000Y-88100000D01*
X130259703Y-88100722D01*
G37*
G04 #@! TD.AperFunction*
D17*
X135000000Y-84700000D03*
X135300000Y-90800000D03*
X133200000Y-95000000D03*
X133200000Y-90800000D03*
X126500000Y-80625000D03*
X129600000Y-92000000D03*
X129000000Y-84900000D03*
X127500000Y-90000000D03*
X128500000Y-81500000D03*
D18*
X119000000Y-88480000D02*
X120230000Y-87250000D01*
X119000000Y-91500000D02*
X119000000Y-88480000D01*
X133225000Y-91925000D02*
X133200000Y-91950000D01*
X135400000Y-91925000D02*
X133225000Y-91925000D01*
X132420000Y-91950000D02*
X133200000Y-91950000D01*
X132325000Y-91950000D02*
X132420000Y-91950000D01*
X131000000Y-93275000D02*
X132325000Y-91950000D01*
X131000000Y-93850000D02*
X131000000Y-93275000D01*
X132635000Y-83825000D02*
X133905000Y-83825000D01*
X133905000Y-83825000D02*
X135325000Y-83825000D01*
X136800000Y-85300000D02*
X141600000Y-85300000D01*
X135325000Y-83825000D02*
X136800000Y-85300000D01*
X134125000Y-83825000D02*
X135000000Y-84700000D01*
X133905000Y-83825000D02*
X134125000Y-83825000D01*
X135300000Y-91825000D02*
X135400000Y-91925000D01*
X135300000Y-90800000D02*
X135300000Y-91825000D01*
X133275000Y-97025000D02*
X133450000Y-96850000D01*
X130100000Y-97025000D02*
X133275000Y-97025000D01*
X131000000Y-94425000D02*
X131000000Y-93850000D01*
X131000000Y-96600000D02*
X131000000Y-94425000D01*
X130575000Y-97025000D02*
X131000000Y-96600000D01*
X130100000Y-97025000D02*
X130575000Y-97025000D01*
X135699999Y-86400001D02*
X136800000Y-85300000D01*
X135699999Y-90400001D02*
X135699999Y-86400001D01*
X135300000Y-90800000D02*
X135699999Y-90400001D01*
X131665000Y-89275000D02*
X131665000Y-89965000D01*
X131365000Y-88975000D02*
X131665000Y-89275000D01*
X133905000Y-89850000D02*
X133905000Y-88975000D01*
X133579990Y-90175010D02*
X133905000Y-89850000D01*
X131665000Y-89965000D02*
X131875010Y-90175010D01*
X133200000Y-93850000D02*
X133200000Y-95000000D01*
X133200000Y-90800000D02*
X133200000Y-90234315D01*
X133200000Y-90234315D02*
X133200000Y-90200000D01*
X133200000Y-90200000D02*
X133579990Y-90175010D01*
X131875010Y-90175010D02*
X133200000Y-90200000D01*
X133000000Y-95200000D02*
X133200000Y-95000000D01*
X133765685Y-95000000D02*
X133200000Y-95000000D01*
X136950051Y-95000000D02*
X133765685Y-95000000D01*
X137610051Y-94340000D02*
X136950051Y-95000000D01*
X138600000Y-94340000D02*
X137610051Y-94340000D01*
X130095000Y-88100000D02*
X130595000Y-87600000D01*
X130095000Y-88975000D02*
X130095000Y-88100000D01*
X132635000Y-88100000D02*
X132635000Y-88975000D01*
X132135000Y-87600000D02*
X132635000Y-88100000D01*
X130595000Y-87600000D02*
X132135000Y-87600000D01*
X135400000Y-93150000D02*
X135400000Y-93675000D01*
X135150000Y-92900000D02*
X135400000Y-93150000D01*
X133200000Y-92900000D02*
X135150000Y-92900000D01*
X135875000Y-98550000D02*
X135300000Y-98550000D01*
X137000000Y-98550000D02*
X135875000Y-98550000D01*
X141500000Y-98950000D02*
X141500000Y-98250000D01*
X141500000Y-98250000D02*
X141150000Y-97900000D01*
X137200000Y-98350000D02*
X137000000Y-98550000D01*
X141150000Y-97900000D02*
X137200000Y-97900000D01*
X137200000Y-97900000D02*
X137200000Y-98350000D01*
X135300000Y-98550000D02*
X134350000Y-98550000D01*
X125230000Y-87975000D02*
X125230000Y-87250000D01*
X125230000Y-88395000D02*
X125230000Y-87975000D01*
X120125000Y-93500000D02*
X125230000Y-88395000D01*
X119000000Y-93500000D02*
X120125000Y-93500000D01*
X120505000Y-81475000D02*
X120230000Y-81750000D01*
X121280010Y-80699990D02*
X120505000Y-81475000D01*
X124179990Y-80699990D02*
X121280010Y-80699990D01*
X125230000Y-81750000D02*
X124179990Y-80699990D01*
X125375000Y-81750000D02*
X126500000Y-80625000D01*
X125230000Y-81750000D02*
X125375000Y-81750000D01*
X126500000Y-97500000D02*
X126500000Y-93000000D01*
X125625000Y-92125000D02*
X125625000Y-91500000D01*
X126500000Y-93000000D02*
X125625000Y-92125000D01*
X129650000Y-91950000D02*
X129600000Y-92000000D01*
X131000000Y-91950000D02*
X129650000Y-91950000D01*
X129020000Y-84900000D02*
X130095000Y-83825000D01*
X129000000Y-84900000D02*
X129020000Y-84900000D01*
X128520000Y-85400000D02*
X130095000Y-83825000D01*
X130095000Y-83825000D02*
X131365000Y-83825000D01*
X123795000Y-85500000D02*
X124000000Y-85500000D01*
X122770000Y-86525000D02*
X123795000Y-85500000D01*
X122770000Y-87250000D02*
X122770000Y-86525000D01*
X124000000Y-85500000D02*
X128520000Y-85400000D01*
X124000000Y-85400000D02*
X124000000Y-85500000D01*
X127375000Y-90125000D02*
X127500000Y-90000000D01*
X127375000Y-91500000D02*
X127375000Y-90125000D01*
X128020000Y-81500000D02*
X127770000Y-81750000D01*
X128500000Y-81500000D02*
X128020000Y-81500000D01*
X127770000Y-82475000D02*
X127245000Y-83000000D01*
X127770000Y-81750000D02*
X127770000Y-82475000D01*
X124020000Y-83000000D02*
X122770000Y-81750000D01*
X127245000Y-83000000D02*
X124020000Y-83000000D01*
X127770000Y-87250000D02*
X127770000Y-87975000D01*
X128600000Y-96845510D02*
X129629500Y-97875010D01*
X127770000Y-87975000D02*
X128600000Y-88805000D01*
X128600000Y-88805000D02*
X128600000Y-96845510D01*
X134735001Y-97694999D02*
X131755001Y-97694999D01*
X135300000Y-97130000D02*
X134735001Y-97694999D01*
X135300000Y-96350000D02*
X135300000Y-97130000D01*
X131574990Y-97875010D02*
X129629500Y-97875010D01*
X131755001Y-97694999D02*
X131574990Y-97875010D01*
X135900000Y-96950000D02*
X135300000Y-96350000D01*
X140550000Y-96950000D02*
X135900000Y-96950000D01*
X139600000Y-98950000D02*
X139600000Y-99000000D01*
X133475001Y-99405001D02*
X133400000Y-99330000D01*
X133400000Y-99330000D02*
X133400000Y-98550000D01*
X139194999Y-99405001D02*
X133475001Y-99405001D01*
X139600000Y-99000000D02*
X139194999Y-99405001D01*
D19*
G36*
X119447635Y-80731615D02*
G01*
X119375965Y-80865701D01*
X119331830Y-81011193D01*
X119316928Y-81162500D01*
X119316928Y-82337500D01*
X119331830Y-82488807D01*
X119375965Y-82634299D01*
X119447635Y-82768385D01*
X119544088Y-82885912D01*
X119661615Y-82982365D01*
X119795701Y-83054035D01*
X119941193Y-83098170D01*
X120092500Y-83113072D01*
X120367500Y-83113072D01*
X120518807Y-83098170D01*
X120664299Y-83054035D01*
X120798385Y-82982365D01*
X120915912Y-82885912D01*
X121012365Y-82768385D01*
X121084035Y-82634299D01*
X121128170Y-82488807D01*
X121143072Y-82337500D01*
X121143072Y-81911729D01*
X121594812Y-81459990D01*
X121856928Y-81459990D01*
X121856928Y-82337500D01*
X121871830Y-82488807D01*
X121915965Y-82634299D01*
X121987635Y-82768385D01*
X122084088Y-82885912D01*
X122201615Y-82982365D01*
X122335701Y-83054035D01*
X122481193Y-83098170D01*
X122632500Y-83113072D01*
X122907500Y-83113072D01*
X123044753Y-83099554D01*
X123456201Y-83511003D01*
X123479999Y-83540001D01*
X123508997Y-83563799D01*
X123595723Y-83634974D01*
X123672503Y-83676014D01*
X123727753Y-83705546D01*
X123871014Y-83749003D01*
X123982667Y-83760000D01*
X123982677Y-83760000D01*
X124020000Y-83763676D01*
X124057323Y-83760000D01*
X127207678Y-83760000D01*
X127245000Y-83763676D01*
X127282322Y-83760000D01*
X127282333Y-83760000D01*
X127393986Y-83749003D01*
X127537247Y-83705546D01*
X127669276Y-83634974D01*
X127785001Y-83540001D01*
X127808803Y-83510998D01*
X128281002Y-83038800D01*
X128310001Y-83015001D01*
X128335534Y-82983889D01*
X128338385Y-82982365D01*
X128455912Y-82885912D01*
X128552365Y-82768385D01*
X128624035Y-82634299D01*
X128657511Y-82523946D01*
X128801898Y-82495226D01*
X128990256Y-82417205D01*
X129159774Y-82303937D01*
X129303937Y-82159774D01*
X129417205Y-81990256D01*
X129495226Y-81801898D01*
X129535000Y-81601939D01*
X129535000Y-81398061D01*
X129495226Y-81198102D01*
X129417205Y-81009744D01*
X129303937Y-80840226D01*
X129159774Y-80696063D01*
X129105802Y-80660000D01*
X144340000Y-80660000D01*
X144340001Y-99340000D01*
X142536950Y-99340000D01*
X142535000Y-99235750D01*
X142376250Y-99077000D01*
X141627000Y-99077000D01*
X141627000Y-99097000D01*
X141373000Y-99097000D01*
X141373000Y-99077000D01*
X141353000Y-99077000D01*
X141353000Y-98823000D01*
X141373000Y-98823000D01*
X141373000Y-98023750D01*
X141627000Y-98023750D01*
X141627000Y-98823000D01*
X142376250Y-98823000D01*
X142535000Y-98664250D01*
X142538072Y-98500000D01*
X142525812Y-98375518D01*
X142489502Y-98255820D01*
X142430537Y-98145506D01*
X142351185Y-98048815D01*
X142254494Y-97969463D01*
X142144180Y-97910498D01*
X142024482Y-97874188D01*
X141900000Y-97861928D01*
X141785750Y-97865000D01*
X141627000Y-98023750D01*
X141373000Y-98023750D01*
X141288393Y-97939143D01*
X141304494Y-97930537D01*
X141401185Y-97851185D01*
X141480537Y-97754494D01*
X141539502Y-97644180D01*
X141575812Y-97524482D01*
X141588072Y-97400000D01*
X141588072Y-96500000D01*
X141575812Y-96375518D01*
X141539502Y-96255820D01*
X141480537Y-96145506D01*
X141401185Y-96048815D01*
X141304494Y-95969463D01*
X141194180Y-95910498D01*
X141074482Y-95874188D01*
X140950000Y-95861928D01*
X140150000Y-95861928D01*
X140025518Y-95874188D01*
X139905820Y-95910498D01*
X139795506Y-95969463D01*
X139698815Y-96048815D01*
X139619463Y-96145506D01*
X139595680Y-96190000D01*
X136263072Y-96190000D01*
X136263072Y-95820000D01*
X136257163Y-95760000D01*
X136912729Y-95760000D01*
X136950051Y-95763676D01*
X136987373Y-95760000D01*
X136987384Y-95760000D01*
X137099037Y-95749003D01*
X137242298Y-95705546D01*
X137374327Y-95634974D01*
X137490052Y-95540001D01*
X137513854Y-95510998D01*
X137698439Y-95326414D01*
X137748987Y-95376962D01*
X137967641Y-95523061D01*
X138210595Y-95623696D01*
X138468514Y-95675000D01*
X138731486Y-95675000D01*
X138989405Y-95623696D01*
X139232359Y-95523061D01*
X139451013Y-95376962D01*
X139636962Y-95191013D01*
X139783061Y-94972359D01*
X139883696Y-94729405D01*
X139935000Y-94471486D01*
X139935000Y-94208514D01*
X139883696Y-93950595D01*
X139783061Y-93707641D01*
X139636962Y-93488987D01*
X139451013Y-93303038D01*
X139232359Y-93156939D01*
X139018556Y-93068379D01*
X139181366Y-93008935D01*
X139282203Y-92955037D01*
X139341664Y-92721269D01*
X138600000Y-91979605D01*
X137858336Y-92721269D01*
X137917797Y-92955037D01*
X138156242Y-93065934D01*
X138175827Y-93070706D01*
X137967641Y-93156939D01*
X137748987Y-93303038D01*
X137563038Y-93488987D01*
X137497260Y-93587432D01*
X137461065Y-93590997D01*
X137317804Y-93634454D01*
X137185774Y-93705026D01*
X137132190Y-93749002D01*
X137070050Y-93799999D01*
X137046251Y-93828998D01*
X136635250Y-94240000D01*
X136509132Y-94240000D01*
X136513072Y-94200000D01*
X136510000Y-93960750D01*
X136351250Y-93802000D01*
X135527000Y-93802000D01*
X135527000Y-93822000D01*
X135273000Y-93822000D01*
X135273000Y-93802000D01*
X135253000Y-93802000D01*
X135253000Y-93548000D01*
X135273000Y-93548000D01*
X135273000Y-93528000D01*
X135527000Y-93528000D01*
X135527000Y-93548000D01*
X136351250Y-93548000D01*
X136510000Y-93389250D01*
X136513072Y-93150000D01*
X136500812Y-93025518D01*
X136464502Y-92905820D01*
X136405537Y-92795506D01*
X136345901Y-92722839D01*
X136365512Y-92698942D01*
X136446423Y-92547567D01*
X136496248Y-92383316D01*
X136513072Y-92212500D01*
X136513072Y-91874473D01*
X137260610Y-91874473D01*
X137300875Y-92134344D01*
X137391065Y-92381366D01*
X137444963Y-92482203D01*
X137678731Y-92541664D01*
X138420395Y-91800000D01*
X138779605Y-91800000D01*
X139521269Y-92541664D01*
X139755037Y-92482203D01*
X139865934Y-92243758D01*
X139928183Y-91988260D01*
X139939390Y-91725527D01*
X139899125Y-91465656D01*
X139808935Y-91218634D01*
X139755037Y-91117797D01*
X139521269Y-91058336D01*
X138779605Y-91800000D01*
X138420395Y-91800000D01*
X137678731Y-91058336D01*
X137444963Y-91117797D01*
X137334066Y-91356242D01*
X137271817Y-91611740D01*
X137260610Y-91874473D01*
X136513072Y-91874473D01*
X136513072Y-91637500D01*
X136496248Y-91466684D01*
X136446423Y-91302433D01*
X136365512Y-91151058D01*
X136301067Y-91072532D01*
X136335000Y-90901939D01*
X136335000Y-90878731D01*
X137858336Y-90878731D01*
X138600000Y-91620395D01*
X139341664Y-90878731D01*
X139282203Y-90644963D01*
X139043758Y-90534066D01*
X138788260Y-90471817D01*
X138525527Y-90460610D01*
X138265656Y-90500875D01*
X138018634Y-90591065D01*
X137917797Y-90644963D01*
X137858336Y-90878731D01*
X136335000Y-90878731D01*
X136335000Y-90824226D01*
X136405545Y-90692248D01*
X136449002Y-90548987D01*
X136459999Y-90437334D01*
X136459999Y-90437324D01*
X136463675Y-90400002D01*
X136459999Y-90362679D01*
X136459999Y-87617609D01*
X140131538Y-87617609D01*
X140135409Y-87655282D01*
X140227579Y-87880533D01*
X140361922Y-88083474D01*
X140533275Y-88256307D01*
X140735054Y-88392390D01*
X140959504Y-88486493D01*
X141198000Y-88535000D01*
X141473000Y-88535000D01*
X141473000Y-87427000D01*
X141727000Y-87427000D01*
X141727000Y-88535000D01*
X142002000Y-88535000D01*
X142240496Y-88486493D01*
X142464946Y-88392390D01*
X142666725Y-88256307D01*
X142838078Y-88083474D01*
X142972421Y-87880533D01*
X143064591Y-87655282D01*
X143068462Y-87617609D01*
X142943731Y-87427000D01*
X141727000Y-87427000D01*
X141473000Y-87427000D01*
X140256269Y-87427000D01*
X140131538Y-87617609D01*
X136459999Y-87617609D01*
X136459999Y-86714802D01*
X137114802Y-86060000D01*
X140192024Y-86060000D01*
X140236595Y-86143387D01*
X140347038Y-86277962D01*
X140481613Y-86388405D01*
X140486406Y-86390967D01*
X140361922Y-86516526D01*
X140227579Y-86719467D01*
X140135409Y-86944718D01*
X140131538Y-86982391D01*
X140256269Y-87173000D01*
X141473000Y-87173000D01*
X141473000Y-87153000D01*
X141727000Y-87153000D01*
X141727000Y-87173000D01*
X142943731Y-87173000D01*
X143068462Y-86982391D01*
X143064591Y-86944718D01*
X142972421Y-86719467D01*
X142838078Y-86516526D01*
X142713594Y-86390967D01*
X142718387Y-86388405D01*
X142852962Y-86277962D01*
X142963405Y-86143387D01*
X143045472Y-85989851D01*
X143096008Y-85823255D01*
X143113072Y-85650001D01*
X143113072Y-84949999D01*
X143096008Y-84776745D01*
X143045472Y-84610149D01*
X142963405Y-84456613D01*
X142852962Y-84322038D01*
X142718387Y-84211595D01*
X142564851Y-84129528D01*
X142398255Y-84078992D01*
X142225001Y-84061928D01*
X140974999Y-84061928D01*
X140801745Y-84078992D01*
X140635149Y-84129528D01*
X140481613Y-84211595D01*
X140347038Y-84322038D01*
X140236595Y-84456613D01*
X140192024Y-84540000D01*
X137114802Y-84540000D01*
X135888804Y-83314003D01*
X135865001Y-83284999D01*
X135749276Y-83190026D01*
X135617247Y-83119454D01*
X135473986Y-83075997D01*
X135362333Y-83065000D01*
X135362322Y-83065000D01*
X135325000Y-83061324D01*
X135287678Y-83065000D01*
X134839625Y-83065000D01*
X134827929Y-82946255D01*
X134783084Y-82798418D01*
X134710258Y-82662171D01*
X134612251Y-82542749D01*
X134492829Y-82444742D01*
X134356582Y-82371916D01*
X134208745Y-82327071D01*
X134055000Y-82311928D01*
X133755000Y-82311928D01*
X133601255Y-82327071D01*
X133453418Y-82371916D01*
X133317171Y-82444742D01*
X133270000Y-82483454D01*
X133222829Y-82444742D01*
X133086582Y-82371916D01*
X132938745Y-82327071D01*
X132785000Y-82311928D01*
X132485000Y-82311928D01*
X132331255Y-82327071D01*
X132183418Y-82371916D01*
X132047171Y-82444742D01*
X132000000Y-82483454D01*
X131952829Y-82444742D01*
X131816582Y-82371916D01*
X131668745Y-82327071D01*
X131515000Y-82311928D01*
X131215000Y-82311928D01*
X131061255Y-82327071D01*
X130913418Y-82371916D01*
X130777171Y-82444742D01*
X130730000Y-82483454D01*
X130682829Y-82444742D01*
X130546582Y-82371916D01*
X130398745Y-82327071D01*
X130245000Y-82311928D01*
X129945000Y-82311928D01*
X129791255Y-82327071D01*
X129643418Y-82371916D01*
X129507171Y-82444742D01*
X129387749Y-82542749D01*
X129289742Y-82662171D01*
X129216916Y-82798418D01*
X129172071Y-82946255D01*
X129156928Y-83100000D01*
X129156928Y-83688270D01*
X128980198Y-83865000D01*
X128898061Y-83865000D01*
X128698102Y-83904774D01*
X128509744Y-83982795D01*
X128340226Y-84096063D01*
X128196063Y-84240226D01*
X128082795Y-84409744D01*
X128004774Y-84598102D01*
X127994163Y-84651448D01*
X124362120Y-84731803D01*
X124292246Y-84694454D01*
X124148985Y-84650997D01*
X124000000Y-84636323D01*
X123851014Y-84650997D01*
X123707753Y-84694454D01*
X123575724Y-84765026D01*
X123561627Y-84776595D01*
X123520743Y-84788997D01*
X123502753Y-84794454D01*
X123370723Y-84865026D01*
X123328108Y-84900000D01*
X123254999Y-84959999D01*
X123231201Y-84988997D01*
X122258998Y-85961201D01*
X122230000Y-85984999D01*
X122206202Y-86013997D01*
X122206201Y-86013998D01*
X122204467Y-86016110D01*
X122201615Y-86017635D01*
X122084088Y-86114088D01*
X121987635Y-86231615D01*
X121915965Y-86365701D01*
X121871830Y-86511193D01*
X121856928Y-86662500D01*
X121856928Y-87837500D01*
X121871830Y-87988807D01*
X121915965Y-88134299D01*
X121987635Y-88268385D01*
X122084088Y-88385912D01*
X122201615Y-88482365D01*
X122335701Y-88554035D01*
X122481193Y-88598170D01*
X122632500Y-88613072D01*
X122907500Y-88613072D01*
X123058807Y-88598170D01*
X123204299Y-88554035D01*
X123338385Y-88482365D01*
X123455912Y-88385912D01*
X123552365Y-88268385D01*
X123624035Y-88134299D01*
X123668170Y-87988807D01*
X123683072Y-87837500D01*
X123683072Y-86686729D01*
X124112097Y-86257705D01*
X124437538Y-86250505D01*
X124375965Y-86365701D01*
X124331830Y-86511193D01*
X124316928Y-86662500D01*
X124316928Y-87837500D01*
X124331830Y-87988807D01*
X124375965Y-88134299D01*
X124389875Y-88160323D01*
X120482538Y-92067661D01*
X120496008Y-92023255D01*
X120513072Y-91850001D01*
X120513072Y-91149999D01*
X120496008Y-90976745D01*
X120445472Y-90810149D01*
X120363405Y-90656613D01*
X120252962Y-90522038D01*
X120118387Y-90411595D01*
X119964851Y-90329528D01*
X119798255Y-90278992D01*
X119760000Y-90275224D01*
X119760000Y-88794801D01*
X119955247Y-88599554D01*
X120092500Y-88613072D01*
X120367500Y-88613072D01*
X120518807Y-88598170D01*
X120664299Y-88554035D01*
X120798385Y-88482365D01*
X120915912Y-88385912D01*
X121012365Y-88268385D01*
X121084035Y-88134299D01*
X121128170Y-87988807D01*
X121143072Y-87837500D01*
X121143072Y-86662500D01*
X121128170Y-86511193D01*
X121084035Y-86365701D01*
X121012365Y-86231615D01*
X120915912Y-86114088D01*
X120798385Y-86017635D01*
X120664299Y-85945965D01*
X120518807Y-85901830D01*
X120367500Y-85886928D01*
X120092500Y-85886928D01*
X119941193Y-85901830D01*
X119795701Y-85945965D01*
X119661615Y-86017635D01*
X119544088Y-86114088D01*
X119447635Y-86231615D01*
X119375965Y-86365701D01*
X119331830Y-86511193D01*
X119316928Y-86662500D01*
X119316928Y-87088270D01*
X118488998Y-87916201D01*
X118460000Y-87939999D01*
X118436202Y-87968997D01*
X118436201Y-87968998D01*
X118365026Y-88055724D01*
X118294454Y-88187754D01*
X118250998Y-88331015D01*
X118236324Y-88480000D01*
X118240001Y-88517332D01*
X118240000Y-90275224D01*
X118201745Y-90278992D01*
X118035149Y-90329528D01*
X117881613Y-90411595D01*
X117747038Y-90522038D01*
X117636595Y-90656613D01*
X117554528Y-90810149D01*
X117503992Y-90976745D01*
X117486928Y-91149999D01*
X117486928Y-91850001D01*
X117503992Y-92023255D01*
X117554528Y-92189851D01*
X117636595Y-92343387D01*
X117747038Y-92477962D01*
X117881613Y-92588405D01*
X117886111Y-92590809D01*
X117847498Y-92622498D01*
X117693167Y-92810551D01*
X117578489Y-93025099D01*
X117507870Y-93257898D01*
X117484025Y-93500000D01*
X117507870Y-93742102D01*
X117578489Y-93974901D01*
X117693167Y-94189449D01*
X117847498Y-94377502D01*
X118035551Y-94531833D01*
X118250099Y-94646511D01*
X118482898Y-94717130D01*
X118664335Y-94735000D01*
X119335665Y-94735000D01*
X119517102Y-94717130D01*
X119749901Y-94646511D01*
X119964449Y-94531833D01*
X120152502Y-94377502D01*
X120256549Y-94250720D01*
X120273986Y-94249003D01*
X120417247Y-94205546D01*
X120549276Y-94134974D01*
X120665001Y-94040001D01*
X120688804Y-94010997D01*
X125741004Y-88958798D01*
X125770001Y-88935001D01*
X125864974Y-88819276D01*
X125935546Y-88687247D01*
X125979003Y-88543986D01*
X125990000Y-88432333D01*
X125990000Y-88432324D01*
X125993676Y-88395001D01*
X125990000Y-88357678D01*
X125990000Y-88295637D01*
X126012365Y-88268385D01*
X126084035Y-88134299D01*
X126128170Y-87988807D01*
X126143072Y-87837500D01*
X126143072Y-86662500D01*
X126128170Y-86511193D01*
X126084035Y-86365701D01*
X126012365Y-86231615D01*
X125999508Y-86215948D01*
X127019003Y-86193393D01*
X126987635Y-86231615D01*
X126915965Y-86365701D01*
X126871830Y-86511193D01*
X126856928Y-86662500D01*
X126856928Y-87837500D01*
X126871830Y-87988807D01*
X126915965Y-88134299D01*
X126987635Y-88268385D01*
X127084088Y-88385912D01*
X127201615Y-88482365D01*
X127204468Y-88483890D01*
X127230000Y-88515001D01*
X127258998Y-88538799D01*
X127705872Y-88985673D01*
X127601939Y-88965000D01*
X127398061Y-88965000D01*
X127198102Y-89004774D01*
X127009744Y-89082795D01*
X126840226Y-89196063D01*
X126696063Y-89340226D01*
X126582795Y-89509744D01*
X126504774Y-89698102D01*
X126465000Y-89898061D01*
X126465000Y-90101939D01*
X126504774Y-90301898D01*
X126582795Y-90490256D01*
X126609378Y-90530041D01*
X126601058Y-90534488D01*
X126500000Y-90617425D01*
X126398942Y-90534488D01*
X126247567Y-90453577D01*
X126083316Y-90403752D01*
X125912500Y-90386928D01*
X125337500Y-90386928D01*
X125166684Y-90403752D01*
X125002433Y-90453577D01*
X124851058Y-90534488D01*
X124718377Y-90643377D01*
X124609488Y-90776058D01*
X124528577Y-90927433D01*
X124478752Y-91091684D01*
X124461928Y-91262500D01*
X124461928Y-91737500D01*
X124478752Y-91908316D01*
X124528577Y-92072567D01*
X124609488Y-92223942D01*
X124718377Y-92356623D01*
X124851058Y-92465512D01*
X124982929Y-92535998D01*
X124990026Y-92549276D01*
X125011732Y-92575724D01*
X125084999Y-92665001D01*
X125114002Y-92688803D01*
X125740001Y-93314803D01*
X125740000Y-96092023D01*
X125656613Y-96136595D01*
X125522038Y-96247038D01*
X125411595Y-96381613D01*
X125409191Y-96386111D01*
X125377502Y-96347498D01*
X125189449Y-96193167D01*
X124974901Y-96078489D01*
X124742102Y-96007870D01*
X124500000Y-95984025D01*
X124257899Y-96007870D01*
X124025100Y-96078489D01*
X123810552Y-96193167D01*
X123622499Y-96347498D01*
X123468168Y-96535551D01*
X123353489Y-96750099D01*
X123282870Y-96982898D01*
X123265000Y-97164335D01*
X123265000Y-97835664D01*
X123282870Y-98017101D01*
X123353489Y-98249900D01*
X123468167Y-98464448D01*
X123622498Y-98652502D01*
X123810551Y-98806833D01*
X124025099Y-98921511D01*
X124257898Y-98992130D01*
X124500000Y-99015975D01*
X124742101Y-98992130D01*
X124974900Y-98921511D01*
X125189448Y-98806833D01*
X125377502Y-98652502D01*
X125409191Y-98613889D01*
X125411595Y-98618387D01*
X125522038Y-98752962D01*
X125656613Y-98863405D01*
X125810149Y-98945472D01*
X125976745Y-98996008D01*
X126149999Y-99013072D01*
X126850001Y-99013072D01*
X127023255Y-98996008D01*
X127189851Y-98945472D01*
X127343387Y-98863405D01*
X127477962Y-98752962D01*
X127588405Y-98618387D01*
X127670472Y-98464851D01*
X127721008Y-98298255D01*
X127738072Y-98125001D01*
X127738072Y-96874999D01*
X127721008Y-96701745D01*
X127670472Y-96535149D01*
X127588405Y-96381613D01*
X127477962Y-96247038D01*
X127343387Y-96136595D01*
X127260000Y-96092024D01*
X127260000Y-93037323D01*
X127263676Y-93000000D01*
X127260000Y-92962677D01*
X127260000Y-92962667D01*
X127249003Y-92851014D01*
X127205546Y-92707753D01*
X127154937Y-92613072D01*
X127662500Y-92613072D01*
X127833316Y-92596248D01*
X127840000Y-92594220D01*
X127840001Y-96808178D01*
X127836324Y-96845510D01*
X127840001Y-96882843D01*
X127850998Y-96994496D01*
X127854027Y-97004482D01*
X127894454Y-97137756D01*
X127965026Y-97269786D01*
X128036201Y-97356512D01*
X128060000Y-97385511D01*
X128088998Y-97409309D01*
X128987673Y-98307984D01*
X128990000Y-98489250D01*
X129148750Y-98648000D01*
X129973000Y-98648000D01*
X129973000Y-98635010D01*
X130227000Y-98635010D01*
X130227000Y-98648000D01*
X131051250Y-98648000D01*
X131064240Y-98635010D01*
X131537668Y-98635010D01*
X131574990Y-98638686D01*
X131612312Y-98635010D01*
X131612323Y-98635010D01*
X131723976Y-98624013D01*
X131867237Y-98580556D01*
X131999266Y-98509984D01*
X132066265Y-98454999D01*
X132436928Y-98454999D01*
X132436928Y-99080000D01*
X132449188Y-99204482D01*
X132485498Y-99324180D01*
X132493954Y-99340000D01*
X131209132Y-99340000D01*
X131213072Y-99300000D01*
X131210000Y-99060750D01*
X131051250Y-98902000D01*
X130227000Y-98902000D01*
X130227000Y-98922000D01*
X129973000Y-98922000D01*
X129973000Y-98902000D01*
X129148750Y-98902000D01*
X128990000Y-99060750D01*
X128986928Y-99300000D01*
X128990868Y-99340000D01*
X115660000Y-99340000D01*
X115660000Y-80660000D01*
X119506409Y-80660000D01*
X119447635Y-80731615D01*
G37*
X119447635Y-80731615D02*
X119375965Y-80865701D01*
X119331830Y-81011193D01*
X119316928Y-81162500D01*
X119316928Y-82337500D01*
X119331830Y-82488807D01*
X119375965Y-82634299D01*
X119447635Y-82768385D01*
X119544088Y-82885912D01*
X119661615Y-82982365D01*
X119795701Y-83054035D01*
X119941193Y-83098170D01*
X120092500Y-83113072D01*
X120367500Y-83113072D01*
X120518807Y-83098170D01*
X120664299Y-83054035D01*
X120798385Y-82982365D01*
X120915912Y-82885912D01*
X121012365Y-82768385D01*
X121084035Y-82634299D01*
X121128170Y-82488807D01*
X121143072Y-82337500D01*
X121143072Y-81911729D01*
X121594812Y-81459990D01*
X121856928Y-81459990D01*
X121856928Y-82337500D01*
X121871830Y-82488807D01*
X121915965Y-82634299D01*
X121987635Y-82768385D01*
X122084088Y-82885912D01*
X122201615Y-82982365D01*
X122335701Y-83054035D01*
X122481193Y-83098170D01*
X122632500Y-83113072D01*
X122907500Y-83113072D01*
X123044753Y-83099554D01*
X123456201Y-83511003D01*
X123479999Y-83540001D01*
X123508997Y-83563799D01*
X123595723Y-83634974D01*
X123672503Y-83676014D01*
X123727753Y-83705546D01*
X123871014Y-83749003D01*
X123982667Y-83760000D01*
X123982677Y-83760000D01*
X124020000Y-83763676D01*
X124057323Y-83760000D01*
X127207678Y-83760000D01*
X127245000Y-83763676D01*
X127282322Y-83760000D01*
X127282333Y-83760000D01*
X127393986Y-83749003D01*
X127537247Y-83705546D01*
X127669276Y-83634974D01*
X127785001Y-83540001D01*
X127808803Y-83510998D01*
X128281002Y-83038800D01*
X128310001Y-83015001D01*
X128335534Y-82983889D01*
X128338385Y-82982365D01*
X128455912Y-82885912D01*
X128552365Y-82768385D01*
X128624035Y-82634299D01*
X128657511Y-82523946D01*
X128801898Y-82495226D01*
X128990256Y-82417205D01*
X129159774Y-82303937D01*
X129303937Y-82159774D01*
X129417205Y-81990256D01*
X129495226Y-81801898D01*
X129535000Y-81601939D01*
X129535000Y-81398061D01*
X129495226Y-81198102D01*
X129417205Y-81009744D01*
X129303937Y-80840226D01*
X129159774Y-80696063D01*
X129105802Y-80660000D01*
X144340000Y-80660000D01*
X144340001Y-99340000D01*
X142536950Y-99340000D01*
X142535000Y-99235750D01*
X142376250Y-99077000D01*
X141627000Y-99077000D01*
X141627000Y-99097000D01*
X141373000Y-99097000D01*
X141373000Y-99077000D01*
X141353000Y-99077000D01*
X141353000Y-98823000D01*
X141373000Y-98823000D01*
X141373000Y-98023750D01*
X141627000Y-98023750D01*
X141627000Y-98823000D01*
X142376250Y-98823000D01*
X142535000Y-98664250D01*
X142538072Y-98500000D01*
X142525812Y-98375518D01*
X142489502Y-98255820D01*
X142430537Y-98145506D01*
X142351185Y-98048815D01*
X142254494Y-97969463D01*
X142144180Y-97910498D01*
X142024482Y-97874188D01*
X141900000Y-97861928D01*
X141785750Y-97865000D01*
X141627000Y-98023750D01*
X141373000Y-98023750D01*
X141288393Y-97939143D01*
X141304494Y-97930537D01*
X141401185Y-97851185D01*
X141480537Y-97754494D01*
X141539502Y-97644180D01*
X141575812Y-97524482D01*
X141588072Y-97400000D01*
X141588072Y-96500000D01*
X141575812Y-96375518D01*
X141539502Y-96255820D01*
X141480537Y-96145506D01*
X141401185Y-96048815D01*
X141304494Y-95969463D01*
X141194180Y-95910498D01*
X141074482Y-95874188D01*
X140950000Y-95861928D01*
X140150000Y-95861928D01*
X140025518Y-95874188D01*
X139905820Y-95910498D01*
X139795506Y-95969463D01*
X139698815Y-96048815D01*
X139619463Y-96145506D01*
X139595680Y-96190000D01*
X136263072Y-96190000D01*
X136263072Y-95820000D01*
X136257163Y-95760000D01*
X136912729Y-95760000D01*
X136950051Y-95763676D01*
X136987373Y-95760000D01*
X136987384Y-95760000D01*
X137099037Y-95749003D01*
X137242298Y-95705546D01*
X137374327Y-95634974D01*
X137490052Y-95540001D01*
X137513854Y-95510998D01*
X137698439Y-95326414D01*
X137748987Y-95376962D01*
X137967641Y-95523061D01*
X138210595Y-95623696D01*
X138468514Y-95675000D01*
X138731486Y-95675000D01*
X138989405Y-95623696D01*
X139232359Y-95523061D01*
X139451013Y-95376962D01*
X139636962Y-95191013D01*
X139783061Y-94972359D01*
X139883696Y-94729405D01*
X139935000Y-94471486D01*
X139935000Y-94208514D01*
X139883696Y-93950595D01*
X139783061Y-93707641D01*
X139636962Y-93488987D01*
X139451013Y-93303038D01*
X139232359Y-93156939D01*
X139018556Y-93068379D01*
X139181366Y-93008935D01*
X139282203Y-92955037D01*
X139341664Y-92721269D01*
X138600000Y-91979605D01*
X137858336Y-92721269D01*
X137917797Y-92955037D01*
X138156242Y-93065934D01*
X138175827Y-93070706D01*
X137967641Y-93156939D01*
X137748987Y-93303038D01*
X137563038Y-93488987D01*
X137497260Y-93587432D01*
X137461065Y-93590997D01*
X137317804Y-93634454D01*
X137185774Y-93705026D01*
X137132190Y-93749002D01*
X137070050Y-93799999D01*
X137046251Y-93828998D01*
X136635250Y-94240000D01*
X136509132Y-94240000D01*
X136513072Y-94200000D01*
X136510000Y-93960750D01*
X136351250Y-93802000D01*
X135527000Y-93802000D01*
X135527000Y-93822000D01*
X135273000Y-93822000D01*
X135273000Y-93802000D01*
X135253000Y-93802000D01*
X135253000Y-93548000D01*
X135273000Y-93548000D01*
X135273000Y-93528000D01*
X135527000Y-93528000D01*
X135527000Y-93548000D01*
X136351250Y-93548000D01*
X136510000Y-93389250D01*
X136513072Y-93150000D01*
X136500812Y-93025518D01*
X136464502Y-92905820D01*
X136405537Y-92795506D01*
X136345901Y-92722839D01*
X136365512Y-92698942D01*
X136446423Y-92547567D01*
X136496248Y-92383316D01*
X136513072Y-92212500D01*
X136513072Y-91874473D01*
X137260610Y-91874473D01*
X137300875Y-92134344D01*
X137391065Y-92381366D01*
X137444963Y-92482203D01*
X137678731Y-92541664D01*
X138420395Y-91800000D01*
X138779605Y-91800000D01*
X139521269Y-92541664D01*
X139755037Y-92482203D01*
X139865934Y-92243758D01*
X139928183Y-91988260D01*
X139939390Y-91725527D01*
X139899125Y-91465656D01*
X139808935Y-91218634D01*
X139755037Y-91117797D01*
X139521269Y-91058336D01*
X138779605Y-91800000D01*
X138420395Y-91800000D01*
X137678731Y-91058336D01*
X137444963Y-91117797D01*
X137334066Y-91356242D01*
X137271817Y-91611740D01*
X137260610Y-91874473D01*
X136513072Y-91874473D01*
X136513072Y-91637500D01*
X136496248Y-91466684D01*
X136446423Y-91302433D01*
X136365512Y-91151058D01*
X136301067Y-91072532D01*
X136335000Y-90901939D01*
X136335000Y-90878731D01*
X137858336Y-90878731D01*
X138600000Y-91620395D01*
X139341664Y-90878731D01*
X139282203Y-90644963D01*
X139043758Y-90534066D01*
X138788260Y-90471817D01*
X138525527Y-90460610D01*
X138265656Y-90500875D01*
X138018634Y-90591065D01*
X137917797Y-90644963D01*
X137858336Y-90878731D01*
X136335000Y-90878731D01*
X136335000Y-90824226D01*
X136405545Y-90692248D01*
X136449002Y-90548987D01*
X136459999Y-90437334D01*
X136459999Y-90437324D01*
X136463675Y-90400002D01*
X136459999Y-90362679D01*
X136459999Y-87617609D01*
X140131538Y-87617609D01*
X140135409Y-87655282D01*
X140227579Y-87880533D01*
X140361922Y-88083474D01*
X140533275Y-88256307D01*
X140735054Y-88392390D01*
X140959504Y-88486493D01*
X141198000Y-88535000D01*
X141473000Y-88535000D01*
X141473000Y-87427000D01*
X141727000Y-87427000D01*
X141727000Y-88535000D01*
X142002000Y-88535000D01*
X142240496Y-88486493D01*
X142464946Y-88392390D01*
X142666725Y-88256307D01*
X142838078Y-88083474D01*
X142972421Y-87880533D01*
X143064591Y-87655282D01*
X143068462Y-87617609D01*
X142943731Y-87427000D01*
X141727000Y-87427000D01*
X141473000Y-87427000D01*
X140256269Y-87427000D01*
X140131538Y-87617609D01*
X136459999Y-87617609D01*
X136459999Y-86714802D01*
X137114802Y-86060000D01*
X140192024Y-86060000D01*
X140236595Y-86143387D01*
X140347038Y-86277962D01*
X140481613Y-86388405D01*
X140486406Y-86390967D01*
X140361922Y-86516526D01*
X140227579Y-86719467D01*
X140135409Y-86944718D01*
X140131538Y-86982391D01*
X140256269Y-87173000D01*
X141473000Y-87173000D01*
X141473000Y-87153000D01*
X141727000Y-87153000D01*
X141727000Y-87173000D01*
X142943731Y-87173000D01*
X143068462Y-86982391D01*
X143064591Y-86944718D01*
X142972421Y-86719467D01*
X142838078Y-86516526D01*
X142713594Y-86390967D01*
X142718387Y-86388405D01*
X142852962Y-86277962D01*
X142963405Y-86143387D01*
X143045472Y-85989851D01*
X143096008Y-85823255D01*
X143113072Y-85650001D01*
X143113072Y-84949999D01*
X143096008Y-84776745D01*
X143045472Y-84610149D01*
X142963405Y-84456613D01*
X142852962Y-84322038D01*
X142718387Y-84211595D01*
X142564851Y-84129528D01*
X142398255Y-84078992D01*
X142225001Y-84061928D01*
X140974999Y-84061928D01*
X140801745Y-84078992D01*
X140635149Y-84129528D01*
X140481613Y-84211595D01*
X140347038Y-84322038D01*
X140236595Y-84456613D01*
X140192024Y-84540000D01*
X137114802Y-84540000D01*
X135888804Y-83314003D01*
X135865001Y-83284999D01*
X135749276Y-83190026D01*
X135617247Y-83119454D01*
X135473986Y-83075997D01*
X135362333Y-83065000D01*
X135362322Y-83065000D01*
X135325000Y-83061324D01*
X135287678Y-83065000D01*
X134839625Y-83065000D01*
X134827929Y-82946255D01*
X134783084Y-82798418D01*
X134710258Y-82662171D01*
X134612251Y-82542749D01*
X134492829Y-82444742D01*
X134356582Y-82371916D01*
X134208745Y-82327071D01*
X134055000Y-82311928D01*
X133755000Y-82311928D01*
X133601255Y-82327071D01*
X133453418Y-82371916D01*
X133317171Y-82444742D01*
X133270000Y-82483454D01*
X133222829Y-82444742D01*
X133086582Y-82371916D01*
X132938745Y-82327071D01*
X132785000Y-82311928D01*
X132485000Y-82311928D01*
X132331255Y-82327071D01*
X132183418Y-82371916D01*
X132047171Y-82444742D01*
X132000000Y-82483454D01*
X131952829Y-82444742D01*
X131816582Y-82371916D01*
X131668745Y-82327071D01*
X131515000Y-82311928D01*
X131215000Y-82311928D01*
X131061255Y-82327071D01*
X130913418Y-82371916D01*
X130777171Y-82444742D01*
X130730000Y-82483454D01*
X130682829Y-82444742D01*
X130546582Y-82371916D01*
X130398745Y-82327071D01*
X130245000Y-82311928D01*
X129945000Y-82311928D01*
X129791255Y-82327071D01*
X129643418Y-82371916D01*
X129507171Y-82444742D01*
X129387749Y-82542749D01*
X129289742Y-82662171D01*
X129216916Y-82798418D01*
X129172071Y-82946255D01*
X129156928Y-83100000D01*
X129156928Y-83688270D01*
X128980198Y-83865000D01*
X128898061Y-83865000D01*
X128698102Y-83904774D01*
X128509744Y-83982795D01*
X128340226Y-84096063D01*
X128196063Y-84240226D01*
X128082795Y-84409744D01*
X128004774Y-84598102D01*
X127994163Y-84651448D01*
X124362120Y-84731803D01*
X124292246Y-84694454D01*
X124148985Y-84650997D01*
X124000000Y-84636323D01*
X123851014Y-84650997D01*
X123707753Y-84694454D01*
X123575724Y-84765026D01*
X123561627Y-84776595D01*
X123520743Y-84788997D01*
X123502753Y-84794454D01*
X123370723Y-84865026D01*
X123328108Y-84900000D01*
X123254999Y-84959999D01*
X123231201Y-84988997D01*
X122258998Y-85961201D01*
X122230000Y-85984999D01*
X122206202Y-86013997D01*
X122206201Y-86013998D01*
X122204467Y-86016110D01*
X122201615Y-86017635D01*
X122084088Y-86114088D01*
X121987635Y-86231615D01*
X121915965Y-86365701D01*
X121871830Y-86511193D01*
X121856928Y-86662500D01*
X121856928Y-87837500D01*
X121871830Y-87988807D01*
X121915965Y-88134299D01*
X121987635Y-88268385D01*
X122084088Y-88385912D01*
X122201615Y-88482365D01*
X122335701Y-88554035D01*
X122481193Y-88598170D01*
X122632500Y-88613072D01*
X122907500Y-88613072D01*
X123058807Y-88598170D01*
X123204299Y-88554035D01*
X123338385Y-88482365D01*
X123455912Y-88385912D01*
X123552365Y-88268385D01*
X123624035Y-88134299D01*
X123668170Y-87988807D01*
X123683072Y-87837500D01*
X123683072Y-86686729D01*
X124112097Y-86257705D01*
X124437538Y-86250505D01*
X124375965Y-86365701D01*
X124331830Y-86511193D01*
X124316928Y-86662500D01*
X124316928Y-87837500D01*
X124331830Y-87988807D01*
X124375965Y-88134299D01*
X124389875Y-88160323D01*
X120482538Y-92067661D01*
X120496008Y-92023255D01*
X120513072Y-91850001D01*
X120513072Y-91149999D01*
X120496008Y-90976745D01*
X120445472Y-90810149D01*
X120363405Y-90656613D01*
X120252962Y-90522038D01*
X120118387Y-90411595D01*
X119964851Y-90329528D01*
X119798255Y-90278992D01*
X119760000Y-90275224D01*
X119760000Y-88794801D01*
X119955247Y-88599554D01*
X120092500Y-88613072D01*
X120367500Y-88613072D01*
X120518807Y-88598170D01*
X120664299Y-88554035D01*
X120798385Y-88482365D01*
X120915912Y-88385912D01*
X121012365Y-88268385D01*
X121084035Y-88134299D01*
X121128170Y-87988807D01*
X121143072Y-87837500D01*
X121143072Y-86662500D01*
X121128170Y-86511193D01*
X121084035Y-86365701D01*
X121012365Y-86231615D01*
X120915912Y-86114088D01*
X120798385Y-86017635D01*
X120664299Y-85945965D01*
X120518807Y-85901830D01*
X120367500Y-85886928D01*
X120092500Y-85886928D01*
X119941193Y-85901830D01*
X119795701Y-85945965D01*
X119661615Y-86017635D01*
X119544088Y-86114088D01*
X119447635Y-86231615D01*
X119375965Y-86365701D01*
X119331830Y-86511193D01*
X119316928Y-86662500D01*
X119316928Y-87088270D01*
X118488998Y-87916201D01*
X118460000Y-87939999D01*
X118436202Y-87968997D01*
X118436201Y-87968998D01*
X118365026Y-88055724D01*
X118294454Y-88187754D01*
X118250998Y-88331015D01*
X118236324Y-88480000D01*
X118240001Y-88517332D01*
X118240000Y-90275224D01*
X118201745Y-90278992D01*
X118035149Y-90329528D01*
X117881613Y-90411595D01*
X117747038Y-90522038D01*
X117636595Y-90656613D01*
X117554528Y-90810149D01*
X117503992Y-90976745D01*
X117486928Y-91149999D01*
X117486928Y-91850001D01*
X117503992Y-92023255D01*
X117554528Y-92189851D01*
X117636595Y-92343387D01*
X117747038Y-92477962D01*
X117881613Y-92588405D01*
X117886111Y-92590809D01*
X117847498Y-92622498D01*
X117693167Y-92810551D01*
X117578489Y-93025099D01*
X117507870Y-93257898D01*
X117484025Y-93500000D01*
X117507870Y-93742102D01*
X117578489Y-93974901D01*
X117693167Y-94189449D01*
X117847498Y-94377502D01*
X118035551Y-94531833D01*
X118250099Y-94646511D01*
X118482898Y-94717130D01*
X118664335Y-94735000D01*
X119335665Y-94735000D01*
X119517102Y-94717130D01*
X119749901Y-94646511D01*
X119964449Y-94531833D01*
X120152502Y-94377502D01*
X120256549Y-94250720D01*
X120273986Y-94249003D01*
X120417247Y-94205546D01*
X120549276Y-94134974D01*
X120665001Y-94040001D01*
X120688804Y-94010997D01*
X125741004Y-88958798D01*
X125770001Y-88935001D01*
X125864974Y-88819276D01*
X125935546Y-88687247D01*
X125979003Y-88543986D01*
X125990000Y-88432333D01*
X125990000Y-88432324D01*
X125993676Y-88395001D01*
X125990000Y-88357678D01*
X125990000Y-88295637D01*
X126012365Y-88268385D01*
X126084035Y-88134299D01*
X126128170Y-87988807D01*
X126143072Y-87837500D01*
X126143072Y-86662500D01*
X126128170Y-86511193D01*
X126084035Y-86365701D01*
X126012365Y-86231615D01*
X125999508Y-86215948D01*
X127019003Y-86193393D01*
X126987635Y-86231615D01*
X126915965Y-86365701D01*
X126871830Y-86511193D01*
X126856928Y-86662500D01*
X126856928Y-87837500D01*
X126871830Y-87988807D01*
X126915965Y-88134299D01*
X126987635Y-88268385D01*
X127084088Y-88385912D01*
X127201615Y-88482365D01*
X127204468Y-88483890D01*
X127230000Y-88515001D01*
X127258998Y-88538799D01*
X127705872Y-88985673D01*
X127601939Y-88965000D01*
X127398061Y-88965000D01*
X127198102Y-89004774D01*
X127009744Y-89082795D01*
X126840226Y-89196063D01*
X126696063Y-89340226D01*
X126582795Y-89509744D01*
X126504774Y-89698102D01*
X126465000Y-89898061D01*
X126465000Y-90101939D01*
X126504774Y-90301898D01*
X126582795Y-90490256D01*
X126609378Y-90530041D01*
X126601058Y-90534488D01*
X126500000Y-90617425D01*
X126398942Y-90534488D01*
X126247567Y-90453577D01*
X126083316Y-90403752D01*
X125912500Y-90386928D01*
X125337500Y-90386928D01*
X125166684Y-90403752D01*
X125002433Y-90453577D01*
X124851058Y-90534488D01*
X124718377Y-90643377D01*
X124609488Y-90776058D01*
X124528577Y-90927433D01*
X124478752Y-91091684D01*
X124461928Y-91262500D01*
X124461928Y-91737500D01*
X124478752Y-91908316D01*
X124528577Y-92072567D01*
X124609488Y-92223942D01*
X124718377Y-92356623D01*
X124851058Y-92465512D01*
X124982929Y-92535998D01*
X124990026Y-92549276D01*
X125011732Y-92575724D01*
X125084999Y-92665001D01*
X125114002Y-92688803D01*
X125740001Y-93314803D01*
X125740000Y-96092023D01*
X125656613Y-96136595D01*
X125522038Y-96247038D01*
X125411595Y-96381613D01*
X125409191Y-96386111D01*
X125377502Y-96347498D01*
X125189449Y-96193167D01*
X124974901Y-96078489D01*
X124742102Y-96007870D01*
X124500000Y-95984025D01*
X124257899Y-96007870D01*
X124025100Y-96078489D01*
X123810552Y-96193167D01*
X123622499Y-96347498D01*
X123468168Y-96535551D01*
X123353489Y-96750099D01*
X123282870Y-96982898D01*
X123265000Y-97164335D01*
X123265000Y-97835664D01*
X123282870Y-98017101D01*
X123353489Y-98249900D01*
X123468167Y-98464448D01*
X123622498Y-98652502D01*
X123810551Y-98806833D01*
X124025099Y-98921511D01*
X124257898Y-98992130D01*
X124500000Y-99015975D01*
X124742101Y-98992130D01*
X124974900Y-98921511D01*
X125189448Y-98806833D01*
X125377502Y-98652502D01*
X125409191Y-98613889D01*
X125411595Y-98618387D01*
X125522038Y-98752962D01*
X125656613Y-98863405D01*
X125810149Y-98945472D01*
X125976745Y-98996008D01*
X126149999Y-99013072D01*
X126850001Y-99013072D01*
X127023255Y-98996008D01*
X127189851Y-98945472D01*
X127343387Y-98863405D01*
X127477962Y-98752962D01*
X127588405Y-98618387D01*
X127670472Y-98464851D01*
X127721008Y-98298255D01*
X127738072Y-98125001D01*
X127738072Y-96874999D01*
X127721008Y-96701745D01*
X127670472Y-96535149D01*
X127588405Y-96381613D01*
X127477962Y-96247038D01*
X127343387Y-96136595D01*
X127260000Y-96092024D01*
X127260000Y-93037323D01*
X127263676Y-93000000D01*
X127260000Y-92962677D01*
X127260000Y-92962667D01*
X127249003Y-92851014D01*
X127205546Y-92707753D01*
X127154937Y-92613072D01*
X127662500Y-92613072D01*
X127833316Y-92596248D01*
X127840000Y-92594220D01*
X127840001Y-96808178D01*
X127836324Y-96845510D01*
X127840001Y-96882843D01*
X127850998Y-96994496D01*
X127854027Y-97004482D01*
X127894454Y-97137756D01*
X127965026Y-97269786D01*
X128036201Y-97356512D01*
X128060000Y-97385511D01*
X128088998Y-97409309D01*
X128987673Y-98307984D01*
X128990000Y-98489250D01*
X129148750Y-98648000D01*
X129973000Y-98648000D01*
X129973000Y-98635010D01*
X130227000Y-98635010D01*
X130227000Y-98648000D01*
X131051250Y-98648000D01*
X131064240Y-98635010D01*
X131537668Y-98635010D01*
X131574990Y-98638686D01*
X131612312Y-98635010D01*
X131612323Y-98635010D01*
X131723976Y-98624013D01*
X131867237Y-98580556D01*
X131999266Y-98509984D01*
X132066265Y-98454999D01*
X132436928Y-98454999D01*
X132436928Y-99080000D01*
X132449188Y-99204482D01*
X132485498Y-99324180D01*
X132493954Y-99340000D01*
X131209132Y-99340000D01*
X131213072Y-99300000D01*
X131210000Y-99060750D01*
X131051250Y-98902000D01*
X130227000Y-98902000D01*
X130227000Y-98922000D01*
X129973000Y-98922000D01*
X129973000Y-98902000D01*
X129148750Y-98902000D01*
X128990000Y-99060750D01*
X128986928Y-99300000D01*
X128990868Y-99340000D01*
X115660000Y-99340000D01*
X115660000Y-80660000D01*
X119506409Y-80660000D01*
X119447635Y-80731615D01*
G36*
X139619463Y-97754494D02*
G01*
X139698815Y-97851185D01*
X139711905Y-97861928D01*
X139200000Y-97861928D01*
X139075518Y-97874188D01*
X138955820Y-97910498D01*
X138845506Y-97969463D01*
X138748815Y-98048815D01*
X138669463Y-98145506D01*
X138610498Y-98255820D01*
X138574188Y-98375518D01*
X138561928Y-98500000D01*
X138561928Y-98645001D01*
X135153000Y-98645001D01*
X135153000Y-98423000D01*
X135173000Y-98423000D01*
X135173000Y-98403000D01*
X135427000Y-98403000D01*
X135427000Y-98423000D01*
X136101250Y-98423000D01*
X136260000Y-98264250D01*
X136263072Y-98020000D01*
X136250812Y-97895518D01*
X136214502Y-97775820D01*
X136179320Y-97710000D01*
X139595680Y-97710000D01*
X139619463Y-97754494D01*
G37*
X139619463Y-97754494D02*
X139698815Y-97851185D01*
X139711905Y-97861928D01*
X139200000Y-97861928D01*
X139075518Y-97874188D01*
X138955820Y-97910498D01*
X138845506Y-97969463D01*
X138748815Y-98048815D01*
X138669463Y-98145506D01*
X138610498Y-98255820D01*
X138574188Y-98375518D01*
X138561928Y-98500000D01*
X138561928Y-98645001D01*
X135153000Y-98645001D01*
X135153000Y-98423000D01*
X135173000Y-98423000D01*
X135173000Y-98403000D01*
X135427000Y-98403000D01*
X135427000Y-98423000D01*
X136101250Y-98423000D01*
X136260000Y-98264250D01*
X136263072Y-98020000D01*
X136250812Y-97895518D01*
X136214502Y-97775820D01*
X136179320Y-97710000D01*
X139595680Y-97710000D01*
X139619463Y-97754494D01*
M02*
